<svg width="543" height="477" viewBox="0 0 543 477" fill="none" xmlns="http://www.w3.org/2000/svg">
<g opacity="0.1" clip-path="url(#clip0_428_791)">
<path fill-rule="evenodd" clip-rule="evenodd" d="M-37.7501 161.181C-37.7501 161.181 -25.2606 155.729 -0.878972 154.711C10.2005 154.244 23.7191 154.721 39.7093 157.006C49.8759 158.459 61.0287 160.634 73.1952 163.769C88.4658 167.702 105.331 173.069 123.804 180.658C184.794 205.456 258.949 231.981 329.358 246.404C377.042 256.171 422.984 260.381 461.974 254.91C467.06 254.195 471.129 253.172 475.173 251.654C478.813 250.297 482.434 248.545 486.788 246.261C487.409 245.952 487.463 245.125 486.901 244.413C486.342 243.709 485.383 243.384 484.765 243.702C480.398 245.806 476.779 247.423 473.154 248.653C469.211 249.988 465.266 250.864 460.34 251.419C421.435 255.847 375.869 250.552 328.743 239.945C258.903 224.219 185.631 196.727 125.431 171.105C106.213 163.009 88.6411 157.054 72.7312 152.992C59.9473 149.725 48.2357 147.625 37.6131 146.405C20.8858 144.499 6.84262 144.696 -4.53338 145.898C-29.7865 148.568 -41.9469 155.971 -41.9469 155.971C-43.1962 156.623 -43.2754 158.319 -42.1176 159.762C-40.9627 161.196 -38.9995 161.833 -37.7501 161.181Z" fill="#343D33"/>
<path fill-rule="evenodd" clip-rule="evenodd" d="M440.928 256.095C440.928 256.095 442.481 256.584 445.084 257.256C446.28 257.561 447.675 257.918 449.227 258.236C452.755 258.963 457.036 259.63 461.595 260.988C466.114 262.337 470.833 264.102 475.219 266.654C475.703 266.974 476.258 266.93 476.462 266.564C476.666 266.198 476.433 265.642 475.948 265.322C470.412 261.265 464.079 258.292 458.238 256.142C455.913 255.289 453.686 254.564 451.62 254.006C450.041 253.579 448.551 253.199 447.223 252.986C445.842 252.769 444.648 252.697 443.639 252.668C441.362 252.594 440.109 252.751 440.109 252.751C439.131 252.664 438.527 253.344 438.751 254.268C438.975 255.192 439.951 256.008 440.928 256.095Z" fill="#343D33"/>
<path fill-rule="evenodd" clip-rule="evenodd" d="M381.709 253.798C381.709 253.798 382.708 254.869 384.64 256.511C385.499 257.24 386.526 258.073 387.752 258.918C388.937 259.726 390.303 260.505 391.764 261.307C393.673 262.362 395.766 263.383 397.982 264.36C403.526 266.808 409.721 268.864 415.588 269.328C416.107 269.401 416.458 269.077 416.369 268.596C416.287 268.119 415.795 267.665 415.28 267.587C410.838 266.633 406.375 264.718 402.204 262.578C397.981 260.405 394.204 257.817 391.04 255.827C389.648 254.954 388.38 254.234 387.294 253.616C384.916 252.259 383.469 251.529 383.469 251.529C382.597 250.845 381.496 250.801 381.007 251.424C380.518 252.047 380.837 253.114 381.709 253.798Z" fill="#343D33"/>
<path fill-rule="evenodd" clip-rule="evenodd" d="M417.443 255.039C417.443 255.039 418.364 254.684 419.744 253.828C420.363 253.447 421.067 252.985 421.752 252.352C422.412 251.741 423.018 250.966 423.656 250.133C424.494 249.032 425.297 247.781 426.064 246.448C428.192 242.787 429.945 238.566 430.101 234.498C430.161 234.056 429.788 233.532 429.262 233.318C428.739 233.113 428.263 233.306 428.197 233.744C427.649 235.87 426.464 237.911 425.04 239.878C423.46 242.064 421.522 244.024 419.75 245.779C418.881 246.645 418.004 247.403 417.311 248.167C416.836 248.704 416.461 249.232 416.126 249.716C415.073 251.24 414.557 252.232 414.557 252.232C413.943 252.754 414.086 253.798 414.881 254.576C415.68 255.348 416.832 255.556 417.443 255.039Z" fill="#343D33"/>
<path fill-rule="evenodd" clip-rule="evenodd" d="M286.242 235.607C286.242 235.607 289.518 238.398 294.837 242.901C297.316 244.997 300.216 247.462 303.466 250.16C310.968 256.397 320.19 263.968 328.965 272.286C338.281 281.122 347.225 290.625 353.456 299.758C353.756 300.219 354.346 300.482 354.778 300.349C355.204 300.211 355.309 299.719 355.009 299.258C347.742 287.419 336.192 274.693 324.716 263.55C320.432 259.396 316.176 255.454 312.128 251.891C309.046 249.182 306.127 246.663 303.387 244.473C300.57 242.22 297.974 240.301 295.764 238.696C290.914 235.181 287.876 233.252 287.876 233.252C286.979 232.591 285.888 232.587 285.443 233.24C284.992 233.888 285.351 234.95 286.242 235.607Z" fill="#343D33"/>
<path fill-rule="evenodd" clip-rule="evenodd" d="M320.735 286.934C323.688 284.742 325.088 280.612 325.698 276.379C325.953 274.591 326.052 272.811 326.029 271.137C326.017 270.335 326.007 269.568 325.895 268.827C325.774 268.059 325.586 267.345 325.379 266.698C324.735 264.643 324.114 263.428 324.114 263.428C323.911 262.511 322.959 261.684 321.983 261.579C321.007 261.475 320.381 262.131 320.584 263.048C320.584 263.048 320.449 263.927 320.406 265.496C320.392 266.204 320.348 267.019 320.423 267.972C320.537 269.371 320.878 271.007 321.047 272.7C321.266 274.971 321.426 277.349 321.199 279.561C320.96 281.895 320.433 284.027 319.22 285.566C318.933 285.851 319.033 286.384 319.449 286.763C319.865 287.142 320.442 287.216 320.735 286.934Z" fill="#343D33"/>
<path fill-rule="evenodd" clip-rule="evenodd" d="M261.103 280.774C256.263 267.116 245.77 252.364 234.653 239.414C229.748 233.706 224.743 228.35 220.034 223.618C217.729 221.302 215.508 219.117 213.371 217.158C211.151 215.116 209.037 213.296 207.132 211.707C201.22 206.773 197.315 203.994 197.315 203.994C196.459 203.302 195.358 203.23 194.857 203.831C194.347 204.431 194.632 205.48 195.485 206.177C195.485 206.177 199.665 210.018 206.039 216.188C207.137 217.252 208.306 218.374 209.539 219.551C210.665 220.614 211.846 221.719 213.07 222.869C220.756 230.078 229.908 239.059 238.237 248.816C247.041 259.13 254.995 270.221 259.382 280.839C259.56 281.312 260.091 281.673 260.571 281.656C261.044 281.635 261.279 281.238 261.103 280.774Z" fill="#343D33"/>
<path fill-rule="evenodd" clip-rule="evenodd" d="M218.033 254.611C221.063 252.244 222.265 246.502 222.557 240.589C222.676 238.345 222.659 236.095 222.528 233.992C222.469 232.99 222.413 232.025 222.257 231.108C222.095 230.159 221.867 229.277 221.64 228.486C220.91 225.998 220.232 224.481 220.232 224.481C220.039 223.564 219.093 222.728 218.117 222.61C217.145 222.501 216.507 223.148 216.695 224.061C216.695 224.061 216.608 225.228 216.651 227.23C216.667 228.146 216.681 229.21 216.82 230.429C217.018 232.239 217.463 234.336 217.745 236.503C218.136 239.47 218.468 242.585 218.418 245.407C218.356 248.694 217.917 251.575 216.525 253.247C216.232 253.528 216.331 254.061 216.747 254.44C217.164 254.818 217.74 254.892 218.033 254.611Z" fill="#343D33"/>
<path fill-rule="evenodd" clip-rule="evenodd" d="M134.759 234.593C132.704 219.009 124.821 204.941 115.56 193.315C110.948 187.522 105.99 182.336 101.221 177.898C98.8644 175.706 96.5702 173.677 94.3466 171.891C92.0405 170.037 89.8357 168.435 87.8381 167.056C81.6739 162.804 77.4934 160.664 77.4934 160.664C76.5547 160.101 75.5312 160.237 75.2076 160.97C74.881 161.694 75.3761 162.738 76.3087 163.296C76.3087 163.296 79.9909 165.862 85.5393 170.309C87.3501 171.754 89.3525 173.416 91.5263 175.219C94.2535 177.482 97.2588 179.973 100.309 182.77C104.294 186.427 108.427 190.534 112.354 195.089C121.729 205.948 130.021 219.217 132.943 234.303C133.016 234.766 133.489 235.207 133.987 235.284C134.49 235.366 134.841 235.056 134.759 234.593Z" fill="#343D33"/>
<path fill-rule="evenodd" clip-rule="evenodd" d="M375.927 203.035C375.391 210.122 371.194 216.845 365.923 222.809C361.248 228.108 355.633 232.699 350.873 236.352C350.123 236.931 349.402 237.482 348.727 238.034C347.983 238.631 347.292 239.219 346.642 239.776C342.894 243.025 340.446 245.079 340.446 245.079C339.752 245.5 339.762 246.508 340.48 247.33C341.191 248.147 342.336 248.472 343.033 248.047C343.033 248.047 346.213 246.675 350.633 243.94C351.393 243.465 352.18 242.941 352.976 242.363C353.704 241.83 354.435 241.251 355.167 240.632C359.882 236.685 365.126 231.447 369.407 225.575C374.309 218.842 377.868 211.24 377.781 203.622C377.794 203.179 377.39 202.686 376.875 202.522C376.366 202.362 375.939 202.592 375.927 203.035Z" fill="#343D33"/>
<path fill-rule="evenodd" clip-rule="evenodd" d="M278.43 181.804C276.04 189.621 269.649 195.387 262.125 199.747C255.087 203.818 246.989 206.539 240.127 208.482C239.044 208.791 238.001 209.082 237.003 209.379C235.913 209.696 234.88 210.015 233.903 210.32C228.284 212.074 224.543 213.045 224.543 213.045C223.65 213.166 223.283 214.015 223.719 214.922C224.158 215.838 225.236 216.477 226.132 216.351C226.132 216.351 230.422 216.18 236.632 215.037C237.7 214.841 238.82 214.6 239.974 214.31C241.025 214.046 242.095 213.728 243.188 213.379C250.172 211.157 258.17 207.731 265.013 203.008C272.428 197.889 278.423 191.199 280.24 182.668C280.342 182.258 280.027 181.736 279.528 181.5C279.031 181.26 278.538 181.4 278.43 181.804Z" fill="#343D33"/>
<path fill-rule="evenodd" clip-rule="evenodd" d="M195.361 150.022C191.675 157.456 185.569 163.202 178.857 167.724C172.073 172.295 164.593 175.491 158.288 177.81C157.269 178.188 156.285 178.542 155.35 178.893C154.321 179.284 153.355 179.666 152.442 180.026C147.122 182.149 143.633 183.294 143.633 183.294C142.76 183.465 142.452 184.337 142.935 185.245C143.412 186.148 144.512 186.742 145.385 186.571C145.385 186.571 148.752 186.287 153.825 185.082C155.453 184.694 157.244 184.208 159.125 183.569C160.925 182.952 162.78 182.164 164.705 181.292C168.596 179.528 172.714 177.325 176.714 174.665C185.222 169.003 193.173 161.263 197.107 151.056C197.278 150.683 197.019 150.148 196.538 149.858C196.055 149.573 195.525 149.644 195.361 150.022Z" fill="#343D33"/>
<path fill-rule="evenodd" clip-rule="evenodd" d="M156.18 144C160.064 151.464 161.298 157.72 161.313 162.827C161.317 165.122 161.031 167.152 160.651 168.955C160.356 170.377 159.93 171.612 159.595 172.758C159.317 173.679 159.108 174.542 158.885 175.293C158.181 177.621 157.625 178.972 157.625 178.972C157.116 179.571 157.398 180.628 158.246 181.322C159.101 182.021 160.21 182.095 160.713 181.492C160.713 181.492 162.122 180.47 163.617 178.15C164.094 177.425 164.548 176.56 164.924 175.54C165.278 174.566 165.513 173.441 165.7 172.226C166.061 169.841 166.154 167.051 165.764 163.887C165.047 158.223 162.844 151.403 157.75 143.597C157.475 143.138 156.908 142.853 156.478 142.97C156.045 143.079 155.914 143.542 156.18 144Z" fill="#343D33"/>
<path fill-rule="evenodd" clip-rule="evenodd" d="M507.131 223.451C501.84 219.09 496.532 217.439 491.613 217.672C488.473 217.815 485.528 218.822 482.862 220.426C480.274 221.986 477.98 224.162 476.074 226.744C471.843 232.485 469.542 240.238 469.689 247.593L469.7 249.27L471.56 250.191C481.381 254.879 492.828 252.567 500.957 247.227C506.949 243.286 511.133 237.811 511.64 232.825C512 229.303 510.659 225.998 507.131 223.451ZM474.586 247.234C482.568 250.337 491.523 248.18 498.302 244.202C503.984 240.87 508.182 236.207 508.87 231.76C509.247 229.284 508.51 226.9 506.036 224.995C502.206 222.435 498.647 221.478 495.357 221.529C492.122 221.582 489.236 222.769 486.618 224.608C484.466 226.123 482.544 228.105 480.863 230.383C477.378 235.139 475.001 241.187 474.586 247.234Z" fill="#343D33"/>
<path fill-rule="evenodd" clip-rule="evenodd" d="M506.068 278.792C507.181 274.743 505.003 270.596 501.021 266.919C498.877 264.94 496.136 263.156 493.078 261.635C490.18 260.191 486.971 259.014 483.691 258.187C476.401 256.35 468.781 256.245 463.107 258.279L461.021 258.99L462.641 261.206C467.585 267.735 479.54 278.172 489.538 282.908C494.7 285.356 499.344 286.306 502.399 284.783C504.303 283.841 505.66 281.967 506.068 278.792ZM468.207 261.977C473.211 267.999 482.381 276.08 490.314 280.204C496.815 283.576 502.47 284.181 503.711 277.826C503.854 275.17 502.395 272.794 500.12 270.682C498.044 268.753 495.235 267.144 492.06 265.761C489.525 264.65 486.771 263.729 483.933 263.02C478.537 261.666 472.869 261.106 468.207 261.977Z" fill="#343D33"/>
<path fill-rule="evenodd" clip-rule="evenodd" d="M459.048 286.019L457.975 284.907C454.159 280.707 449.481 276.245 444.21 272.407C440.802 269.929 437.154 267.735 433.418 265.982C424.241 261.687 414.528 260.074 405.912 263.643L404.192 264.325L405.576 266.215C410.495 272.778 419.692 282.03 430.549 286.834C439.013 290.577 448.514 291.711 457.737 286.693L459.048 286.019ZM454.695 285.333C450.336 281.267 445.001 277.19 439.338 273.734C435.491 271.385 431.485 269.3 427.404 267.902C421.681 265.942 415.849 265.245 410.369 266.78C414.919 272.611 422.371 279.943 431.179 284.112C438.406 287.527 446.521 288.767 454.695 285.333Z" fill="#343D33"/>
<path fill-rule="evenodd" clip-rule="evenodd" d="M387.668 325.405L387.215 324.29C385.382 319.209 382.566 313.983 378.873 309.044C376.461 305.809 373.663 302.709 370.616 299.866C362.84 292.608 353.424 287.016 343.921 284.632L341.522 284.003L341.848 286.181C342.805 291.904 347.225 304.643 356.575 314.063C363.545 321.083 373.205 326.372 386.153 325.482L387.668 325.405ZM383.679 323.311C381.607 319.055 378.724 314.808 375.398 310.749C373.052 307.883 370.468 305.127 367.693 302.548C361.419 296.722 354.15 291.837 346.558 289.24C347.853 295.052 351.56 304.813 358.76 312.42C364.58 318.569 372.692 323.243 383.679 323.311Z" fill="#343D33"/>
<path fill-rule="evenodd" clip-rule="evenodd" d="M326.643 316.914L327.23 316.086C328.178 314.933 331.213 310.192 332.63 303.78C333.291 300.812 333.521 297.462 333.2 294.056C332.632 288.011 330.17 281.745 324.621 276.473L323.457 275.339L322.18 275.632C315.052 277.438 309.917 284.203 310.64 292.949C311.212 299.872 315.372 308.041 325.194 315.745L326.643 316.914ZM323.074 279.923C317.606 281.687 313.771 286.987 314.048 293.773C314.27 299.498 317.413 306.259 324.851 312.952C325.717 310.937 327.08 306.728 327.845 301.739C328.264 298.994 328.559 296.027 328.313 292.978C327.962 288.558 326.608 283.979 323.074 279.923Z" fill="#343D33"/>
<path fill-rule="evenodd" clip-rule="evenodd" d="M282.584 315.889L282.244 314.441C281.175 308.846 280.044 302.337 277.97 295.863C276.573 291.497 274.717 287.158 272.484 283.166C268.095 275.322 262.032 268.797 253.716 265.487L251.352 264.516L251.273 266.594C251.174 272.753 250.591 287.936 258.667 300.058C263.044 306.624 269.884 312.37 280.672 315.338L282.584 315.889ZM278.658 312.58C277.217 307.431 275.449 301.622 273.363 295.877C271.893 291.825 270.289 287.804 268.259 284.093C265.114 278.336 261.086 273.286 255.455 270.189C255.104 276.808 254.852 289.016 261.267 299.203C264.731 304.707 270.185 309.57 278.658 312.58Z" fill="#343D33"/>
<path fill-rule="evenodd" clip-rule="evenodd" d="M293.858 250.06L292.578 249.304C288.286 246.604 281.676 243.528 274.246 241.015C270.274 239.672 266.073 238.507 261.889 237.608C250.239 235.117 238.801 234.743 232.421 238.023L230.398 239.027L232.621 241.053C244.445 251.64 255.686 257.294 265.273 259.408C278.734 262.367 288.979 258.391 293.139 251.245L293.858 250.06ZM290.117 250.938C285.263 248.516 278.178 246.123 270.573 244.094C265.955 242.857 261.134 241.721 256.489 240.983C249.23 239.826 242.389 239.492 237.556 240.867C247.412 249.49 256.836 254.341 265.048 256.359C276.559 259.19 285.672 256.493 290.117 250.938Z" fill="#343D33"/>
<path fill-rule="evenodd" clip-rule="evenodd" d="M142.512 270.098L142.966 268.796C144.084 266.177 145.097 263.466 145.904 260.691C146.738 257.811 147.395 254.89 147.745 251.979C148.283 247.547 148.164 243.158 147.461 239.168C145.772 229.568 140.48 222.062 130.467 219.562L128.133 218.956L128.453 221.082C128.922 223.947 127.51 227.311 126.322 231.286C124.786 236.41 123.507 242.402 125.747 249.309C127.621 255.095 131.934 261.564 140.798 268.683L142.512 270.098ZM140.24 265.691C140.828 263.422 141.312 261.102 141.736 258.773C142.26 255.895 142.609 252.998 142.846 250.18C143.197 246.053 143.248 242.084 142.67 238.434C141.632 231.918 138.76 226.495 132.639 223.99C132.376 226.699 131.183 229.769 130 233.194C128.42 237.773 126.934 243.104 128.75 249.394C130.159 254.252 133.533 259.652 140.24 265.691Z" fill="#343D33"/>
<path fill-rule="evenodd" clip-rule="evenodd" d="M174.776 220.852L173.15 220.138C169.038 218.164 164.051 213.387 158.31 208.578C155.794 206.466 153.143 204.347 150.405 202.416C147.541 200.398 144.571 198.609 141.575 197.173C133.756 193.433 125.672 192.151 118.071 196.808L116.291 197.866L118.352 199.749C131.483 211.473 142.802 219.817 151.826 224.114C162.484 229.194 170.091 228.866 173.955 222.195L174.776 220.852ZM170.857 221.958C166.664 219.795 161.528 215.73 155.955 211.449C153.48 209.543 150.918 207.601 148.302 205.788C145.75 204.016 143.159 202.352 140.517 201.038C134.75 198.178 128.797 196.952 122.994 199.406C134.447 209.907 144.406 217.503 152.528 221.606C160.851 225.811 167.132 226.205 170.857 221.958Z" fill="#343D33"/>
<path fill-rule="evenodd" clip-rule="evenodd" d="M223.911 284.219L224.498 283.392C225.446 282.239 228.474 277.493 229.898 271.086C230.553 268.113 230.783 264.763 230.462 261.357C229.894 255.313 227.435 249.041 221.889 243.778L220.719 242.64L219.443 242.933C212.32 244.743 207.181 251.499 207.902 260.25C208.474 267.173 212.637 275.337 222.456 283.046L223.911 284.219ZM220.342 247.228C214.874 248.992 211.039 254.293 211.31 261.073C211.538 266.804 214.685 273.56 222.122 280.253C222.985 278.243 224.352 274.03 225.113 269.044C225.535 266.295 225.827 263.333 225.581 260.284C225.224 255.859 223.87 251.28 220.342 247.228Z" fill="#343D33"/>
<path fill-rule="evenodd" clip-rule="evenodd" d="M434.004 208.704C429.279 206.351 425.398 207.05 422.57 209.676C421.096 211.04 420.003 213.03 419.274 215.421C418.599 217.641 418.288 220.248 418.367 223.071C418.527 229.005 420.414 235.89 423.859 242.255L424.982 244.386L427.066 244.065C435.123 242.606 439.958 237.017 441.811 230.585C443.095 226.09 442.955 221.238 441.554 217.239C440.159 213.257 437.566 210.093 434.004 208.704ZM427.053 239.232C432.873 237.741 436.527 233.514 438.247 228.736C439.899 224.146 439.84 219.047 438.027 215.219C437.069 213.198 435.644 211.547 433.665 210.675C430.783 209.716 428.7 210.353 427.122 211.838C425.708 213.171 424.846 215.271 424.309 217.813C423.892 219.815 423.723 222.09 423.793 224.529C423.922 229.092 424.908 234.246 427.053 239.232Z" fill="#343D33"/>
<path fill-rule="evenodd" clip-rule="evenodd" d="M393.305 171.428L392.5 171.293C384.986 169.771 378.855 171.272 374.42 174.721C371.513 176.982 369.386 180.126 368.011 183.679C364.34 193.166 366.21 205.727 373.388 214.349L374.774 216.046L376.286 215.304C383.722 211.485 390.052 205.814 393.609 198.775C397.343 191.368 398.048 182.477 393.828 172.687L393.305 171.428ZM392.116 174.148C386.164 173.572 381.606 175.396 378.19 178.414C375.791 180.526 373.957 183.245 372.734 186.33C369.734 193.894 370.252 203.587 375.14 210.967C381.653 207.616 387.209 202.785 390.548 196.795C394.107 190.414 395.163 182.736 392.116 174.148Z" fill="#343D33"/>
<path fill-rule="evenodd" clip-rule="evenodd" d="M353.295 194.785L352.567 195.178C348.33 197.071 345.666 199.453 344.358 202.183C343.136 204.738 343.1 207.602 343.873 210.489C345.558 216.817 351.485 223.531 359.181 229.111L361.026 230.485L361.98 229.14C365.998 223.092 366.814 217.807 365.913 213.199C364.503 205.941 358.863 200.315 354.436 195.95L353.295 194.785ZM354.085 198.361C351.316 200.336 349.725 202.554 348.895 204.82C348.189 206.754 348.129 208.754 348.663 210.827C349.878 215.56 353.919 220.534 359.296 224.986C362.354 220.437 363.19 216.378 362.656 212.706C361.818 206.913 357.68 202.182 354.085 198.361Z" fill="#343D33"/>
<path fill-rule="evenodd" clip-rule="evenodd" d="M310.553 154.038L309.747 153.718C302.2 150.481 295.019 150.433 289.007 152.639C285.222 154.02 281.944 156.34 279.297 159.185C272.001 167.011 269.691 178.999 274.732 188.389L275.703 190.234L277.505 189.956C288.2 188.133 298.855 183.057 305.196 175.348C309.685 169.879 312.028 163.11 310.735 155.275L310.553 154.038ZM308.507 156.141C302.304 154.118 296.724 154.763 291.944 156.806C288.696 158.197 285.816 160.246 283.439 162.752C277.524 169.013 274.634 178.022 277.567 185.834C287.182 184.13 296.619 179.768 302.52 173.155C306.642 168.534 309.042 162.822 308.507 156.141Z" fill="#343D33"/>
<path fill-rule="evenodd" clip-rule="evenodd" d="M305.675 214.395L304.955 213.654C300.207 208.401 295.181 204.478 289.936 201.907C286.093 200.026 282.132 198.89 278.155 198.439C270.123 197.525 261.953 199.513 253.907 204.059L251.489 205.369L254.59 207.346C264.501 213.504 276.579 221.174 287.344 222.26C293.914 222.924 300.062 221.238 304.927 215.264L305.675 214.395ZM302.074 214.456C297.802 210.473 293.434 207.641 289.018 205.709C285.753 204.279 282.468 203.38 279.128 202.994C272.636 202.246 265.973 203.39 259.311 206.406C267.852 212 277.673 218.166 286.732 219.36C292.334 220.108 297.602 218.899 302.074 214.456Z" fill="#343D33"/>
<path fill-rule="evenodd" clip-rule="evenodd" d="M257.082 160.653L256.356 161.055C251.848 163.13 249.04 166.336 247.757 170.18C246.807 173.027 246.74 176.239 247.305 179.498C248.769 187.911 254.675 196.785 262.354 202.379L264.212 203.764L265.173 202.409C269.382 196.131 270.208 189.403 269.2 183.148C267.738 174.072 262.451 166.016 258.229 161.823L257.082 160.653ZM257.831 164.26C254.819 166.432 253.179 169.326 252.397 172.49C251.791 174.93 251.737 177.543 252.187 180.237C253.255 186.619 257.064 193.363 262.474 198.181C265.736 193.119 266.529 187.694 265.919 182.569C265.032 175.166 261.294 168.401 257.831 164.26Z" fill="#343D33"/>
<path fill-rule="evenodd" clip-rule="evenodd" d="M225.827 115.721L224.207 115.082C216.558 111.831 208.271 112.114 201.187 114.971C197.013 116.651 193.298 119.268 190.334 122.39C181.588 131.612 179.635 145.438 191.109 156.153L191.828 156.832L192.714 156.945C200.867 157.897 206.376 155.884 210.329 152.083C218.441 144.284 219.752 128.665 225.134 117.135L225.827 115.721ZM222.164 117.261C215.97 115.519 209.743 116.599 204.232 119.13C200.552 120.814 197.174 123.156 194.453 125.973C187.194 133.484 184.205 144.259 192.892 153.28C201.859 154.263 207.067 150.862 210.678 145.533C215.859 137.884 217.881 126.422 222.164 117.261Z" fill="#343D33"/>
<path fill-rule="evenodd" clip-rule="evenodd" d="M147.073 109.074L146.563 109.343C142.011 111.457 139.78 114.919 139.201 119.024C138.936 120.903 139.034 122.93 139.472 125.033C141.521 134.834 150.424 146.13 159.098 152.479L160.311 153.383L161.381 152.944C167.551 150.28 168.769 143.98 166.796 136.647C164.205 127.002 156.14 115.661 148.218 109.928L147.073 109.074ZM148.276 112.396C145.026 114.667 143.819 117.887 143.818 121.481C143.826 124.11 144.509 126.95 145.685 129.848C148.492 136.771 154.01 143.979 159.826 148.772C163.946 146.555 164.61 141.775 163.363 136.363C161.425 127.991 155.011 118.072 148.276 112.396Z" fill="#343D33"/>
</g>
<defs>
<clipPath id="clip0_428_791">
<rect width="471.673" height="276.356" fill="white" transform="matrix(0.867956 0.496641 -0.47889 0.877875 133.074 0)"/>
</clipPath>
</defs>
</svg>
