<svg width="342" height="369" viewBox="0 0 342 369" fill="none" xmlns="http://www.w3.org/2000/svg">
<g opacity="0.07" clip-path="url(#clip0_305_3842)">
<path fill-rule="evenodd" clip-rule="evenodd" d="M615.465 460.325C615.465 460.325 607.027 440.516 583.873 414.761C573.355 403.051 559.795 390.169 542.56 377.241C531.602 369.023 519.178 360.786 505.096 352.824C487.421 342.828 467.191 333.161 443.845 324.869C366.946 297.144 275.964 258.571 197.049 207.5C143.605 172.912 95.7227 132.607 61.364 86.2642C56.8836 80.217 53.6124 74.7743 50.7079 68.6905C48.0875 63.2298 45.7606 57.2561 43.0852 49.8346C42.6912 48.7993 43.2134 47.6355 44.2579 47.2415C45.2932 46.8567 46.4567 47.3792 46.8415 48.4237C49.6544 55.6161 52.0731 61.4065 54.7668 66.684C57.6988 72.4197 60.9519 77.5415 65.3865 83.213C100.387 128.072 148.654 166.544 202.134 199.446C281.397 248.199 372.187 284.592 448.885 310.42C473.311 318.776 494.642 328.36 513.03 338.824C527.809 347.226 540.728 356.122 551.97 365.11C569.663 379.284 583.269 393.596 593.567 406.588C616.427 435.431 623.189 457.531 623.189 457.531C623.958 459.656 622.859 462.011 620.724 462.79C618.598 463.559 616.235 462.451 615.465 460.325Z" fill="white"/>
<path fill-rule="evenodd" clip-rule="evenodd" d="M80.962 110.287C80.962 110.287 79.1022 109.389 76.0878 107.685C74.7043 106.897 73.0914 105.981 71.3506 104.854C67.3925 102.297 62.7383 98.9074 57.3325 96.1678C51.9725 93.4558 46.1269 91.1009 40.0614 90.1389C39.3651 90.0839 38.8522 89.4701 38.9072 88.7738C38.9622 88.0774 39.5759 87.5646 40.2723 87.6195C48.5092 87.7112 56.7737 90.0566 63.9845 93.0161C66.8523 94.198 69.5365 95.453 71.9462 96.7724C73.7878 97.7802 75.5108 98.7605 76.9585 99.805C78.4611 100.895 79.6795 101.995 80.6874 102.966C82.9688 105.147 84.0864 106.613 84.0864 106.613C85.1034 107.474 85.2228 108.995 84.3615 110.012C83.5002 111.029 81.979 111.148 80.962 110.287Z" fill="white"/>
<path fill-rule="evenodd" clip-rule="evenodd" d="M140.518 166.038C140.518 166.038 138.796 166.478 135.763 166.753C134.416 166.872 132.831 166.963 131.044 166.872C129.322 166.771 127.444 166.45 125.455 166.065C122.853 165.571 120.095 164.847 117.246 163.94C110.118 161.677 102.623 158.232 96.5575 152.973C95.9986 152.551 95.8793 151.763 96.3008 151.205C96.7131 150.646 97.5102 150.526 98.0691 150.938C103.081 154.109 108.78 156.005 114.351 157.306C119.995 158.616 125.492 158.919 129.972 159.414C131.942 159.634 133.683 159.936 135.176 160.192C138.447 160.751 140.372 161.219 140.372 161.219C141.7 161.173 142.809 162.218 142.855 163.546C142.9 164.875 141.847 165.992 140.518 166.038Z" fill="white"/>
<path fill-rule="evenodd" clip-rule="evenodd" d="M104.719 132.112C104.719 132.112 104.068 130.719 103.317 128.199C102.978 127.072 102.612 125.753 102.382 124.223C102.163 122.748 102.108 121.108 102.062 119.358C102.007 117.049 102.089 114.575 102.263 112.028C102.721 105.01 103.931 97.6157 106.588 92.0175C106.835 91.3669 107.559 91.0372 108.219 91.2754C108.87 91.5228 109.199 92.2556 108.961 92.9061C108.027 96.2961 107.77 100.209 107.797 104.258C107.825 108.757 108.356 113.311 108.869 117.425C109.117 119.45 109.446 121.337 109.593 123.051C109.685 124.242 109.685 125.323 109.676 126.303C109.648 129.391 109.465 131.233 109.465 131.233C109.703 132.543 108.842 133.797 107.532 134.045C106.222 134.283 104.957 133.413 104.719 132.112Z" fill="white"/>
<path fill-rule="evenodd" clip-rule="evenodd" d="M246.601 236.481C246.601 236.481 241.452 236.957 233.115 237.69C229.23 238.029 224.676 238.441 219.618 238.817C207.936 239.696 193.643 240.649 179.267 243.059C164.003 245.624 148.638 249.464 136.187 255.529C135.573 255.85 134.812 255.612 134.482 254.998C134.161 254.384 134.4 253.614 135.014 253.293C150.361 244.617 170.517 239.046 189.502 235.537C196.584 234.236 203.493 233.191 209.934 232.449C214.835 231.89 219.444 231.423 223.65 231.221C227.974 231.01 231.85 231.029 235.13 231.084C242.322 231.212 246.638 231.661 246.638 231.661C247.976 231.67 249.048 232.76 249.03 234.089C249.02 235.417 247.93 236.49 246.601 236.481Z" fill="white"/>
<path fill-rule="evenodd" clip-rule="evenodd" d="M177.159 270.875C175.794 264.993 177.287 258.066 179.624 251.79C180.613 249.142 181.75 246.659 182.931 244.442C183.5 243.379 184.04 242.362 184.663 241.482C185.313 240.575 185.991 239.806 186.642 239.146C188.694 237.039 190.142 236.031 190.142 236.031C190.976 235.005 192.479 234.849 193.505 235.683C194.531 236.517 194.687 238.019 193.853 239.045C193.853 239.045 193.377 240.356 192.332 242.5C191.856 243.462 191.333 244.598 190.6 245.798C189.519 247.557 188.053 249.408 186.715 251.506C184.929 254.328 183.124 257.352 181.814 260.54C180.43 263.903 179.468 267.284 179.587 270.555C179.67 271.224 179.203 271.837 178.534 271.929C177.865 272.02 177.251 271.544 177.159 270.875Z" fill="white"/>
<path fill-rule="evenodd" clip-rule="evenodd" d="M239.831 321.863C254.06 308.331 274.583 298.994 294.466 292.709C303.234 289.942 311.856 287.752 319.754 286.103C323.62 285.296 327.312 284.582 330.767 284.087C334.358 283.565 337.694 283.235 340.662 283.006C349.879 282.291 355.633 282.466 355.633 282.466C356.953 282.392 358.08 283.4 358.153 284.71C358.235 286.03 357.228 287.157 355.908 287.239C355.908 287.239 349.146 288.219 338.619 290.134C336.805 290.464 334.881 290.803 332.856 291.151C331.014 291.454 329.09 291.756 327.093 292.077C314.558 294.074 299.358 296.988 284.424 301.771C268.637 306.828 253.144 313.782 241.471 323.678C240.967 324.136 240.197 324.09 239.739 323.586C239.29 323.082 239.336 322.312 239.831 321.863Z" fill="white"/>
<path fill-rule="evenodd" clip-rule="evenodd" d="M300.214 329.652C298.894 323.458 301.698 314.571 305.51 306.361C306.948 303.237 308.524 300.241 310.109 297.556C310.861 296.274 311.585 295.037 312.372 293.965C313.188 292.856 314.021 291.903 314.791 291.069C317.228 288.467 318.942 287.112 318.942 287.112C319.766 286.076 321.269 285.902 322.304 286.717C323.33 287.542 323.505 289.045 322.689 290.08C322.689 290.08 321.965 291.729 320.536 294.368C319.886 295.578 319.134 296.988 318.154 298.482C316.706 300.708 314.819 303.072 313.041 305.692C310.604 309.275 308.121 313.114 306.215 316.944C303.998 321.406 302.431 325.703 302.632 329.331C302.724 330 302.257 330.614 301.588 330.706C300.92 330.798 300.305 330.321 300.214 329.652Z" fill="white"/>
<path fill-rule="evenodd" clip-rule="evenodd" d="M181.501 103.718C177.13 113.732 176.572 126.908 177.579 140.139C178.468 151.885 180.758 163.622 182.866 173.251C183.196 174.772 183.516 176.229 183.791 177.64C184.103 179.179 184.369 180.654 184.616 182.047C186.018 190.128 186.98 195.314 186.98 195.314C187.365 196.569 186.659 197.907 185.395 198.292C184.139 198.677 182.802 197.971 182.417 196.707C182.417 196.707 180.273 191.704 177.863 183.641C177.451 182.249 177.048 180.764 176.672 179.198C176.333 177.759 176.021 176.256 175.737 174.699C173.877 164.721 172.394 152.489 172.284 140.367C172.164 126.477 173.951 112.762 179.292 102.656C179.586 102.051 180.319 101.794 180.933 102.087C181.537 102.381 181.794 103.113 181.501 103.718Z" fill="white"/>
<path fill-rule="evenodd" clip-rule="evenodd" d="M291.774 172.094C288.695 184.94 290.94 199.032 295.265 212.372C299.315 224.842 305.334 236.561 310.685 246.007C311.528 247.501 312.343 248.93 313.113 250.323C313.956 251.834 314.744 253.291 315.486 254.675C319.756 262.627 322.733 267.658 322.733 267.658C323.521 268.711 323.292 270.214 322.239 270.993C321.176 271.781 319.682 271.561 318.894 270.498C318.894 270.498 314.826 265.99 309.558 258.266C308.651 256.938 307.725 255.499 306.8 253.96C305.957 252.558 305.133 251.065 304.308 249.507C299.031 239.566 293.597 227.004 290.189 213.856C286.496 199.609 285.278 184.675 289.41 171.444C289.593 170.794 290.262 170.409 290.912 170.592C291.563 170.766 291.948 171.444 291.774 172.094Z" fill="white"/>
<path fill-rule="evenodd" clip-rule="evenodd" d="M38.9015 0.623362C47.0926 0.0644596 53.4241 3.15168 58.0694 8.37421C61.038 11.7001 63.2184 15.9883 64.7119 20.7985C66.1595 25.4713 66.8928 30.6757 66.9661 36.0357C67.1219 47.9467 63.997 60.6272 58.7561 70.3301L57.5835 72.5659L55.1279 71.9429C42.2823 68.4154 32.699 53.8927 28.4568 38.6282C25.3325 27.3677 25.0388 15.86 27.9983 8.67675C30.0873 3.60082 33.6881 0.513414 38.9015 0.623362ZM54.2208 64.961C44.2705 61.1495 37.0141 49.3211 33.1476 37.2268C29.9041 27.0933 29.0339 16.6571 31.4436 10.0144C32.7905 6.322 35.1632 3.86656 38.9015 3.7841C44.4172 4.17808 48.5586 6.45017 51.7379 9.80359C54.8622 13.102 56.86 17.5736 58.1427 22.6495C59.1963 26.8275 59.7003 31.3996 59.7644 36.1274C59.8744 45.9769 58.0049 56.4492 54.2208 64.961Z" fill="white"/>
<path fill-rule="evenodd" clip-rule="evenodd" d="M1.42395 75.7356C3.14647 69.1845 8.15794 65.7942 14.6082 64.8414C18.0807 64.3283 22.0024 64.6766 26.0522 65.6936C29.8912 66.6557 33.8491 68.2862 37.6332 70.4576C46.0442 75.2862 53.5758 82.772 57.7171 91.183L59.2656 94.2252L56.1412 95.5808C46.7682 99.4015 27.8204 101.454 14.7458 97.8076C7.99315 95.9293 2.78903 92.5576 0.855778 87.4541C-0.353649 84.284 -0.381027 80.4084 1.42395 75.7356ZM50.1581 91.0455C41.0782 94.124 26.492 95.8009 15.8637 93.4004C7.15947 91.4213 1.20417 86.5743 4.40182 76.7981C6.10601 73.0874 9.18444 71.356 12.8769 70.7971C16.2486 70.284 20.1152 70.9345 24.1833 72.2539C27.4359 73.2984 30.7709 74.819 34.0418 76.7064C40.263 80.2889 46.2 85.2091 50.1581 91.0455Z" fill="white"/>
<path fill-rule="evenodd" clip-rule="evenodd" d="M42.3988 132.065L44.2219 131.644C50.8737 129.821 58.552 128.51 66.3766 128.629C71.4342 128.712 76.5286 129.417 81.403 130.801C93.369 134.218 103.997 141.777 109.953 155.2L111.162 157.839L108.496 158.993C99.1227 162.887 83.6937 166.112 69.7303 161.696C58.8455 158.251 48.7573 150.261 43.2141 134.282L42.3988 132.065ZM47.136 135.501C54.2276 134.401 62.2809 134.264 70.2247 135.291C75.6213 135.987 80.9908 137.196 85.9568 139.404C92.9201 142.501 99.1136 147.403 103.411 154.953C94.9081 158.233 82.5207 160.625 71.0037 157.409C61.5573 154.761 52.7525 148.301 47.136 135.501Z" fill="white"/>
<path fill-rule="evenodd" clip-rule="evenodd" d="M84.8253 255.767L86.0439 254.723C91.3672 249.729 97.7533 245.523 104.799 242.582C109.408 240.649 114.3 239.284 119.257 238.515C131.91 236.545 145.013 238.459 155.971 244.772L158.756 246.33L156.924 248.932C152.013 255.666 138.837 268.365 123.142 271.664C111.442 274.119 98.3123 271.554 86.2547 257.389L84.8253 255.767ZM90.1855 256.949C95.1698 253.302 100.942 250.48 107.016 248.355C111.304 246.852 115.748 245.735 120.256 245.047C130.445 243.499 140.953 244.213 150.189 248.327C144.884 254.842 134.476 264.252 122.143 267.266C112.175 269.703 100.988 267.861 90.1855 256.949Z" fill="white"/>
<path fill-rule="evenodd" clip-rule="evenodd" d="M150.514 305.133V303.438C150.386 300.946 150.707 291.564 153.767 281.558C155.178 276.922 157.276 272.203 159.951 267.961C164.697 260.43 171.45 254.493 180.53 252.972L182.454 252.615L183.499 254.282C189.216 263.82 189.545 278.012 182.774 289.007C177.414 297.711 167.685 304.501 152.741 305.014L150.514 305.133ZM179.65 259.138C183.773 266.962 183.847 277.893 178.872 286.708C174.684 294.157 166.924 300.075 155.013 301.614C155.563 298.05 157.148 291.05 159.86 283.601C161.353 279.506 163.121 275.236 165.476 271.397C168.884 265.826 173.383 261.044 179.65 259.138Z" fill="white"/>
<path fill-rule="evenodd" clip-rule="evenodd" d="M194.335 347.507L195.673 345.904C200.602 339.463 206.228 331.858 212.751 325.243C217.149 320.781 221.978 316.813 226.934 313.689C236.674 307.55 247.137 304.857 257.573 308.732L260.56 309.795L259.195 312.663C255.017 321.028 245.048 341.992 228.73 350.183C219.888 354.617 209.205 355.488 196.589 348.68L194.335 347.507ZM200.474 346.994C205.458 341.524 211.221 335.496 217.25 329.87C221.501 325.903 225.863 322.109 230.426 319.159C237.499 314.578 244.948 311.829 252.607 313.304C248.356 322.54 240.129 339.179 226.779 346.435C219.568 350.357 210.855 351.429 200.474 346.994Z" fill="white"/>
<path fill-rule="evenodd" clip-rule="evenodd" d="M229.128 248.023L230.905 248.288C236.979 248.957 245.583 251.441 254.599 255.5C259.418 257.671 264.338 260.31 269.057 263.287C282.186 271.598 293.639 282.538 297.607 293.322L298.89 296.693L295.307 297.188C276.387 299.57 261.461 295.915 250.613 289.162C235.385 279.67 228.12 264.085 229.008 250.332L229.128 248.023ZM232.179 252.943C238.611 254.547 247.205 258.422 256.056 263.306C261.434 266.265 266.941 269.563 271.998 273.219C279.905 278.927 286.832 285.323 290.607 292.002C274.976 293.716 262.387 290.802 252.949 285.295C239.719 277.58 232.673 264.845 232.179 252.943Z" fill="white"/>
<path fill-rule="evenodd" clip-rule="evenodd" d="M273.844 363.442V361.747C273.715 359.255 274.046 349.873 277.097 339.868C278.517 335.231 280.615 330.513 283.29 326.271C288.036 318.739 294.789 312.792 303.859 311.281L305.793 310.924L306.837 312.591C312.545 322.129 312.885 336.313 306.114 347.316C300.754 356.021 291.023 362.801 276.079 363.323L273.844 363.442ZM302.98 317.447C307.103 325.272 307.176 336.202 302.21 345.016C298.014 352.465 290.254 358.375 278.343 359.915C278.892 356.36 280.477 349.35 283.189 341.91C284.683 337.806 286.451 333.546 288.806 329.707C292.223 324.136 296.722 319.353 302.98 317.447Z" fill="white"/>
<path fill-rule="evenodd" clip-rule="evenodd" d="M120.717 53.5907C126.965 55.1575 130.273 59.9677 131.217 66.308C131.712 69.6064 131.4 73.3633 130.457 77.294C129.577 80.9406 128.075 84.7428 126.04 88.4443C121.771 96.2323 115.155 103.571 107.376 108.656L104.802 110.388L102.988 107.878C96.125 97.8818 95.2731 85.5674 97.921 75.104C99.781 67.8017 103.281 61.4433 107.422 57.4851C111.545 53.5453 116.273 51.8957 120.717 53.5907ZM106.35 101.418C101.696 93.612 101.055 84.3029 102.686 76.185C104.252 68.3879 107.844 61.6172 112.269 58.3005C114.605 56.5505 117.144 55.7623 119.682 56.5686C123.163 58.1628 124.757 61.0947 125.27 64.6589C125.729 67.8565 125.115 71.5305 123.878 75.4703C122.898 78.5672 121.487 81.7834 119.727 84.9811C116.438 90.9641 111.903 96.883 106.35 101.418Z" fill="white"/>
<path fill-rule="evenodd" clip-rule="evenodd" d="M186.529 44.1154L187.408 44.739C195.801 50.1997 200.749 58.3264 202.691 67.3696C203.965 73.2977 203.864 79.629 202.746 85.7586C199.759 102.123 189.232 117.075 176.249 121.455L173.72 122.344L172.758 119.842C168.14 107.308 165.886 93.3997 167.288 80.4258C168.772 66.7831 174.242 54.1758 185.145 45.2792L186.529 44.1154ZM185.805 48.9443C192.017 54.1119 195.206 61.1029 196.452 68.5518C197.331 73.7744 197.24 79.2441 196.296 84.5949C193.987 97.7153 186.767 110.176 176.881 115.179C172.84 104.193 170.761 92.1812 171.649 80.829C172.593 68.7348 176.881 57.4011 185.805 48.9443Z" fill="white"/>
<path fill-rule="evenodd" clip-rule="evenodd" d="M209.408 115.17L209.847 116.425C212.679 123.196 213.632 129.051 213.018 134.016C212.44 138.662 210.489 142.538 207.731 145.634C201.693 152.433 191.239 155.511 179.841 155.301H177.083V152.543C177.349 140.421 180.216 132.523 184.294 127.245C190.707 118.926 200.126 117.021 207.484 115.591L209.408 115.17ZM206.155 119.174C207.493 124.589 207.511 129.151 206.75 133.018C206.1 136.316 204.771 139.056 202.811 141.301C198.34 146.432 190.937 149.061 182.59 149.657C182.755 140.504 184.752 134.227 187.821 129.839C192.659 122.912 199.989 120.704 206.155 119.174Z" fill="white"/>
<path fill-rule="evenodd" clip-rule="evenodd" d="M279.672 103.03L280.679 103.405C290.291 106.602 297.336 113.703 301.679 122.655C304.419 128.281 306.014 134.657 306.627 141.108C308.332 158.864 302.284 177.217 290.859 184.757L288.633 186.26L287.066 184.089C277.885 170.977 270.995 153.55 270.143 136.902C269.547 125.101 271.948 113.703 278.637 104.504L279.672 103.03ZM280.212 107.885C287.671 111.367 292.673 117.799 295.926 125.303C298.134 130.406 299.527 136.023 300.113 141.749C301.551 156.033 298.134 170.977 289.86 178.509C281.651 166.634 275.457 151.379 274.275 136.637C273.451 126.338 275.063 116.296 280.212 107.885Z" fill="white"/>
<path fill-rule="evenodd" clip-rule="evenodd" d="M242.421 188.587L243.639 188.313C251.931 186.013 259.573 185.775 266.491 187.571C271.557 188.89 276.221 191.327 280.426 194.698C288.92 201.506 295.535 212.345 300.254 226.492L301.71 230.67L297.303 230.221C283.331 228.572 266.188 226.785 254.9 217.476C248.01 211.796 243.163 203.385 242.55 190.503L242.421 188.587ZM245.903 192.271C252.848 191.199 259.087 191.767 264.75 193.59C268.937 194.937 272.776 197.017 276.313 199.839C283.184 205.327 288.911 213.527 293.336 224.238C281.095 223.202 267.205 221.654 257.512 214.196C251.51 209.597 247.195 202.707 245.903 192.271Z" fill="white"/>
<path fill-rule="evenodd" clip-rule="evenodd" d="M327.343 165.077L327.775 166.342C330.743 173.626 331.265 180.726 329.854 187.158C328.81 191.923 326.647 196.294 323.834 200.096C316.569 209.909 304.64 215.901 293.251 215.727H290.474V212.95C290.713 200.334 294.57 190.494 299.893 183.118C307.617 172.416 318.374 166.901 325.41 165.499L327.343 165.077ZM324.109 169.164C325.548 175.082 325.145 180.598 323.715 185.619C322.616 189.495 320.857 193.05 318.548 196.211C313.078 203.697 304.676 208.928 296.045 209.982C296.366 199.94 299.353 191.877 303.503 185.619C309.505 176.585 317.852 171.253 324.109 169.164Z" fill="white"/>
</g>
<defs>
<clipPath id="clip0_305_3842">
<rect width="342" height="368.442" fill="white" transform="matrix(-1 0 0 1 342 0.558411)"/>
</clipPath>
</defs>
</svg>
