<svg width="224" height="49" viewBox="0 0 224 49" fill="none" xmlns="http://www.w3.org/2000/svg">
<path fill-rule="evenodd" clip-rule="evenodd" d="M24.4871 48.9768C37.7419 48.9768 48.4871 38.2316 48.4871 24.9768C48.4871 11.722 37.7419 0.976807 24.4871 0.976807C11.2322 0.976807 0.487061 11.722 0.487061 24.9768C0.487061 31.838 3.36624 38.0268 7.98232 42.4008C8.5769 42.028 9.16733 41.651 9.75321 41.2698C9.81186 40.9407 9.88219 40.5421 9.96084 40.0887C10.002 39.8572 10.0462 39.612 10.0979 39.3562C10.138 39.1503 10.184 38.9386 10.2318 38.7189L10.2517 38.6269C10.4495 37.7232 10.657 36.7078 10.8267 35.6435H10.7542C8.85991 35.6785 7.12245 35.1669 6.11896 34.037C5.66061 33.5223 5.33623 32.8782 5.24029 32.1062C5.13827 31.2808 5.29665 30.3078 5.76718 29.1825L5.84023 28.9739L6.16004 29.044C7.3828 29.2815 8.94819 29.5982 10.0141 30.9808C10.5052 31.6165 10.8907 32.4809 11.0825 33.6755C11.1004 33.4918 11.1164 33.3078 11.1303 33.1237C11.2128 32.0406 11.2322 30.9597 11.1437 29.9428C9.08215 29.13 7.42833 26.7179 6.94797 24.0862C6.76219 23.0675 6.74541 22.0153 6.95707 21.03C7.2799 19.5271 8.10222 18.1765 9.49706 17.2689L9.64325 17.1653L9.87319 17.3587C11.6853 18.8373 12.5943 20.9326 12.841 23.1999C13.074 25.3561 12.6994 27.6677 11.9319 29.7508L11.812 30.0625C11.9622 31.0529 12.0195 32.1043 12.0105 33.1617C11.9922 35.1763 11.7456 37.2092 11.4365 38.8674C11.3893 39.1263 11.3374 39.3761 11.2811 39.6152C11.2186 39.8755 11.1517 40.1222 11.0832 40.3537L11.069 40.4011C15.1497 37.6676 18.9886 34.7205 22.4424 31.5454C22.4331 31.4167 22.4185 31.1666 22.4155 30.8243C22.4139 30.6614 22.414 30.4817 22.4292 30.2838C22.444 30.1104 22.4701 29.9263 22.4976 29.7329C22.5152 29.6086 22.5334 29.4804 22.5495 29.3488C22.6093 28.8688 22.6707 28.3527 22.7036 27.8291C21.4515 26.9869 20.388 25.7951 19.6957 24.5323C19.3577 23.9171 19.1079 23.2852 18.9618 22.6791C18.8049 22.0259 18.7531 21.4015 18.8354 20.8533C18.9922 19.7996 19.542 19.0001 20.5805 18.7397C21.319 18.458 22.1048 18.7322 22.79 19.387C23.4783 20.0448 24.0599 21.1016 24.3691 22.3152C24.8024 24.0275 24.6718 26.0381 23.5788 27.6854C23.6083 27.9414 23.6308 28.1981 23.6474 28.4519C23.6763 28.8752 23.69 29.2863 23.6808 29.6701C23.6738 29.9398 23.6654 30.1939 23.6351 30.4249C25.8747 28.2742 27.9359 26.0216 29.7764 23.6627C30.2718 23.0291 30.6785 22.4368 31.0399 21.827L30.8798 21.5218C30.0088 19.9092 29.4894 17.8018 29.5153 15.8222C29.5275 14.9314 29.6494 14.0665 29.89 13.2899C30.1382 12.4904 30.5006 11.7777 30.9939 11.225C31.766 10.357 32.8182 9.84393 34.1796 9.93682C35.046 9.91855 35.6445 10.4317 35.9916 11.2753C36.4835 12.4691 36.4347 14.3816 35.9154 16.2531C35.2744 18.5596 33.8996 20.7643 32.0507 21.5862C31.6085 22.4648 31.1059 23.2777 30.4449 24.1697C30.0958 24.6407 29.7382 25.1078 29.3726 25.5713C29.5777 25.4758 29.7907 25.3828 30.0101 25.2923C30.3592 25.1491 30.7231 25.0145 31.0974 24.8953C31.7946 23.535 33.0218 22.3278 34.3889 21.5429C35.0178 21.1821 35.6756 20.9111 36.3136 20.7512C36.9867 20.5822 37.6385 20.5243 38.2156 20.6095C39.2876 20.7679 40.1205 21.3314 40.4068 22.4201C40.7067 23.1967 40.7022 23.8408 40.5012 24.3677C40.1799 25.2159 39.315 25.7762 38.1927 26.0884C36.0198 26.6945 32.8707 26.3533 31.313 25.7183L31.3126 25.7182C31.2465 25.7505 31.1809 25.7831 31.1157 25.8161C30.4349 26.1612 29.8258 26.5683 29.2844 26.9301C29.1114 27.0458 28.9453 27.1568 28.7859 27.2597C28.5011 27.4441 28.2369 27.5946 28.0093 27.7242L28.0093 27.7242L28.0092 27.7242L27.9986 27.7303C27.6033 27.9537 27.3275 28.0938 27.2287 28.1429C24.6853 31.0368 21.8297 33.7765 18.7425 36.3654C18.8389 36.3517 18.9392 36.3387 19.0433 36.3271C19.2113 36.3085 19.388 36.2916 19.5715 36.274C20.2015 36.2136 20.9132 36.1454 21.6395 35.9768C21.8546 35.9266 22.0708 35.871 22.2864 35.8087L22.3697 35.627C23.3595 33.3961 25.1258 32.1398 27.1146 31.5719C27.9247 31.3419 28.7713 31.2247 29.6119 31.211C30.9123 31.1912 32.1884 31.409 33.2939 31.712L33.5969 31.782L33.4614 32.1505C32.5401 34.8062 30.8635 36.134 29.0545 36.7066C26.8747 37.396 24.48 36.9649 22.9063 36.3737C22.3324 36.6641 21.7381 36.8952 21.1584 37.0793C20.6848 37.23 20.2265 37.3503 19.794 37.4325C19.4636 37.4965 19.1514 37.5498 18.8652 37.5665C18.5682 37.5818 18.3048 37.5665 18.0809 37.5467C17.7742 37.5189 17.5481 37.481 17.4181 37.4555C14.8105 39.5627 12.0521 41.5669 9.18882 43.4699C13.3421 46.9095 18.6731 48.9768 24.4871 48.9768ZM11.4472 28.3955C11.9853 26.7321 12.2483 24.9556 12.1161 23.2669C11.9593 21.2569 11.2467 19.3733 9.76352 17.9678C8.7311 18.8267 8.2012 19.9885 7.99411 21.2265C7.84793 22.0945 7.8631 23.0035 8.01995 23.8928C8.38406 25.9619 9.48309 27.9323 10.9982 28.8387C10.8832 28.2058 10.7142 27.6106 10.4786 27.0707C10.4299 26.9702 10.4725 26.8484 10.573 26.7997C10.6751 26.751 10.7969 26.7936 10.8456 26.8941C11.0885 27.3536 11.2871 27.858 11.4472 28.3955ZM22.9287 25.1262C23.0672 25.418 23.182 25.7392 23.2768 26.0786C23.7654 24.9235 23.8069 23.6381 23.5772 22.4948C23.3168 21.199 22.72 20.0737 21.9845 19.5225C21.5962 19.2317 21.1743 19.1007 20.7525 19.2347C20.1739 19.4996 19.909 19.9869 19.8237 20.5792C19.7475 21.1107 19.8495 21.7213 20.0551 22.3761C20.218 22.8908 20.4525 23.4253 20.7449 23.9567C21.2402 24.8576 21.9056 25.7498 22.7126 26.4702C22.689 26.0463 22.6356 25.6416 22.5342 25.2739C22.4946 25.1658 22.5494 25.044 22.6576 25.0029C22.7672 24.9633 22.8876 25.0181 22.9287 25.1262ZM24.5967 35.2566C24.389 35.4367 24.1712 35.604 23.9459 35.7594C25.3214 36.2072 27.1394 36.4697 28.8429 35.994C30.4128 35.5539 31.8762 34.4803 32.8096 32.353C31.631 32.1703 30.2926 32.1475 28.9723 32.3181C28.0755 32.4338 27.1831 32.6348 26.3577 33.0018C25.2862 33.4783 24.3243 34.2121 23.6207 35.3143C23.8693 35.1973 24.1119 35.0662 24.3455 34.9185C24.4384 34.8499 24.5709 34.8698 24.6394 34.9627C24.7094 35.0556 24.6896 35.1865 24.5967 35.2566ZM32.7843 25.1102C34.2931 25.525 36.4166 25.7151 38.0069 25.3559C39.4535 25.027 40.4433 24.2215 39.9119 22.5967C39.6286 21.98 39.117 21.6923 38.5033 21.5994C37.943 21.5141 37.3004 21.6222 36.6243 21.8415C36.0837 22.0151 35.5294 22.2678 34.9858 22.5815C34.1154 23.0827 33.2786 23.7414 32.6431 24.5159C33.0757 24.4434 33.5136 24.4003 33.951 24.3954C34.0668 24.3863 34.1688 24.4715 34.1779 24.5873C34.187 24.703 34.1018 24.805 33.9861 24.8141C33.5785 24.8788 33.177 24.9813 32.7843 25.1102ZM33.4828 18.1153C33.2449 18.7753 33.0236 19.3663 32.8025 19.9123C33.8622 18.997 34.6561 17.5209 35.1358 16.0202C35.6749 14.336 35.8195 12.6016 35.419 11.4976C35.1952 10.8839 34.8008 10.4758 34.1796 10.4621C33.2629 10.5276 32.5746 10.9052 32.0462 11.4625C31.5269 12.0107 31.1949 12.7539 30.9818 13.5975C30.8066 14.2919 30.7229 15.0517 30.7122 15.8375C30.6939 17.4744 31.0047 19.2149 31.6335 20.6295C31.6546 20.6214 31.6756 20.6131 31.6965 20.6047C32.0838 19.8106 32.4456 18.9366 32.8585 17.8808C32.9225 17.7072 33.1158 17.6204 33.2879 17.6843C33.4615 17.7498 33.5483 17.9432 33.4828 18.1153ZM6.38087 29.6393C6.15855 30.5393 6.1555 31.2976 6.28188 31.9402C6.39 32.4884 6.61079 32.9437 6.93665 33.3168C7.67975 34.1696 8.91008 34.6066 10.2973 34.7055C10.2699 33.1843 9.93796 32.1412 9.42784 31.4118C8.62383 30.2606 7.40567 29.8936 6.38087 29.6393Z" fill="white"/>
<g clip-path="url(#clip0_1414_499)">
<path d="M64.7937 9.0176H66.8604L70.7448 19.379L74.6199 9.0176H76.6867L71.5567 22.4514H69.9144L64.7937 9.0176ZM63.8526 9.0176H65.8178L66.1592 17.9858V22.4514H63.8526V9.0176ZM75.6625 9.0176H77.637V22.4514H75.3211V17.9858L75.6625 9.0176ZM84.7488 9.0176V22.4514H82.4329V9.0176H84.7488ZM96.5846 18.9915C96.5846 18.7147 96.5415 18.4686 96.4554 18.2534C96.3755 18.0381 96.2309 17.8412 96.0218 17.6629C95.8126 17.4845 95.5174 17.3122 95.136 17.1462C94.7608 16.9739 94.281 16.7986 93.6967 16.6203C93.057 16.4234 92.4665 16.2051 91.9252 15.9652C91.3901 15.7191 90.9226 15.4362 90.5228 15.1163C90.1229 14.7903 89.8123 14.4182 89.5909 13.9999C89.3694 13.5755 89.2587 13.0865 89.2587 12.5329C89.2587 11.9855 89.3725 11.4872 89.6001 11.0382C89.8338 10.5892 90.1629 10.2017 90.5873 9.87567C91.0179 9.54352 91.5254 9.28825 92.1097 9.10987C92.6941 8.92534 93.3399 8.83307 94.0473 8.83307C95.0438 8.83307 95.9018 9.0176 96.6215 9.38667C97.3473 9.75573 97.904 10.2509 98.2915 10.8721C98.6852 11.4934 98.882 12.1792 98.882 12.9296H96.5846C96.5846 12.4868 96.4892 12.0962 96.2986 11.7579C96.114 11.4134 95.8311 11.1428 95.4497 10.9459C95.0745 10.7491 94.5978 10.6507 94.0196 10.6507C93.4722 10.6507 93.017 10.7337 92.6541 10.8998C92.2912 11.0659 92.0205 11.2904 91.8422 11.5734C91.6638 11.8563 91.5746 12.1761 91.5746 12.5329C91.5746 12.7851 91.633 13.0158 91.7499 13.2249C91.8668 13.4279 92.0451 13.6186 92.285 13.7969C92.5249 13.9692 92.8263 14.1322 93.1892 14.2859C93.5521 14.4397 93.9796 14.5873 94.4717 14.7288C95.216 14.9503 95.8649 15.1963 96.4185 15.4669C96.9721 15.7314 97.4334 16.0328 97.8025 16.3711C98.1715 16.7094 98.4483 17.0939 98.6329 17.5245C98.8174 17.9489 98.9097 18.4317 98.9097 18.973C98.9097 19.5389 98.7959 20.0494 98.5683 20.5046C98.3407 20.9536 98.0147 21.3381 97.5903 21.6579C97.172 21.9716 96.6676 22.2146 96.0771 22.3868C95.4928 22.5529 94.8408 22.6359 94.1211 22.6359C93.4752 22.6359 92.8386 22.5498 92.2112 22.3776C91.59 22.2054 91.0241 21.944 90.5135 21.5933C90.003 21.2366 89.597 20.7937 89.2956 20.2647C88.9942 19.7296 88.8435 19.1053 88.8435 18.3917H91.1594C91.1594 18.8285 91.2332 19.2006 91.3808 19.5082C91.5346 19.8157 91.7468 20.0679 92.0175 20.2647C92.2881 20.4554 92.6018 20.5969 92.9586 20.6892C93.3215 20.7814 93.709 20.8275 94.1211 20.8275C94.6624 20.8275 95.1145 20.7507 95.4774 20.5969C95.8465 20.4431 96.1233 20.2278 96.3078 19.951C96.4923 19.6742 96.5846 19.3544 96.5846 18.9915ZM108.374 9.0176V22.4514H106.077V9.0176H108.374ZM112.591 9.0176V10.8629H101.897V9.0176H112.591ZM132.719 15.5869V20.7168C132.529 20.969 132.23 21.2458 131.824 21.5472C131.425 21.8425 130.892 22.0977 130.228 22.313C129.564 22.5283 128.737 22.6359 127.746 22.6359C126.904 22.6359 126.132 22.4945 125.43 22.2115C124.729 21.9224 124.123 21.5011 123.613 20.9475C123.108 20.3939 122.718 19.7204 122.441 18.9269C122.164 18.1273 122.026 17.2169 122.026 16.1958V15.264C122.026 14.249 122.152 13.3448 122.404 12.5514C122.662 11.7517 123.031 11.0751 123.511 10.5215C123.991 9.96794 124.569 9.54967 125.246 9.26672C125.929 8.97762 126.701 8.83307 127.562 8.83307C128.663 8.83307 129.573 9.0176 130.293 9.38667C131.019 9.74958 131.578 10.254 131.972 10.8998C132.366 11.5457 132.615 12.2838 132.719 13.1142H130.45C130.376 12.6467 130.231 12.2284 130.016 11.8594C129.807 11.4903 129.505 11.2012 129.112 10.9921C128.724 10.7768 128.22 10.6692 127.599 10.6692C127.063 10.6692 126.593 10.7706 126.187 10.9736C125.781 11.1766 125.443 11.4749 125.172 11.8686C124.908 12.2623 124.708 12.742 124.572 13.3079C124.437 13.8738 124.369 14.5197 124.369 15.2455V16.1958C124.369 16.934 124.446 17.589 124.6 18.1611C124.76 18.7331 124.987 19.216 125.283 19.6096C125.584 20.0033 125.95 20.3016 126.381 20.5046C126.811 20.7015 127.297 20.7999 127.838 20.7999C128.367 20.7999 128.801 20.7568 129.139 20.6707C129.478 20.5784 129.745 20.4708 129.942 20.3478C130.145 20.2186 130.302 20.0956 130.413 19.9787V17.3122H127.617V15.5869H132.719ZM142.405 10.8075L138.392 22.4514H135.965L141.021 9.0176H142.571L142.405 10.8075ZM145.764 22.4514L141.741 10.8075L141.566 9.0176H143.125L148.2 22.4514H145.764ZM145.57 17.4691V19.3052H138.263V17.4691H145.57ZM151.593 9.0176H156.345C157.366 9.0176 158.236 9.17138 158.956 9.47893C159.676 9.78648 160.226 10.2417 160.607 10.8445C160.995 11.4411 161.189 12.1792 161.189 13.0588C161.189 13.7293 161.066 14.3198 160.82 14.8303C160.574 15.3408 160.226 15.7714 159.777 16.122C159.328 16.4665 158.793 16.734 158.172 16.9247L157.47 17.2661H153.199L153.18 15.43H156.382C156.935 15.43 157.397 15.3316 157.766 15.1348C158.135 14.938 158.411 14.6704 158.596 14.3321C158.787 13.9876 158.882 13.6001 158.882 13.1695C158.882 12.7021 158.79 12.2961 158.605 11.9516C158.427 11.601 158.15 11.3335 157.775 11.1489C157.4 10.9582 156.923 10.8629 156.345 10.8629H153.909V22.4514H151.593V9.0176ZM159.26 22.4514L156.105 16.4173L158.531 16.408L161.733 22.3315V22.4514H159.26ZM169.288 22.4514H166.418L166.437 20.6153H169.288C170.118 20.6153 170.813 20.4339 171.373 20.071C171.939 19.7081 172.363 19.1883 172.646 18.5117C172.935 17.8351 173.08 17.0293 173.08 16.0943V15.3654C173.08 14.6396 172.997 13.9968 172.831 13.4371C172.671 12.8774 172.431 12.4068 172.111 12.0254C171.797 11.6441 171.41 11.355 170.948 11.1582C170.493 10.9613 169.967 10.8629 169.371 10.8629H166.363V9.0176H169.371C170.263 9.0176 171.078 9.1683 171.816 9.4697C172.554 9.76495 173.191 10.1924 173.726 10.7522C174.267 11.3119 174.682 11.9824 174.971 12.7636C175.26 13.5447 175.405 14.4182 175.405 15.3839V16.0943C175.405 17.0601 175.26 17.9335 174.971 18.7147C174.682 19.4959 174.267 20.1663 173.726 20.7261C173.184 21.2796 172.539 21.7071 171.788 22.0085C171.044 22.3038 170.21 22.4514 169.288 22.4514ZM167.701 9.0176V22.4514H165.385V9.0176H167.701ZM188.412 20.6153V22.4514H181.28V20.6153H188.412ZM181.935 9.0176V22.4514H179.62V9.0176H181.935ZM187.481 14.6273V16.4357H181.28V14.6273H187.481ZM188.366 9.0176V10.8629H181.28V9.0176H188.366ZM202.85 9.0176V22.4514H200.534L194.509 12.8282V22.4514H192.193V9.0176H194.509L200.553 18.6593V9.0176H202.85ZM214.566 18.9915C214.566 18.7147 214.523 18.4686 214.437 18.2534C214.357 18.0381 214.212 17.8412 214.003 17.6629C213.794 17.4845 213.499 17.3122 213.117 17.1462C212.742 16.9739 212.262 16.7986 211.678 16.6203C211.038 16.4234 210.448 16.2051 209.907 15.9652C209.371 15.7191 208.904 15.4362 208.504 15.1163C208.104 14.7903 207.794 14.4182 207.572 13.9999C207.351 13.5755 207.24 13.0865 207.24 12.5329C207.24 11.9855 207.354 11.4872 207.581 11.0382C207.815 10.5892 208.144 10.2017 208.569 9.87567C208.999 9.54352 209.507 9.28825 210.091 9.10987C210.675 8.92534 211.321 8.83307 212.029 8.83307C213.025 8.83307 213.883 9.0176 214.603 9.38667C215.329 9.75573 215.885 10.2509 216.273 10.8721C216.666 11.4934 216.863 12.1792 216.863 12.9296H214.566C214.566 12.4868 214.471 12.0962 214.28 11.7579C214.095 11.4134 213.812 11.1428 213.431 10.9459C213.056 10.7491 212.579 10.6507 212.001 10.6507C211.454 10.6507 210.998 10.7337 210.635 10.8998C210.273 11.0659 210.002 11.2904 209.823 11.5734C209.645 11.8563 209.556 12.1761 209.556 12.5329C209.556 12.7851 209.614 13.0158 209.731 13.2249C209.848 13.4279 210.026 13.6186 210.266 13.7969C210.506 13.9692 210.808 14.1322 211.171 14.2859C211.533 14.4397 211.961 14.5873 212.453 14.7288C213.197 14.9503 213.846 15.1963 214.4 15.4669C214.953 15.7314 215.415 16.0328 215.784 16.3711C216.153 16.7094 216.43 17.0939 216.614 17.5245C216.799 17.9489 216.891 18.4317 216.891 18.973C216.891 19.5389 216.777 20.0494 216.55 20.5046C216.322 20.9536 215.996 21.3381 215.572 21.6579C215.153 21.9716 214.649 22.2146 214.058 22.3868C213.474 22.5529 212.822 22.6359 212.102 22.6359C211.457 22.6359 210.82 22.5498 210.193 22.3776C209.571 22.2054 209.005 21.944 208.495 21.5933C207.984 21.2366 207.578 20.7937 207.277 20.2647C206.976 19.7296 206.825 19.1053 206.825 18.3917H209.141C209.141 18.8285 209.215 19.2006 209.362 19.5082C209.516 19.8157 209.728 20.0679 209.999 20.2647C210.269 20.4554 210.583 20.5969 210.94 20.6892C211.303 20.7814 211.69 20.8275 212.102 20.8275C212.644 20.8275 213.096 20.7507 213.459 20.5969C213.828 20.4431 214.105 20.2278 214.289 19.951C214.474 19.6742 214.566 19.3544 214.566 18.9915Z" fill="white"/>
<path d="M64.7435 29.6565H65.7906L67.337 36.787L71.3505 29.6565H72.5059L67.5296 38.4177H66.6691L64.7435 29.6565ZM64.3645 29.6565H65.3332L64.563 35.036L63.9733 38.4177H62.8421L64.3645 29.6565ZM71.856 29.6565H72.8308L71.3084 38.4177H70.1832L70.7849 34.9397L71.856 29.6565ZM77.3767 36.8532L78.2312 31.907H79.3263L78.1951 38.4177H77.1541L77.3767 36.8532ZM77.7859 35.5415L78.2312 35.5234C78.179 35.9326 78.0868 36.3217 77.9544 36.6908C77.822 37.0558 77.6415 37.3807 77.4128 37.6656C77.1882 37.9464 76.9074 38.167 76.5704 38.3275C76.2375 38.4839 75.8423 38.5561 75.385 38.5441C75.028 38.5321 74.7291 38.4598 74.4884 38.3275C74.2518 38.1951 74.0652 38.0166 73.9288 37.7919C73.7924 37.5673 73.7022 37.3105 73.658 37.0217C73.6139 36.7329 73.6079 36.428 73.64 36.1071L74.344 31.907H75.4331L74.7291 36.1251C74.7131 36.3016 74.7111 36.4761 74.7231 36.6486C74.7351 36.8171 74.7712 36.9716 74.8314 37.112C74.8916 37.2524 74.9839 37.3667 75.1082 37.455C75.2366 37.5392 75.4051 37.5853 75.6137 37.5934C76.0469 37.6094 76.414 37.5292 76.7148 37.3527C77.0157 37.1721 77.2544 36.9234 77.4309 36.6065C77.6074 36.2896 77.7257 35.9346 77.7859 35.5415ZM83.9746 36.6547C84.0107 36.4059 83.9645 36.2114 83.8362 36.071C83.7118 35.9306 83.5474 35.8243 83.3428 35.7521C83.1422 35.6758 82.9456 35.6137 82.7531 35.5655C82.5124 35.5054 82.2697 35.4311 82.025 35.3429C81.7803 35.2546 81.5556 35.1423 81.351 35.0059C81.1505 34.8655 80.99 34.693 80.8697 34.4884C80.7533 34.2798 80.7012 34.0271 80.7132 33.7303C80.7293 33.4093 80.8135 33.1265 80.9659 32.8818C81.1224 32.6371 81.323 32.4325 81.5677 32.268C81.8164 32.1036 82.0872 31.9812 82.38 31.901C82.6728 31.8208 82.9637 31.7827 83.2525 31.7867C83.6617 31.7947 84.0327 31.8789 84.3657 32.0394C84.7027 32.1999 84.9694 32.4305 85.166 32.7314C85.3626 33.0322 85.4548 33.3973 85.4428 33.8265L84.3657 33.8205C84.3737 33.5919 84.3276 33.3953 84.2273 33.2308C84.127 33.0663 83.9886 32.94 83.8121 32.8517C83.6356 32.7595 83.435 32.7113 83.2104 32.7073C82.9978 32.7033 82.7892 32.7374 82.5846 32.8096C82.38 32.8778 82.2055 32.9861 82.0611 33.1345C81.9167 33.279 81.8284 33.4675 81.7963 33.7002C81.7722 33.8727 81.7983 34.0151 81.8745 34.1274C81.9508 34.2357 82.0551 34.324 82.1874 34.3922C82.3238 34.4563 82.4662 34.5105 82.6147 34.5546C82.7671 34.5947 82.9055 34.6308 83.0299 34.6629C83.3588 34.7552 83.6837 34.8715 84.0047 35.0119C84.3256 35.1523 84.5863 35.3469 84.7869 35.5956C84.9875 35.8403 85.0777 36.1632 85.0577 36.5644C85.0416 36.9054 84.9514 37.2022 84.7869 37.455C84.6265 37.7037 84.4179 37.9103 84.1611 38.0747C83.9084 38.2352 83.6296 38.3535 83.3247 38.4298C83.0198 38.506 82.715 38.5421 82.4101 38.5381C81.9889 38.53 81.5957 38.4438 81.2307 38.2793C80.8697 38.1108 80.5808 37.8702 80.3642 37.5573C80.1476 37.2403 80.0453 36.8552 80.0573 36.4019L81.1464 36.4079C81.1464 36.6687 81.2006 36.8893 81.3089 37.0699C81.4212 37.2464 81.5757 37.3807 81.7722 37.473C81.9688 37.5653 82.1935 37.6134 82.4462 37.6174C82.6588 37.6214 82.8754 37.5934 83.0961 37.5332C83.3207 37.473 83.5133 37.3727 83.6737 37.2323C83.8382 37.0879 83.9385 36.8953 83.9746 36.6547ZM89.0079 38.5381C88.5626 38.53 88.1755 38.4418 87.8466 38.2733C87.5217 38.1008 87.2549 37.8702 87.0463 37.5813C86.8417 37.2885 86.6953 36.9555 86.607 36.5824C86.5188 36.2094 86.4927 35.8183 86.5288 35.4091L86.5529 35.1503C86.593 34.7331 86.6953 34.324 86.8598 33.9228C87.0242 33.5176 87.2429 33.1526 87.5156 32.8277C87.7924 32.5027 88.1174 32.246 88.4904 32.0574C88.8675 31.8649 89.2847 31.7746 89.742 31.7867C90.1953 31.7947 90.5724 31.891 90.8733 32.0755C91.1742 32.26 91.4088 32.5047 91.5773 32.8096C91.7498 33.1105 91.8621 33.4494 91.9143 33.8265C91.9664 34.1996 91.9704 34.5827 91.9263 34.9758L91.8601 35.4753H87.1365L87.281 34.5667L90.8853 34.5727L90.9034 34.4764C90.9435 34.1876 90.9274 33.9088 90.8552 33.64C90.783 33.3712 90.6506 33.1506 90.4581 32.9781C90.2696 32.8016 90.0148 32.7093 89.6939 32.7013C89.3609 32.6893 89.0721 32.7575 88.8274 32.9059C88.5827 33.0503 88.3781 33.2469 88.2136 33.4956C88.0492 33.7403 87.9188 34.0091 87.8225 34.3019C87.7303 34.5907 87.6661 34.8735 87.63 35.1503L87.6059 35.4031C87.5818 35.6598 87.5898 35.9185 87.63 36.1793C87.6701 36.44 87.7463 36.6787 87.8586 36.8953C87.975 37.108 88.1354 37.2825 88.34 37.4189C88.5446 37.5512 88.7973 37.6214 89.0982 37.6295C89.4632 37.6375 89.7902 37.5593 90.079 37.3948C90.3718 37.2263 90.6386 37.0137 90.8793 36.757L91.4991 37.2865C91.3105 37.5633 91.0859 37.7959 90.8251 37.9845C90.5644 38.173 90.2796 38.3134 89.9707 38.4057C89.6618 38.498 89.3409 38.5421 89.0079 38.5381ZM96.8574 36.8532L97.7118 31.907H98.807L97.6757 38.4177H96.6347L96.8574 36.8532ZM97.2665 35.5415L97.7118 35.5234C97.6597 35.9326 97.5674 36.3217 97.435 36.6908C97.3026 37.0558 97.1221 37.3807 96.8935 37.6656C96.6688 37.9464 96.388 38.167 96.051 38.3275C95.7181 38.4839 95.323 38.5561 94.8656 38.5441C94.5086 38.5321 94.2098 38.4598 93.9691 38.3275C93.7324 38.1951 93.5458 38.0166 93.4095 37.7919C93.2731 37.5673 93.1828 37.3105 93.1387 37.0217C93.0946 36.7329 93.0885 36.428 93.1206 36.1071L93.8246 31.907H94.9138L94.2098 36.1251C94.1937 36.3016 94.1917 36.4761 94.2037 36.6486C94.2158 36.8171 94.2519 36.9716 94.3121 37.112C94.3722 37.2524 94.4645 37.3667 94.5888 37.455C94.7172 37.5392 94.8857 37.5853 95.0943 37.5934C95.5275 37.6094 95.8946 37.5292 96.1955 37.3527C96.4963 37.1721 96.735 36.9234 96.9115 36.6065C97.088 36.2896 97.2064 35.9346 97.2665 35.5415ZM101.409 33.2669L100.519 38.4177H99.4236L100.555 31.907H101.59L101.409 33.2669ZM100.922 34.9157L100.429 34.9036C100.485 34.4985 100.585 34.1073 100.729 33.7303C100.874 33.3532 101.066 33.0162 101.307 32.7193C101.552 32.4225 101.847 32.1898 102.192 32.0213C102.537 31.8529 102.936 31.7746 103.389 31.7867C103.726 31.7947 104.011 31.8609 104.243 31.9852C104.476 32.1056 104.663 32.2721 104.803 32.4847C104.947 32.6933 105.044 32.934 105.092 33.2067C105.144 33.4795 105.156 33.7704 105.128 34.0793L104.4 38.4177H103.311L104.033 34.1274C104.065 33.8546 104.049 33.6139 103.985 33.4053C103.925 33.1967 103.81 33.0322 103.642 32.9119C103.473 32.7875 103.245 32.7214 102.956 32.7133C102.631 32.7053 102.348 32.7615 102.107 32.8818C101.871 33.0022 101.672 33.1686 101.512 33.3812C101.355 33.5898 101.229 33.8285 101.133 34.0973C101.036 34.3621 100.966 34.6349 100.922 34.9157ZM105.128 34.3019L104.346 34.5306C104.394 34.1575 104.494 33.8045 104.647 33.4715C104.803 33.1386 105.006 32.8437 105.254 32.587C105.503 32.3302 105.792 32.1297 106.121 31.9852C106.45 31.8408 106.813 31.7726 107.21 31.7806C107.563 31.7887 107.862 31.8549 108.107 31.9792C108.351 32.0996 108.546 32.266 108.69 32.4787C108.839 32.6913 108.937 32.94 108.985 33.2248C109.037 33.5056 109.045 33.8105 109.009 34.1394L108.293 38.4177H107.198L107.92 34.1214C107.952 33.8446 107.938 33.6019 107.878 33.3933C107.822 33.1847 107.709 33.0222 107.541 32.9059C107.372 32.7855 107.14 32.7234 106.843 32.7193C106.606 32.7113 106.39 32.7474 106.193 32.8277C105.997 32.9079 105.826 33.0222 105.682 33.1706C105.537 33.3151 105.417 33.4835 105.321 33.6761C105.228 33.8686 105.164 34.0772 105.128 34.3019ZM115.538 33.5558L116.958 32.6231C117.202 32.4626 117.419 32.2841 117.608 32.0875C117.796 31.891 117.907 31.6382 117.939 31.3294C117.967 31.0646 117.894 30.85 117.722 30.6855C117.549 30.521 117.333 30.4368 117.072 30.4328C116.843 30.4328 116.641 30.4909 116.464 30.6073C116.292 30.7236 116.151 30.876 116.043 31.0646C115.939 31.2531 115.875 31.4557 115.851 31.6723C115.823 31.889 115.845 32.1016 115.917 32.3102C115.989 32.5148 116.085 32.7133 116.206 32.9059C116.326 33.0944 116.442 33.2749 116.555 33.4474L119.798 38.4177H118.576L115.917 34.35C115.74 34.0893 115.56 33.8205 115.375 33.5437C115.191 33.2629 115.038 32.9701 114.918 32.6652C114.802 32.3603 114.753 32.0414 114.773 31.7084C114.806 31.2712 114.924 30.8881 115.129 30.5591C115.337 30.2262 115.614 29.9694 115.959 29.7889C116.304 29.6084 116.697 29.5242 117.138 29.5362C117.479 29.5442 117.792 29.6224 118.077 29.7709C118.362 29.9193 118.584 30.1279 118.745 30.3967C118.909 30.6614 118.982 30.9743 118.962 31.3354C118.945 31.6322 118.869 31.899 118.733 32.1357C118.6 32.3723 118.432 32.585 118.227 32.7735C118.023 32.962 117.806 33.1365 117.578 33.297L115.682 34.5907C115.51 34.7111 115.339 34.8475 115.171 34.9999C115.002 35.1483 114.856 35.3148 114.731 35.4993C114.611 35.6839 114.537 35.8864 114.509 36.1071C114.469 36.412 114.503 36.6767 114.611 36.9014C114.719 37.126 114.884 37.3025 115.104 37.4309C115.325 37.5552 115.586 37.6214 115.887 37.6295C116.32 37.6415 116.713 37.5532 117.066 37.3647C117.423 37.1721 117.734 36.9154 117.999 36.5945C118.268 36.2696 118.484 35.9145 118.649 35.5294C118.813 35.1403 118.923 34.7552 118.98 34.3741H119.942C119.898 34.7753 119.816 35.1443 119.696 35.4813C119.575 35.8142 119.417 36.1312 119.22 36.432C119.024 36.7289 118.793 37.0237 118.528 37.3166C118.492 37.3567 118.458 37.4008 118.426 37.4489C118.398 37.4931 118.366 37.5352 118.33 37.5753C118.033 37.9083 117.652 38.155 117.186 38.3154C116.725 38.4719 116.276 38.5461 115.839 38.5381C115.365 38.526 114.938 38.4217 114.557 38.2252C114.176 38.0286 113.879 37.7518 113.666 37.3948C113.454 37.0337 113.365 36.6045 113.402 36.1071C113.434 35.6939 113.56 35.3349 113.781 35.03C114.005 34.7211 114.276 34.4483 114.593 34.2116C114.91 33.975 115.225 33.7563 115.538 33.5558ZM127.885 34.3199H125.665L125.815 33.3873L127.71 33.3933C128.019 33.3933 128.31 33.3391 128.583 33.2308C128.86 33.1225 129.09 32.96 129.275 32.7434C129.463 32.5268 129.578 32.254 129.618 31.9251C129.658 31.6122 129.626 31.3614 129.522 31.1729C129.417 30.9803 129.257 30.842 129.04 30.7577C128.828 30.6695 128.577 30.6213 128.288 30.6133L126.567 30.6073L125.213 38.4177H124.076L125.598 29.6565L128.312 29.6626C128.677 29.6706 129.014 29.7207 129.323 29.813C129.636 29.9012 129.905 30.0376 130.129 30.2222C130.354 30.4027 130.523 30.6354 130.635 30.9202C130.751 31.205 130.793 31.546 130.761 31.9431C130.729 32.3723 130.593 32.7334 130.352 33.0262C130.115 33.3191 129.816 33.5497 129.455 33.7182C129.098 33.8827 128.727 33.991 128.342 34.0432L127.885 34.3199ZM127.133 38.4177H124.473L125.273 37.473L127.163 37.479C127.504 37.479 127.819 37.4168 128.108 37.2925C128.396 37.1681 128.635 36.9856 128.824 36.7449C129.016 36.5042 129.135 36.2074 129.179 35.8544C129.215 35.5415 129.191 35.2727 129.106 35.048C129.022 34.8234 128.878 34.6509 128.673 34.5306C128.469 34.4062 128.208 34.338 127.891 34.326L126.212 34.3199L126.387 33.3873L128.523 33.3933L128.709 33.7303C129.07 33.7864 129.373 33.9148 129.618 34.1154C129.867 34.3119 130.047 34.5606 130.159 34.8615C130.276 35.1584 130.322 35.4853 130.298 35.8423C130.254 36.416 130.081 36.8953 129.78 37.2805C129.484 37.6616 129.102 37.9484 128.637 38.1409C128.172 38.3295 127.67 38.4217 127.133 38.4177ZM131.769 35.2707L131.787 35.1323C131.835 34.695 131.943 34.2738 132.112 33.8686C132.284 33.4635 132.511 33.1024 132.792 32.7855C133.073 32.4686 133.406 32.2199 133.791 32.0394C134.176 31.8589 134.605 31.7746 135.079 31.7867C135.536 31.7947 135.927 31.893 136.252 32.0815C136.581 32.2701 136.846 32.5208 137.046 32.8337C137.251 33.1426 137.393 33.4916 137.473 33.8807C137.554 34.2698 137.574 34.671 137.534 35.0841L137.522 35.2225C137.469 35.6598 137.357 36.079 137.185 36.4802C137.012 36.8813 136.783 37.2383 136.499 37.5512C136.218 37.8641 135.885 38.1108 135.5 38.2914C135.115 38.4679 134.687 38.5501 134.218 38.5381C133.765 38.53 133.374 38.4338 133.045 38.2492C132.72 38.0607 132.457 37.812 132.256 37.5031C132.056 37.1942 131.915 36.8472 131.835 36.4621C131.755 36.077 131.733 35.6799 131.769 35.2707ZM132.87 35.1323L132.858 35.2767C132.83 35.5294 132.828 35.7922 132.852 36.065C132.88 36.3377 132.944 36.5905 133.045 36.8231C133.149 37.0558 133.299 37.2464 133.496 37.3948C133.693 37.5432 133.947 37.6214 134.26 37.6295C134.593 37.6375 134.886 37.5733 135.139 37.4369C135.391 37.2965 135.606 37.108 135.783 36.8713C135.963 36.6346 136.105 36.3718 136.21 36.083C136.318 35.7942 136.39 35.5074 136.426 35.2225L136.438 35.0841C136.466 34.8314 136.466 34.5687 136.438 34.2959C136.414 34.0191 136.35 33.7623 136.246 33.5257C136.146 33.285 135.997 33.0904 135.801 32.942C135.604 32.7895 135.349 32.7093 135.036 32.7013C134.703 32.6893 134.409 32.7555 134.152 32.8999C133.899 33.0403 133.684 33.2308 133.508 33.4715C133.331 33.7122 133.189 33.979 133.081 34.2718C132.976 34.5606 132.906 34.8475 132.87 35.1323ZM142.218 31.907L142.067 32.7615H138.644L138.794 31.907H142.218ZM140.226 30.3245H141.309L140.208 36.8171C140.196 36.9575 140.2 37.0839 140.22 37.1962C140.24 37.3085 140.288 37.3988 140.365 37.467C140.441 37.5312 140.557 37.5653 140.714 37.5693C140.802 37.5693 140.888 37.5633 140.972 37.5512C141.061 37.5352 141.149 37.5211 141.237 37.5091L141.159 38.4237C141.03 38.4598 140.898 38.4859 140.762 38.502C140.629 38.522 140.497 38.53 140.365 38.526C140.032 38.522 139.771 38.4378 139.582 38.2733C139.394 38.1088 139.265 37.8962 139.197 37.6355C139.129 37.3747 139.109 37.0959 139.137 36.7991L140.226 30.3245ZM146.403 37.3045L146.944 33.9409C146.972 33.6921 146.948 33.4735 146.872 33.285C146.8 33.0964 146.678 32.95 146.505 32.8457C146.337 32.7414 146.124 32.6852 145.867 32.6772C145.643 32.6732 145.422 32.7093 145.205 32.7855C144.993 32.8618 144.808 32.9761 144.652 33.1285C144.495 33.281 144.393 33.4735 144.345 33.7062L143.262 33.7122C143.29 33.3873 143.392 33.1045 143.569 32.8638C143.745 32.6191 143.966 32.4165 144.231 32.256C144.495 32.0915 144.78 31.9712 145.085 31.895C145.39 31.8147 145.687 31.7766 145.976 31.7806C146.413 31.7887 146.792 31.8829 147.113 32.0635C147.438 32.24 147.682 32.4887 147.847 32.8096C148.011 33.1305 148.072 33.5156 148.027 33.9649L147.528 36.9976C147.492 37.2183 147.47 37.4409 147.462 37.6656C147.458 37.8862 147.484 38.1028 147.54 38.3154L147.528 38.4177L146.427 38.4237C146.383 38.2392 146.361 38.0527 146.361 37.8641C146.365 37.6756 146.379 37.4891 146.403 37.3045ZM147.071 34.4704L146.944 35.2526L145.915 35.2466C145.699 35.2466 145.47 35.2627 145.229 35.2947C144.989 35.3268 144.76 35.387 144.543 35.4753C144.327 35.5635 144.144 35.6919 143.996 35.8604C143.847 36.0248 143.757 36.2395 143.725 36.5042C143.701 36.7208 143.727 36.9094 143.803 37.0699C143.884 37.2263 144.004 37.3487 144.164 37.4369C144.325 37.5252 144.511 37.5713 144.724 37.5753C145.001 37.5793 145.274 37.5252 145.542 37.4128C145.811 37.3005 146.046 37.1401 146.246 36.9315C146.447 36.7229 146.585 36.4822 146.662 36.2094L147.059 36.7449C146.982 37.0097 146.858 37.2544 146.686 37.479C146.513 37.6997 146.309 37.8902 146.072 38.0507C145.839 38.2111 145.588 38.3355 145.32 38.4237C145.051 38.512 144.782 38.5541 144.513 38.5501C144.148 38.5421 143.817 38.4598 143.521 38.3034C143.228 38.1469 142.995 37.9283 142.823 37.6475C142.654 37.3627 142.582 37.0317 142.606 36.6547C142.63 36.2415 142.738 35.8945 142.931 35.6137C143.123 35.3329 143.37 35.1082 143.671 34.9397C143.976 34.7712 144.309 34.6509 144.67 34.5787C145.031 34.5025 145.388 34.4644 145.741 34.4644L147.071 34.4704ZM151.069 33.3632L150.191 38.4177H149.101L150.233 31.907H151.262L151.069 33.3632ZM150.564 34.9157L150.118 34.9036C150.175 34.5145 150.277 34.1334 150.425 33.7603C150.578 33.3833 150.776 33.0443 151.021 32.7434C151.27 32.4426 151.565 32.2059 151.906 32.0334C152.25 31.8569 152.644 31.7746 153.085 31.7867C153.434 31.7947 153.725 31.8629 153.957 31.9913C154.194 32.1156 154.379 32.2861 154.511 32.5027C154.643 32.7193 154.732 32.9701 154.776 33.2549C154.82 33.5357 154.824 33.8346 154.788 34.1515L154.078 38.4177H152.983L153.705 34.1334C153.733 33.8727 153.723 33.638 153.675 33.4294C153.63 33.2168 153.53 33.0483 153.374 32.9239C153.221 32.7956 153.001 32.7274 152.712 32.7193C152.407 32.7113 152.132 32.7695 151.887 32.8938C151.643 33.0182 151.428 33.1887 151.244 33.4053C151.063 33.6179 150.915 33.8566 150.798 34.1214C150.686 34.3821 150.608 34.6469 150.564 34.9157ZM158.142 31.907L157.011 38.4177H155.922L157.053 31.907H158.142ZM157.27 30.1981C157.27 30.0096 157.328 29.8531 157.444 29.7288C157.565 29.6004 157.719 29.5342 157.908 29.5302C158.096 29.5262 158.251 29.5843 158.371 29.7047C158.495 29.825 158.555 29.9775 158.551 30.162C158.551 30.3465 158.489 30.501 158.365 30.6253C158.245 30.7457 158.092 30.8079 157.908 30.8119C157.723 30.8159 157.571 30.7617 157.45 30.6494C157.33 30.5331 157.27 30.3826 157.27 30.1981ZM161.581 37.6295C161.846 37.6335 162.093 37.5833 162.321 37.479C162.55 37.3747 162.744 37.2263 162.905 37.0337C163.065 36.8412 163.18 36.6186 163.248 36.3658L164.283 36.3598C164.219 36.7971 164.048 37.1802 163.771 37.5091C163.499 37.8381 163.164 38.0948 162.766 38.2793C162.373 38.4598 161.962 38.5461 161.533 38.5381C161.076 38.53 160.687 38.4358 160.366 38.2553C160.049 38.0707 159.794 37.826 159.601 37.5211C159.409 37.2163 159.276 36.8733 159.204 36.4922C159.132 36.1071 159.116 35.7119 159.156 35.3068L159.18 35.048C159.228 34.6108 159.335 34.1956 159.499 33.8025C159.664 33.4053 159.882 33.0543 160.155 32.7494C160.432 32.4405 160.759 32.1999 161.136 32.0274C161.513 31.8549 161.936 31.7746 162.405 31.7867C162.863 31.7947 163.26 31.903 163.597 32.1116C163.934 32.3162 164.195 32.595 164.379 32.948C164.564 33.301 164.656 33.7022 164.656 34.1515L163.633 34.1454C163.629 33.8887 163.579 33.652 163.483 33.4354C163.386 33.2188 163.244 33.0443 163.055 32.9119C162.867 32.7795 162.634 32.7073 162.357 32.6953C162.024 32.6873 161.734 32.7494 161.485 32.8818C161.24 33.0142 161.031 33.1967 160.859 33.4294C160.691 33.658 160.556 33.9128 160.456 34.1936C160.36 34.4744 160.293 34.7592 160.257 35.048L160.227 35.3008C160.203 35.5575 160.199 35.8203 160.215 36.089C160.235 36.3578 160.291 36.6085 160.384 36.8412C160.476 37.0699 160.618 37.2564 160.811 37.4008C161.003 37.5452 161.26 37.6214 161.581 37.6295ZM169.184 37.3045L169.725 33.9409C169.753 33.6921 169.729 33.4735 169.653 33.285C169.581 33.0964 169.459 32.95 169.286 32.8457C169.118 32.7414 168.905 32.6852 168.648 32.6772C168.424 32.6732 168.203 32.7093 167.986 32.7855C167.774 32.8618 167.589 32.9761 167.433 33.1285C167.276 33.281 167.174 33.4735 167.126 33.7062L166.043 33.7122C166.071 33.3873 166.173 33.1045 166.35 32.8638C166.526 32.6191 166.747 32.4165 167.012 32.256C167.276 32.0915 167.561 31.9712 167.866 31.895C168.171 31.8147 168.468 31.7766 168.757 31.7806C169.194 31.7887 169.573 31.8829 169.894 32.0635C170.219 32.24 170.463 32.4887 170.628 32.8096C170.792 33.1305 170.853 33.5156 170.808 33.9649L170.309 36.9976C170.273 37.2183 170.251 37.4409 170.243 37.6656C170.239 37.8862 170.265 38.1028 170.321 38.3154L170.309 38.4177L169.208 38.4237C169.164 38.2392 169.142 38.0527 169.142 37.8641C169.146 37.6756 169.16 37.4891 169.184 37.3045ZM169.852 34.4704L169.725 35.2526L168.696 35.2466C168.48 35.2466 168.251 35.2627 168.01 35.2947C167.77 35.3268 167.541 35.387 167.324 35.4753C167.108 35.5635 166.925 35.6919 166.777 35.8604C166.628 36.0248 166.538 36.2395 166.506 36.5042C166.482 36.7208 166.508 36.9094 166.584 37.0699C166.665 37.2263 166.785 37.3487 166.945 37.4369C167.106 37.5252 167.292 37.5713 167.505 37.5753C167.782 37.5793 168.055 37.5252 168.323 37.4128C168.592 37.3005 168.827 37.1401 169.027 36.9315C169.228 36.7229 169.366 36.4822 169.443 36.2094L169.84 36.7449C169.763 37.0097 169.639 37.2544 169.467 37.479C169.294 37.6997 169.09 37.8902 168.853 38.0507C168.62 38.2111 168.369 38.3355 168.101 38.4237C167.832 38.512 167.563 38.5541 167.294 38.5501C166.929 38.5421 166.598 38.4598 166.302 38.3034C166.009 38.1469 165.776 37.9283 165.604 37.6475C165.435 37.3627 165.363 37.0317 165.387 36.6547C165.411 36.2415 165.519 35.8945 165.712 35.6137C165.904 35.3329 166.151 35.1082 166.452 34.9397C166.757 34.7712 167.09 34.6509 167.451 34.5787C167.812 34.5025 168.169 34.4644 168.522 34.4644L169.852 34.4704ZM174.668 29.1752L173.062 38.4177H171.973L173.573 29.1752H174.668ZM185.283 34.0552L184.765 37.2624C184.529 37.5913 184.234 37.8501 183.881 38.0386C183.532 38.2232 183.157 38.3535 182.755 38.4298C182.354 38.506 181.963 38.5421 181.582 38.5381C181 38.53 180.509 38.4057 180.108 38.165C179.711 37.9243 179.396 37.6054 179.163 37.2082C178.93 36.8111 178.774 36.3678 178.694 35.8784C178.618 35.389 178.614 34.8876 178.682 34.3741L178.778 33.6941C178.858 33.1446 178.999 32.6191 179.199 32.1176C179.404 31.6122 179.673 31.1649 180.006 30.7758C180.343 30.3826 180.746 30.0757 181.215 29.8551C181.684 29.6305 182.226 29.5242 182.84 29.5362C183.397 29.5482 183.875 29.6646 184.272 29.8852C184.673 30.1058 184.986 30.4147 185.211 30.8119C185.439 31.209 185.574 31.6804 185.614 32.2259H184.494C184.466 31.8809 184.386 31.5801 184.254 31.3233C184.125 31.0666 183.939 30.866 183.694 30.7216C183.453 30.5772 183.153 30.499 182.792 30.4869C182.334 30.4709 181.937 30.5551 181.6 30.7397C181.267 30.9202 180.986 31.1669 180.758 31.4798C180.533 31.7887 180.353 32.1357 180.216 32.5208C180.08 32.9019 179.981 33.289 179.921 33.6821L179.819 34.3801C179.775 34.7211 179.763 35.0781 179.783 35.4512C179.807 35.8203 179.881 36.1653 180.006 36.4862C180.134 36.8071 180.328 37.0699 180.589 37.2744C180.85 37.475 181.195 37.5793 181.624 37.5873C181.869 37.5913 182.11 37.5753 182.346 37.5392C182.587 37.5031 182.816 37.4389 183.032 37.3466C183.249 37.2544 183.451 37.124 183.64 36.9555L183.995 34.9939H182.021L182.19 34.0552H185.283ZM190.28 37.3045L190.822 33.9409C190.85 33.6921 190.826 33.4735 190.749 33.285C190.677 33.0964 190.555 32.95 190.382 32.8457C190.214 32.7414 190.001 32.6852 189.744 32.6772C189.52 32.6732 189.299 32.7093 189.083 32.7855C188.87 32.8618 188.685 32.9761 188.529 33.1285C188.372 33.281 188.27 33.4735 188.222 33.7062L187.139 33.7122C187.167 33.3873 187.269 33.1045 187.446 32.8638C187.622 32.6191 187.843 32.4165 188.108 32.256C188.372 32.0915 188.657 31.9712 188.962 31.895C189.267 31.8147 189.564 31.7766 189.853 31.7806C190.29 31.7887 190.669 31.8829 190.99 32.0635C191.315 32.24 191.56 32.4887 191.724 32.8096C191.889 33.1305 191.949 33.5156 191.905 33.9649L191.405 36.9976C191.369 37.2183 191.347 37.4409 191.339 37.6656C191.335 37.8862 191.361 38.1028 191.417 38.3154L191.405 38.4177L190.304 38.4237C190.26 38.2392 190.238 38.0527 190.238 37.8641C190.242 37.6756 190.256 37.4891 190.28 37.3045ZM190.948 34.4704L190.822 35.2526L189.793 35.2466C189.576 35.2466 189.347 35.2627 189.107 35.2947C188.866 35.3268 188.637 35.387 188.421 35.4753C188.204 35.5635 188.021 35.6919 187.873 35.8604C187.725 36.0248 187.634 36.2395 187.602 36.5042C187.578 36.7208 187.604 36.9094 187.68 37.0699C187.761 37.2263 187.881 37.3487 188.042 37.4369C188.202 37.5252 188.389 37.5713 188.601 37.5753C188.878 37.5793 189.151 37.5252 189.419 37.4128C189.688 37.3005 189.923 37.1401 190.124 36.9315C190.324 36.7229 190.462 36.4822 190.539 36.2094L190.936 36.7449C190.86 37.0097 190.735 37.2544 190.563 37.479C190.39 37.6997 190.186 37.8902 189.949 38.0507C189.716 38.2111 189.466 38.3355 189.197 38.4237C188.928 38.512 188.659 38.5541 188.391 38.5501C188.025 38.5421 187.695 38.4598 187.398 38.3034C187.105 38.1469 186.872 37.9283 186.7 37.6475C186.531 37.3627 186.459 37.0317 186.483 36.6547C186.507 36.2415 186.615 35.8945 186.808 35.6137C187.001 35.3329 187.247 35.1082 187.548 34.9397C187.853 34.7712 188.186 34.6509 188.547 34.5787C188.908 34.5025 189.265 34.4644 189.618 34.4644L190.948 34.4704ZM195.012 32.9781L194.068 38.4177H192.979L194.11 31.907H195.169L195.012 32.9781ZM197.125 31.8529L197.022 32.8999C196.938 32.8838 196.852 32.8698 196.763 32.8577C196.679 32.8457 196.595 32.8397 196.511 32.8397C196.25 32.8357 196.015 32.8758 195.807 32.96C195.602 33.0403 195.42 33.1546 195.259 33.303C195.103 33.4515 194.968 33.626 194.856 33.8265C194.748 34.0271 194.661 34.2437 194.597 34.4764L194.254 34.6569C194.298 34.332 194.371 33.999 194.471 33.658C194.575 33.3171 194.718 33.0022 194.898 32.7133C195.083 32.4245 195.313 32.1918 195.59 32.0153C195.871 31.8388 196.208 31.7566 196.601 31.7686C196.689 31.7686 196.776 31.7766 196.86 31.7927C196.948 31.8087 197.036 31.8288 197.125 31.8529ZM201.249 37.0879L202.621 29.1752H203.716L202.11 38.4177H201.117L201.249 37.0879ZM197.326 35.2827L197.338 35.1564C197.39 34.7552 197.486 34.354 197.627 33.9529C197.771 33.5517 197.966 33.1847 198.211 32.8517C198.455 32.5188 198.752 32.254 199.101 32.0574C199.45 31.8609 199.857 31.7686 200.323 31.7806C200.74 31.7927 201.089 31.891 201.37 32.0755C201.65 32.26 201.871 32.5047 202.031 32.8096C202.196 33.1105 202.306 33.4414 202.362 33.8025C202.423 34.1635 202.441 34.5265 202.417 34.8916L202.35 35.4452C202.282 35.8343 202.17 36.2154 202.013 36.5885C201.857 36.9615 201.654 37.2985 201.406 37.5994C201.161 37.8962 200.866 38.1309 200.521 38.3034C200.18 38.4759 199.789 38.5561 199.348 38.5441C198.923 38.528 198.57 38.4177 198.289 38.2131C198.012 38.0085 197.795 37.7458 197.639 37.4249C197.486 37.0999 197.386 36.7509 197.338 36.3779C197.294 36.0008 197.29 35.6357 197.326 35.2827ZM198.445 35.1443L198.433 35.2707C198.405 35.5114 198.395 35.7661 198.403 36.0349C198.415 36.2996 198.461 36.5504 198.541 36.787C198.622 37.0197 198.752 37.2123 198.933 37.3647C199.113 37.5131 199.358 37.5934 199.667 37.6054C199.996 37.6134 200.301 37.5392 200.581 37.3827C200.862 37.2263 201.103 37.0177 201.303 36.757C201.504 36.4962 201.648 36.2134 201.737 35.9085L201.971 34.4463C201.983 34.2257 201.957 34.0151 201.893 33.8145C201.829 33.6099 201.733 33.4274 201.604 33.2669C201.48 33.1065 201.325 32.9781 201.141 32.8818C200.96 32.7815 200.758 32.7294 200.533 32.7254C200.196 32.7133 199.905 32.7795 199.661 32.9239C199.416 33.0643 199.209 33.2549 199.041 33.4956C198.876 33.7323 198.746 33.995 198.65 34.2838C198.554 34.5727 198.485 34.8595 198.445 35.1443ZM206.656 38.5381C206.21 38.53 205.823 38.4418 205.494 38.2733C205.169 38.1008 204.903 37.8702 204.694 37.5813C204.489 37.2885 204.343 36.9555 204.255 36.5824C204.167 36.2094 204.14 35.8183 204.177 35.4091L204.201 35.1503C204.241 34.7331 204.343 34.324 204.507 33.9228C204.672 33.5176 204.891 33.1526 205.163 32.8277C205.44 32.5027 205.765 32.246 206.138 32.0574C206.515 31.8649 206.932 31.7746 207.39 31.7867C207.843 31.7947 208.22 31.891 208.521 32.0755C208.822 32.26 209.057 32.5047 209.225 32.8096C209.398 33.1105 209.51 33.4494 209.562 33.8265C209.614 34.1996 209.618 34.5827 209.574 34.9758L209.508 35.4753H204.784L204.929 34.5667L208.533 34.5727L208.551 34.4764C208.591 34.1876 208.575 33.9088 208.503 33.64C208.431 33.3712 208.298 33.1506 208.106 32.9781C207.917 32.8016 207.663 32.7093 207.342 32.7013C207.009 32.6893 206.72 32.7575 206.475 32.9059C206.23 33.0503 206.026 33.2469 205.861 33.4956C205.697 33.7403 205.567 34.0091 205.47 34.3019C205.378 34.5907 205.314 34.8735 205.278 35.1503L205.254 35.4031C205.23 35.6598 205.238 35.9185 205.278 36.1793C205.318 36.44 205.394 36.6787 205.506 36.8953C205.623 37.108 205.783 37.2825 205.988 37.4189C206.192 37.5512 206.445 37.6214 206.746 37.6295C207.111 37.6375 207.438 37.5593 207.727 37.3948C208.02 37.2263 208.286 37.0137 208.527 36.757L209.147 37.2865C208.958 37.5633 208.734 37.7959 208.473 37.9845C208.212 38.173 207.927 38.3134 207.618 38.4057C207.31 38.498 206.989 38.5421 206.656 38.5381ZM212.333 33.3632L211.454 38.4177H210.365L211.496 31.907H212.525L212.333 33.3632ZM211.827 34.9157L211.382 34.9036C211.438 34.5145 211.541 34.1334 211.689 33.7603C211.841 33.3833 212.04 33.0443 212.285 32.7434C212.533 32.4426 212.828 32.2059 213.169 32.0334C213.514 31.8569 213.907 31.7746 214.349 31.7867C214.698 31.7947 214.988 31.8629 215.221 31.9913C215.458 32.1156 215.642 32.2861 215.775 32.5027C215.907 32.7193 215.995 32.9701 216.04 33.2549C216.084 33.5357 216.088 33.8346 216.052 34.1515L215.342 38.4177H214.246L214.968 34.1334C214.997 33.8727 214.986 33.638 214.938 33.4294C214.894 33.2168 214.794 33.0483 214.637 32.9239C214.485 32.7956 214.264 32.7274 213.976 32.7193C213.671 32.7113 213.396 32.7695 213.151 32.8938C212.907 33.0182 212.692 33.1887 212.507 33.4053C212.327 33.6179 212.178 33.8566 212.062 34.1214C211.95 34.3821 211.872 34.6469 211.827 34.9157Z" fill="white"/>
</g>
<defs>
<clipPath id="clip0_1414_499">
<rect width="161.026" height="39.0508" fill="white" transform="translate(62.4871 5.45142)"/>
</clipPath>
</defs>
</svg>
