<svg width="263" height="59" viewBox="0 0 263 59" fill="none" xmlns="http://www.w3.org/2000/svg">
<path fill-rule="evenodd" clip-rule="evenodd" d="M29.5 59C45.7924 59 59 45.7924 59 29.5C59 13.2076 45.7924 0 29.5 0C13.2076 0 0 13.2076 0 29.5C0 37.9333 3.53873 45.5401 9.2123 50.9164C9.94271 50.4585 10.668 49.9953 11.3878 49.527C11.4599 49.1224 11.5463 48.6324 11.643 48.075C11.6936 47.7905 11.7479 47.4891 11.8115 47.1747C11.8608 46.9215 11.9174 46.6612 11.9761 46.3911L12.0006 46.2782C12.2437 45.1674 12.4987 43.9193 12.7073 42.6112H12.6186C10.2902 42.6542 8.15457 42.0253 6.92111 40.6365C6.35773 40.0039 5.959 39.2122 5.84109 38.2632C5.71568 37.2487 5.91036 36.0527 6.48871 34.6696L6.57851 34.4131L6.97161 34.4992C8.47459 34.7912 10.3987 35.1805 11.7089 36.88C12.3123 37.661 12.786 38.7231 13.0219 40.1906C13.0438 39.9653 13.0634 39.7396 13.0805 39.5138C13.1819 38.1825 13.2057 36.8538 13.097 35.6037C10.5628 34.6049 8.52982 31.6399 7.93935 28.4049C7.711 27.1528 7.69037 25.8594 7.95054 24.6484C8.34734 22.801 9.35812 21.1409 11.0726 20.0253L11.2523 19.8979L11.5349 20.1357C13.7623 21.9531 14.8796 24.5286 15.1828 27.3155C15.4692 29.9659 15.0088 32.8071 14.0655 35.3676L13.9182 35.7503C14.1029 36.9679 14.1735 38.2605 14.1624 39.5606C14.1399 42.0368 13.8368 44.5356 13.4568 46.5739C13.3988 46.8921 13.3351 47.1991 13.2658 47.4929C13.1891 47.813 13.1068 48.1162 13.0226 48.4007L13.005 48.4593C18.021 45.0993 22.7398 41.4767 26.9851 37.5739C26.9736 37.4157 26.9557 37.1082 26.952 36.6875C26.9501 36.4872 26.9502 36.2664 26.9689 36.023C26.9871 35.81 27.0192 35.5837 27.0529 35.346L27.0529 35.3459L27.0529 35.3459L27.0529 35.3458L27.053 35.3457L27.053 35.3453L27.053 35.3451L27.0531 35.3449L27.0531 35.3447L27.0531 35.3443L27.0532 35.344L27.0533 35.3436L27.0533 35.343C27.0749 35.1911 27.0971 35.0346 27.1167 34.8738C27.1903 34.2838 27.2657 33.6494 27.3061 33.0058C25.7672 31.9707 24.46 30.5058 23.609 28.9536C23.1935 28.1974 22.8866 27.4207 22.7069 26.6758C22.5141 25.8728 22.4504 25.1053 22.5515 24.4315C22.7443 23.1363 23.4201 22.1536 24.6966 21.8336C25.6044 21.4873 26.5702 21.8243 27.4124 22.6292C28.2584 23.4377 28.9734 24.7366 29.3534 26.2284C29.886 28.3331 29.7254 30.8045 28.3819 32.8294C28.4182 33.144 28.4459 33.4595 28.4662 33.7714C28.5018 34.2917 28.5186 34.797 28.5073 35.2687C28.4987 35.6003 28.4884 35.9126 28.4511 36.1966C31.2038 33.5532 33.7374 30.7843 35.9996 27.8849C36.6081 27.1066 37.1078 26.379 37.5518 25.63L37.3541 25.2532C36.2835 23.271 35.6451 20.6806 35.6769 18.2474C35.6919 17.1524 35.8417 16.0893 36.1374 15.1347C36.4425 14.1521 36.8879 13.2761 37.4944 12.5966C38.4433 11.5298 39.7368 10.8991 41.4101 11.0133C42.4751 10.9908 43.2107 11.6215 43.6374 12.6584C44.242 14.1259 44.182 16.4767 43.5437 18.777C42.7561 21.6111 41.0671 24.3201 38.7957 25.3313C38.252 26.4117 37.634 27.4113 36.8213 28.5082C36.3925 29.0866 35.9534 29.6603 35.5044 30.2294C35.7558 30.1124 36.017 29.9984 36.286 29.8875C36.7154 29.7113 37.1631 29.5457 37.6236 29.3991C38.4807 27.7273 39.989 26.2437 41.6692 25.2792C42.4422 24.8356 43.2507 24.5025 44.035 24.306C44.8622 24.0982 45.6634 24.0271 46.3728 24.1319C47.6904 24.3266 48.7142 25.0191 49.0661 26.3574C49.4348 27.312 49.4292 28.1037 49.1821 28.7513C48.7872 29.7938 47.7241 30.4826 46.3447 30.8663C43.6737 31.6113 39.803 31.1919 37.8883 30.4114L37.887 30.4109C37.8058 30.4506 37.7251 30.4908 37.6449 30.5314C36.8081 30.9554 36.0595 31.4558 35.3941 31.9006L35.394 31.9006C35.1813 32.0428 34.9771 32.1792 34.7812 32.3057C34.431 32.5324 34.1062 32.7174 33.8265 32.8767L33.8135 32.8841C33.3308 33.1571 32.993 33.3287 32.8695 33.3902C29.743 36.9477 26.2326 40.3158 22.4375 43.4984C22.5555 43.4816 22.6783 43.4657 22.8058 43.4515C23.0123 43.4287 23.2294 43.4079 23.455 43.3862C24.2293 43.312 25.1041 43.2282 25.9969 43.0209C26.2616 42.9591 26.5278 42.8907 26.7932 42.8139L26.8956 42.5907C28.1122 39.8486 30.2833 38.3044 32.7277 37.6063C33.7235 37.3236 34.7642 37.1795 35.7974 37.1627C37.3958 37.1383 38.9643 37.4061 40.3232 37.7785L40.6956 37.8646L40.5291 38.3175C39.3967 41.5818 37.3358 43.2139 35.1123 43.9177C32.4327 44.7651 29.489 44.2352 27.5547 43.5084C26.8491 43.8656 26.1183 44.1497 25.4055 44.376C24.8234 44.5613 24.26 44.7092 23.7285 44.8102C23.3223 44.8889 22.9387 44.9544 22.5868 44.975C22.2218 44.9937 21.898 44.975 21.6228 44.9506C21.2466 44.9165 20.969 44.87 20.8091 44.8387C17.6043 47.4284 14.2142 49.8916 10.6952 52.2305C15.8003 56.4587 22.3534 59 29.5 59ZM13.4697 33.7014C14.1311 31.6569 14.4544 29.4734 14.2919 27.3979C14.0991 24.9273 13.2232 22.612 11.4001 20.8844C10.1311 21.9401 9.47978 23.3682 9.22523 24.8899C9.04555 25.9568 9.0642 27.0741 9.25699 28.1672C9.70457 30.7106 11.0556 33.1327 12.9181 34.2467C12.7767 33.4689 12.5691 32.7373 12.2795 32.0737C12.2196 31.9502 12.272 31.8005 12.3955 31.7406C12.5209 31.6807 12.6707 31.7332 12.7306 31.8567C13.029 32.4212 13.2731 33.0409 13.4697 33.7014ZM27.5828 29.6835C27.7531 30.0423 27.8942 30.4371 28.0107 30.8544C28.6114 29.4345 28.6624 27.8545 28.38 26.4492C28.06 24.8564 27.3263 23.4733 26.4223 22.7957C25.945 22.4382 25.4265 22.2772 24.9081 22.4419C24.1968 22.7676 23.8712 23.3665 23.7663 24.0946C23.6728 24.7478 23.7981 25.4984 24.0508 26.3032C24.2511 26.9359 24.5393 27.5929 24.8987 28.2461C25.5075 29.3535 26.3253 30.4501 27.3172 31.3355C27.2882 30.8145 27.2226 30.317 27.098 29.865C27.0493 29.7322 27.1167 29.5825 27.2496 29.5319C27.3843 29.4833 27.5323 29.5506 27.5828 29.6835ZM29.6318 42.1357C29.3767 42.3569 29.1091 42.5624 28.8324 42.7533C30.5232 43.3038 32.7581 43.6265 34.8521 43.0418C36.7819 42.5009 38.5805 41.1812 39.7279 38.5664C38.2792 38.3418 36.634 38.3139 35.0113 38.5235C33.9088 38.6657 32.8119 38.9128 31.7975 39.3638C30.4804 39.9496 29.2982 40.8514 28.4335 42.206C28.7386 42.0624 29.0363 41.9014 29.323 41.7201C29.4372 41.6358 29.6 41.6603 29.6843 41.7744C29.7704 41.8886 29.746 42.0496 29.6318 42.1357ZM39.6958 29.6637C41.5504 30.1738 44.1612 30.4076 46.1163 29.966C47.8944 29.5617 49.111 28.5716 48.4578 26.5745C48.1096 25.8164 47.4807 25.4627 46.7264 25.3486C46.0377 25.2437 45.2478 25.3766 44.4167 25.6462C43.7523 25.8595 43.071 26.1702 42.4028 26.5557C41.3332 27.1717 40.3047 27.9812 39.5237 28.9329C40.0549 28.844 40.5928 28.7911 41.13 28.7851C41.2723 28.7739 41.3976 28.8786 41.4089 29.0209C41.4201 29.1631 41.3153 29.2885 41.1731 29.2997C40.6721 29.3792 40.1785 29.5052 39.6958 29.6637ZM40.5553 21.0663C40.2633 21.8764 39.9916 22.602 39.7202 23.2724C41.0214 22.1471 41.9962 20.334 42.5855 18.4907C43.2481 16.4206 43.4258 14.2887 42.9336 12.9317C42.6584 12.1774 42.1737 11.6758 41.4101 11.659C40.2833 11.7394 39.4373 12.2036 38.7878 12.8886C38.1495 13.5624 37.7414 14.4759 37.4794 15.5128C37.2642 16.3663 37.1612 17.3003 37.1481 18.2661C37.1257 20.2782 37.5076 22.4175 38.2806 24.1563L38.3207 24.1407L38.3603 24.1249C38.8361 23.1492 39.2807 22.0752 39.788 20.7781C39.8666 20.5647 40.1043 20.4579 40.3158 20.5366C40.5292 20.617 40.6358 20.8548 40.5553 21.0663ZM7.24304 35.231C6.96977 36.3372 6.96602 37.2693 7.12137 38.0592C7.25427 38.733 7.52565 39.2927 7.92619 39.7513C8.83959 40.7994 10.3519 41.3366 12.057 41.4583C12.0233 39.5884 11.6153 38.3063 10.9883 37.4097C10 35.9947 8.5027 35.5436 7.24304 35.231Z" fill="#343D33"/>
<g clip-path="url(#clip0_405_1365)">
<path d="M78.3457 11.6484L83.0625 24.1816L87.7681 11.6484H91.4404V28H88.6104V22.6094L88.8911 15.3994L84.062 28H82.0293L77.2114 15.4106L77.4922 22.6094V28H74.6621V11.6484H78.3457ZM100.108 28H97.278V11.6484H100.108V28ZM114.447 23.7886C114.447 23.0698 114.193 22.5158 113.683 22.1265C113.182 21.7371 112.272 21.3441 110.954 20.9473C109.637 20.5505 108.589 20.1087 107.81 19.6221C106.32 18.6862 105.575 17.4658 105.575 15.9609C105.575 14.6432 106.11 13.5576 107.181 12.7041C108.259 11.8506 109.656 11.4238 111.37 11.4238C112.508 11.4238 113.523 11.6335 114.413 12.0527C115.304 12.472 116.004 13.071 116.514 13.8496C117.023 14.6208 117.277 15.478 117.277 16.4214H114.447C114.447 15.5679 114.178 14.9015 113.639 14.4224C113.107 13.9357 112.343 13.6924 111.348 13.6924C110.419 13.6924 109.697 13.8908 109.18 14.2876C108.671 14.6844 108.416 15.2384 108.416 15.9497C108.416 16.5487 108.693 17.0503 109.247 17.4546C109.801 17.8514 110.715 18.2407 111.988 18.6226C113.26 18.9969 114.282 19.4274 115.054 19.9141C115.825 20.3932 116.39 20.9473 116.749 21.5762C117.109 22.1976 117.288 22.9276 117.288 23.7661C117.288 25.1287 116.764 26.2144 115.716 27.0229C114.676 27.8241 113.26 28.2246 111.471 28.2246C110.288 28.2246 109.199 28.0075 108.203 27.5732C107.215 27.1315 106.444 26.5251 105.89 25.7539C105.343 24.9827 105.07 24.0843 105.07 23.0586H107.911C107.911 23.987 108.218 24.7057 108.832 25.2148C109.446 25.724 110.326 25.9785 111.471 25.9785C112.459 25.9785 113.201 25.7801 113.695 25.3833C114.196 24.979 114.447 24.4474 114.447 23.7886ZM133.896 13.9395H128.797V28H125.979V13.9395H120.925V11.6484H133.896V13.9395ZM158.239 25.8774C157.648 26.6486 156.828 27.2326 155.78 27.6294C154.732 28.0262 153.541 28.2246 152.208 28.2246C150.838 28.2246 149.625 27.9139 148.57 27.2925C147.514 26.6711 146.698 25.7839 146.122 24.6309C145.553 23.4704 145.257 22.119 145.234 20.5767V19.2964C145.234 16.8257 145.826 14.8978 147.009 13.5127C148.192 12.1201 149.843 11.4238 151.961 11.4238C153.781 11.4238 155.226 11.873 156.296 12.7715C157.367 13.6699 158.011 14.9652 158.228 16.6572H155.443C155.128 14.6882 153.987 13.7036 152.018 13.7036C150.745 13.7036 149.775 14.1641 149.109 15.085C148.45 15.9984 148.109 17.3423 148.087 19.1167V20.3745C148.087 22.1414 148.458 23.5153 149.199 24.4961C149.947 25.4694 150.984 25.9561 152.31 25.9561C153.762 25.9561 154.795 25.6266 155.409 24.9678V21.7671H152.04V19.6108H158.239V25.8774ZM172.814 24.1929H166.48L165.155 28H162.201L168.378 11.6484H170.927L177.115 28H174.151L172.814 24.1929ZM167.278 21.9019H172.017L169.647 15.1187L167.278 21.9019ZM187.288 21.6997H184.121V28H181.28V11.6484H187.03C188.916 11.6484 190.373 12.0715 191.398 12.9175C192.424 13.7635 192.937 14.9876 192.937 16.5898C192.937 17.6829 192.671 18.6001 192.14 19.3413C191.615 20.075 190.882 20.6403 189.938 21.0371L193.611 27.854V28H190.567L187.288 21.6997ZM184.121 19.4199H187.041C187.999 19.4199 188.748 19.1803 189.287 18.7012C189.826 18.2145 190.096 17.5519 190.096 16.7134C190.096 15.8374 189.845 15.1598 189.343 14.6807C188.849 14.2015 188.108 13.9544 187.12 13.9395H184.121V19.4199ZM197.932 28V11.6484H202.761C204.206 11.6484 205.487 11.9704 206.602 12.6143C207.725 13.2581 208.594 14.1715 209.208 15.3545C209.822 16.5374 210.129 17.8926 210.129 19.4199V20.2397C210.129 21.7896 209.818 23.1522 209.196 24.3276C208.582 25.5031 207.703 26.409 206.557 27.0454C205.419 27.6818 204.113 28 202.638 28H197.932ZM200.774 13.9395V25.7314H202.627C204.116 25.7314 205.258 25.2673 206.052 24.3389C206.853 23.403 207.261 22.0628 207.276 20.3184V19.4087C207.276 17.6343 206.89 16.2791 206.119 15.3433C205.348 14.4074 204.229 13.9395 202.761 13.9395H200.774ZM224.816 20.7002H218.1V25.7314H225.95V28H215.259V11.6484H225.871V13.9395H218.1V18.4541H224.816V20.7002ZM243.535 28H240.693L233.405 16.3989V28H230.563V11.6484H233.405L240.716 23.2944V11.6484H243.535V28ZM257.739 23.7886C257.739 23.0698 257.484 22.5158 256.975 22.1265C256.474 21.7371 255.564 21.3441 254.246 20.9473C252.929 20.5505 251.88 20.1087 251.102 19.6221C249.612 18.6862 248.867 17.4658 248.867 15.9609C248.867 14.6432 249.402 13.5576 250.473 12.7041C251.551 11.8506 252.947 11.4238 254.662 11.4238C255.8 11.4238 256.814 11.6335 257.705 12.0527C258.596 12.472 259.296 13.071 259.805 13.8496C260.314 14.6208 260.569 15.478 260.569 16.4214H257.739C257.739 15.5679 257.469 14.9015 256.93 14.4224C256.399 13.9357 255.635 13.6924 254.639 13.6924C253.711 13.6924 252.988 13.8908 252.472 14.2876C251.963 14.6844 251.708 15.2384 251.708 15.9497C251.708 16.5487 251.985 17.0503 252.539 17.4546C253.093 17.8514 254.007 18.2407 255.279 18.6226C256.552 18.9969 257.574 19.4274 258.345 19.9141C259.117 20.3932 259.682 20.9473 260.041 21.5762C260.401 22.1976 260.58 22.9276 260.58 23.7661C260.58 25.1287 260.056 26.2144 259.008 27.0229C257.967 27.8241 256.552 28.2246 254.763 28.2246C253.58 28.2246 252.491 28.0075 251.495 27.5732C250.507 27.1315 249.735 26.5251 249.181 25.7539C248.635 24.9827 248.362 24.0843 248.362 23.0586H251.203C251.203 23.987 251.51 24.7057 252.124 25.2148C252.738 25.724 253.617 25.9785 254.763 25.9785C255.751 25.9785 256.492 25.7801 256.987 25.3833C257.488 24.979 257.739 24.4474 257.739 23.7886Z" fill="#343D33"/>
<path d="M77.021 37.3359L78.8887 46.0225L83.7812 37.3359H85.5903L83.7373 48H82.3677L83.1001 43.7812L83.9717 39.4893L79.1377 48H78.083L76.1787 39.3208L75.5195 43.9204L74.8091 48H73.4321L75.2852 37.3359H77.021ZM91.1822 47.2163C90.5621 47.856 89.7735 48.166 88.8165 48.1465C88.0597 48.127 87.4981 47.856 87.1319 47.3335C86.7706 46.811 86.6363 46.0981 86.7291 45.1948L87.5787 40.0752H88.9044L88.0475 45.2168C88.023 45.4316 88.0182 45.6416 88.0328 45.8467C88.0572 46.1982 88.1622 46.4741 88.3478 46.6743C88.5333 46.8745 88.7921 46.9819 89.1241 46.9966C90.0714 47.0259 90.8038 46.6426 91.3214 45.8467L92.3175 40.0752H93.6432L92.2662 48H91.0138L91.1822 47.2163ZM99.3083 45.854C99.3815 45.3071 99.0812 44.9214 98.4074 44.6968L97.0305 44.2939C95.8684 43.8936 95.3068 43.2295 95.3459 42.3018C95.3801 41.6035 95.6975 41.0322 96.298 40.5879C96.9035 40.1387 97.614 39.9189 98.4294 39.9287C99.2302 39.9385 99.8796 40.1729 100.378 40.6318C100.881 41.0859 101.122 41.6792 101.103 42.4116L99.7844 42.4043C99.7941 42.0088 99.6696 41.6865 99.4108 41.4375C99.1521 41.1885 98.8078 41.0591 98.3781 41.0493C97.9191 41.0396 97.5236 41.1519 97.1916 41.3862C96.884 41.606 96.7058 41.894 96.6569 42.2505C96.5935 42.7095 96.8742 43.0439 97.4992 43.2539L98.1657 43.437C99.0739 43.6714 99.7185 43.9766 100.099 44.3525C100.48 44.7285 100.656 45.1948 100.627 45.7515C100.597 46.2446 100.436 46.6743 100.143 47.0405C99.8503 47.4067 99.4597 47.6875 98.9714 47.8828C98.4831 48.0732 97.9631 48.1611 97.4113 48.1465C96.5715 48.1367 95.8781 47.8926 95.3312 47.4141C94.7844 46.9307 94.5207 46.3105 94.5402 45.5537L95.8659 45.561C95.8659 46.0054 96.0075 46.3618 96.2907 46.6304C96.5739 46.8989 96.9621 47.0332 97.4553 47.0332C97.9387 47.043 98.3562 46.9429 98.7077 46.7329C99.0593 46.5181 99.2595 46.2251 99.3083 45.854ZM105.552 48.1465C104.566 48.127 103.794 47.7632 103.238 47.0552C102.681 46.3472 102.447 45.4414 102.534 44.3379L102.571 44.0229C102.654 43.2368 102.886 42.519 103.267 41.8696C103.653 41.2202 104.121 40.7319 104.673 40.4048C105.225 40.0728 105.821 39.9141 106.46 39.9287C107.276 39.9482 107.915 40.2192 108.379 40.7417C108.843 41.2642 109.097 41.9722 109.141 42.8657C109.156 43.1831 109.146 43.5005 109.112 43.8179L109.031 44.4258H103.853C103.765 45.1436 103.882 45.7539 104.204 46.2568C104.532 46.7598 105.017 47.021 105.662 47.0405C106.443 47.0601 107.166 46.7085 107.83 45.9858L108.592 46.6304C108.26 47.1089 107.83 47.4849 107.303 47.7583C106.78 48.0269 106.197 48.1562 105.552 48.1465ZM106.394 41.0347C105.847 41.02 105.369 41.2056 104.959 41.5913C104.554 41.9771 104.231 42.5508 103.992 43.3125L107.845 43.3198L107.874 43.2026C107.952 42.5874 107.852 42.0771 107.574 41.6719C107.3 41.2617 106.907 41.0493 106.394 41.0347ZM115.084 47.2163C114.464 47.856 113.676 48.166 112.719 48.1465C111.962 48.127 111.4 47.856 111.034 47.3335C110.673 46.811 110.538 46.0981 110.631 45.1948L111.481 40.0752H112.807L111.95 45.2168C111.925 45.4316 111.92 45.6416 111.935 45.8467C111.959 46.1982 112.064 46.4741 112.25 46.6743C112.435 46.8745 112.694 46.9819 113.026 46.9966C113.974 47.0259 114.706 46.6426 115.224 45.8467L116.22 40.0752H117.545L116.168 48H114.916L115.084 47.2163ZM120.918 40.0679L120.75 40.9541C121.414 40.251 122.217 39.9092 123.159 39.9287C123.662 39.9385 124.087 40.0532 124.434 40.2729C124.785 40.4927 125.027 40.8027 125.159 41.2031C125.901 40.334 126.777 39.9092 127.788 39.9287C128.579 39.9482 129.163 40.2144 129.539 40.7271C129.915 41.2397 130.054 41.9282 129.956 42.7925L129.084 48H127.766L128.63 42.7778C128.66 42.5239 128.66 42.292 128.63 42.082C128.538 41.418 128.103 41.0786 127.327 41.064C126.843 41.0542 126.404 41.2056 126.008 41.5181C125.618 41.8257 125.366 42.231 125.254 42.7339L124.353 48H123.02L123.899 42.7852C123.962 42.2432 123.879 41.8257 123.65 41.5327C123.425 41.2397 123.074 41.0884 122.595 41.0786C121.77 41.0591 121.113 41.4351 120.625 42.2065L119.622 48H118.296L119.673 40.0752L120.918 40.0679ZM135.405 45.1875C135.478 44.2793 136.02 43.4688 137.031 42.7559L137.866 42.1992L137.551 41.6353C137.199 40.9907 137.043 40.3926 137.082 39.8408C137.141 39.0352 137.434 38.3882 137.961 37.8999C138.488 37.4067 139.153 37.1699 139.953 37.1895C140.612 37.1992 141.157 37.4141 141.587 37.834C142.016 38.249 142.212 38.7666 142.173 39.3867C142.129 40.2266 141.609 40.9956 140.612 41.6938L139.536 42.4116L141.36 45.2021C141.804 44.543 142.082 43.835 142.195 43.0781H143.374C143.242 44.3232 142.8 45.3657 142.048 46.2056L143.198 48H141.718L141.184 47.1724C140.334 47.8364 139.399 48.1587 138.379 48.1392C137.456 48.1294 136.714 47.8511 136.152 47.3042C135.591 46.7524 135.342 46.0469 135.405 45.1875ZM138.423 47.0405C139.077 47.0552 139.77 46.7793 140.503 46.2129L138.518 43.1074L138.203 43.3271C137.329 43.9326 136.845 44.5552 136.753 45.1948C136.679 45.7222 136.797 46.1592 137.104 46.5059C137.412 46.8525 137.851 47.0308 138.423 47.0405ZM138.386 39.7896C138.347 40.1997 138.467 40.6514 138.745 41.1445L138.943 41.4888L140.063 40.7344C140.586 40.3438 140.874 39.8921 140.927 39.3794C140.957 39.0669 140.871 38.8081 140.671 38.603C140.471 38.3979 140.205 38.2954 139.873 38.2954C139.467 38.2954 139.128 38.4443 138.855 38.7422C138.581 39.0352 138.425 39.3843 138.386 39.7896ZM148.42 48L150.273 37.3359L153.4 37.3433C154.489 37.3433 155.305 37.5874 155.847 38.0757C156.389 38.564 156.625 39.2451 156.557 40.1191C156.469 41.1396 155.827 41.9087 154.631 42.4263C155.109 42.6118 155.466 42.9292 155.7 43.3784C155.939 43.8276 156.037 44.3232 155.993 44.8652C155.92 45.8271 155.534 46.5913 154.836 47.1577C154.138 47.7192 153.234 48 152.126 48H148.42ZM150.661 43.0122L149.995 46.8501L152.17 46.8574C152.834 46.8574 153.391 46.6792 153.84 46.3228C154.289 45.9663 154.55 45.4854 154.623 44.8799C154.692 44.3037 154.592 43.8545 154.323 43.5322C154.055 43.21 153.632 43.0391 153.056 43.0195L150.661 43.0122ZM150.859 41.8843L152.844 41.8916C153.464 41.8916 153.986 41.7329 154.411 41.4155C154.841 41.0981 155.092 40.6611 155.165 40.1045C155.229 39.5869 155.126 39.1963 154.858 38.9326C154.594 38.6689 154.155 38.5249 153.539 38.5005L151.445 38.4932L150.859 41.8843ZM161.907 39.9287C162.571 39.9385 163.14 40.1191 163.614 40.4707C164.087 40.8223 164.437 41.3081 164.661 41.9282C164.891 42.5435 164.969 43.2173 164.896 43.9497L164.881 44.1108C164.788 44.8823 164.559 45.5806 164.192 46.2056C163.826 46.8257 163.353 47.3091 162.771 47.6558C162.19 48.0024 161.553 48.166 160.86 48.1465C160.201 48.1367 159.632 47.9561 159.153 47.6045C158.68 47.2529 158.333 46.7744 158.113 46.1689C157.894 45.5635 157.815 44.897 157.879 44.1694C157.952 43.3491 158.174 42.6118 158.545 41.9575C158.917 41.3032 159.393 40.7979 159.974 40.4414C160.56 40.0801 161.204 39.9092 161.907 39.9287ZM159.212 44.1768C159.178 44.4844 159.178 44.8042 159.212 45.1362C159.261 45.7124 159.432 46.1714 159.725 46.5132C160.022 46.855 160.418 47.0332 160.911 47.0479C161.351 47.0625 161.756 46.9551 162.127 46.7256C162.498 46.4912 162.811 46.1396 163.064 45.6709C163.318 45.2021 163.482 44.6821 163.555 44.1108C163.594 43.6616 163.602 43.2832 163.577 42.9756C163.519 42.3848 163.34 41.9185 163.042 41.5767C162.745 41.2349 162.349 41.0542 161.856 41.0347C161.172 41.02 160.591 41.2886 160.113 41.8403C159.634 42.3921 159.339 43.1147 159.227 44.0083L159.212 44.1768ZM169.535 38.1562L169.198 40.0752H170.641L170.458 41.1226H169.023L168.195 46.0518C168.18 46.1787 168.178 46.2959 168.188 46.4033C168.222 46.7842 168.429 46.9746 168.81 46.9746C168.971 46.9746 169.186 46.9502 169.455 46.9014L169.352 48.0073C169.035 48.0952 168.713 48.1392 168.385 48.1392C167.858 48.1294 167.463 47.9365 167.199 47.5605C166.935 47.1797 166.833 46.6694 166.891 46.0298L167.697 41.1226H166.298L166.481 40.0752H167.88L168.217 38.1562H169.535ZM175.867 48C175.833 47.8584 175.816 47.7192 175.816 47.5825L175.838 47.165C175.11 47.8389 174.339 48.166 173.523 48.1465C172.825 48.1367 172.256 47.917 171.817 47.4873C171.382 47.0527 171.184 46.5107 171.223 45.8613C171.272 45.0215 171.638 44.3672 172.322 43.8984C173.01 43.4248 173.914 43.188 175.032 43.188L176.416 43.1953L176.504 42.5654C176.553 42.0918 176.46 41.7183 176.226 41.4448C175.996 41.1665 175.65 41.0225 175.186 41.0127C174.732 41.0029 174.329 41.1152 173.977 41.3496C173.631 41.5791 173.418 41.8843 173.34 42.2651L172.007 42.2725C172.051 41.8086 172.232 41.3984 172.549 41.042C172.866 40.6807 173.274 40.4023 173.772 40.207C174.27 40.0068 174.785 39.9116 175.318 39.9214C176.143 39.9409 176.785 40.1924 177.244 40.6758C177.703 41.1543 177.896 41.7915 177.822 42.5874L177.178 46.5132L177.141 47.0771C177.132 47.3457 177.161 47.6118 177.229 47.8755L177.215 48H175.867ZM173.787 46.9746C174.212 46.9844 174.612 46.8843 174.988 46.6743C175.369 46.4595 175.696 46.1641 175.969 45.7881L176.255 44.1548L175.252 44.1475C174.417 44.1475 173.777 44.2793 173.333 44.543C172.888 44.8066 172.637 45.1802 172.578 45.6636C172.534 46.0347 172.62 46.3447 172.835 46.5938C173.054 46.8379 173.372 46.9648 173.787 46.9746ZM181.796 40.0679L181.605 41.0713C182.318 40.29 183.129 39.9092 184.037 39.9287C184.784 39.9482 185.336 40.207 185.692 40.7051C186.049 41.2031 186.18 41.9038 186.088 42.8071L185.223 48H183.898L184.769 42.7852C184.799 42.5459 184.801 42.3237 184.777 42.1187C184.694 41.4351 184.291 41.0859 183.568 41.0713C182.772 41.0566 182.074 41.4814 181.473 42.3457L180.492 48H179.166L180.543 40.0752L181.796 40.0679ZM188.852 48H187.534L188.911 40.0752H190.229L188.852 48ZM189.944 37.1821C190.168 37.1724 190.354 37.2407 190.5 37.3872C190.652 37.5288 190.727 37.7168 190.727 37.9512C190.723 38.1807 190.647 38.3687 190.5 38.5151C190.359 38.6616 190.173 38.7397 189.944 38.7495C189.714 38.7593 189.526 38.6934 189.38 38.5518C189.233 38.4102 189.162 38.2246 189.167 37.9951C189.172 37.7656 189.246 37.5752 189.387 37.4238C189.529 37.2725 189.714 37.1919 189.944 37.1821ZM194.518 47.0479C194.991 47.0576 195.418 46.9209 195.799 46.6377C196.18 46.3496 196.429 45.9736 196.546 45.5098L197.799 45.5024C197.726 46.0005 197.525 46.4546 197.198 46.8647C196.876 47.2749 196.468 47.5947 195.975 47.8242C195.482 48.0537 194.977 48.1611 194.459 48.1465C193.8 48.1367 193.241 47.9658 192.782 47.6338C192.328 47.2969 191.993 46.8306 191.778 46.2349C191.563 45.6343 191.49 44.9604 191.559 44.2134L191.595 43.8472C191.688 43.0854 191.91 42.4043 192.262 41.8037C192.613 41.2031 193.072 40.7368 193.639 40.4048C194.205 40.0679 194.83 39.9092 195.514 39.9287C196.344 39.9482 197.008 40.2266 197.506 40.7637C198.004 41.3008 198.253 41.9819 198.253 42.8071L197.015 42.7998C197.005 42.2822 196.861 41.8647 196.583 41.5474C196.305 41.2251 195.929 41.0542 195.455 41.0347C194.767 41.02 194.193 41.2764 193.734 41.8037C193.28 42.3311 192.997 43.0684 192.884 44.0156L192.862 44.2061C192.833 44.5186 192.828 44.8408 192.848 45.1729C192.882 45.7441 193.043 46.1958 193.331 46.5278C193.619 46.8599 194.015 47.0332 194.518 47.0479ZM203.859 48C203.825 47.8584 203.808 47.7192 203.808 47.5825L203.83 47.165C203.103 47.8389 202.331 48.166 201.516 48.1465C200.817 48.1367 200.249 47.917 199.809 47.4873C199.375 47.0527 199.177 46.5107 199.216 45.8613C199.265 45.0215 199.631 44.3672 200.315 43.8984C201.003 43.4248 201.906 43.188 203.025 43.188L204.409 43.1953L204.497 42.5654C204.546 42.0918 204.453 41.7183 204.218 41.4448C203.989 41.1665 203.642 41.0225 203.178 41.0127C202.724 41.0029 202.321 41.1152 201.97 41.3496C201.623 41.5791 201.411 41.8843 201.333 42.2651L200 42.2725C200.044 41.8086 200.224 41.3984 200.542 41.042C200.859 40.6807 201.267 40.4023 201.765 40.207C202.263 40.0068 202.778 39.9116 203.31 39.9214C204.135 39.9409 204.777 40.1924 205.236 40.6758C205.695 41.1543 205.888 41.7915 205.815 42.5874L205.171 46.5132L205.134 47.0771C205.124 47.3457 205.153 47.6118 205.222 47.8755L205.207 48H203.859ZM201.779 46.9746C202.204 46.9844 202.605 46.8843 202.981 46.6743C203.361 46.4595 203.689 46.1641 203.962 45.7881L204.248 44.1548L203.244 44.1475C202.409 44.1475 201.77 44.2793 201.325 44.543C200.881 44.8066 200.629 45.1802 200.571 45.6636C200.527 46.0347 200.612 46.3447 200.827 46.5938C201.047 46.8379 201.364 46.9648 201.779 46.9746ZM208.594 48H207.276L209.224 36.75H210.55L208.594 48ZM222.913 46.5938C222.557 47.0967 222.037 47.4849 221.353 47.7583C220.674 48.0269 219.898 48.1562 219.024 48.1465C218.326 48.1318 217.715 47.9683 217.193 47.6558C216.67 47.3433 216.26 46.8965 215.962 46.3154C215.664 45.7295 215.494 45.0654 215.45 44.3232C215.415 43.7422 215.486 42.9561 215.662 41.9648C215.843 40.9736 216.155 40.1167 216.6 39.394C217.044 38.6714 217.598 38.1196 218.262 37.7388C218.931 37.3579 219.695 37.1748 220.555 37.1895C221.546 37.209 222.334 37.5044 222.92 38.0757C223.511 38.6421 223.848 39.4404 223.931 40.4707H222.569C222.515 39.7969 222.312 39.2793 221.961 38.918C221.609 38.5566 221.123 38.3662 220.503 38.3467C219.585 38.3125 218.816 38.6421 218.196 39.3354C217.581 40.0288 217.176 41.042 216.98 42.375L216.841 43.4004L216.819 43.957C216.819 44.9189 217.017 45.6636 217.413 46.1909C217.808 46.7134 218.362 46.9795 219.075 46.9893C220.105 47.0137 220.923 46.7598 221.529 46.2275L221.968 43.8325H219.566L219.771 42.6899H223.521L222.913 46.5938ZM229.728 48C229.694 47.8584 229.677 47.7192 229.677 47.5825L229.699 47.165C228.971 47.8389 228.2 48.166 227.384 48.1465C226.686 48.1367 226.117 47.917 225.678 47.4873C225.243 47.0527 225.045 46.5107 225.084 45.8613C225.133 45.0215 225.5 44.3672 226.183 43.8984C226.872 43.4248 227.775 43.188 228.893 43.188L230.277 43.1953L230.365 42.5654C230.414 42.0918 230.321 41.7183 230.087 41.4448C229.857 41.1665 229.511 41.0225 229.047 41.0127C228.593 41.0029 228.19 41.1152 227.838 41.3496C227.492 41.5791 227.279 41.8843 227.201 42.2651L225.868 42.2725C225.912 41.8086 226.093 41.3984 226.41 41.042C226.728 40.6807 227.135 40.4023 227.633 40.207C228.131 40.0068 228.646 39.9116 229.179 39.9214C230.004 39.9409 230.646 40.1924 231.105 40.6758C231.564 41.1543 231.757 41.7915 231.684 42.5874L231.039 46.5132L231.002 47.0771C230.993 47.3457 231.022 47.6118 231.09 47.8755L231.076 48H229.728ZM227.648 46.9746C228.073 46.9844 228.473 46.8843 228.849 46.6743C229.23 46.4595 229.557 46.1641 229.831 45.7881L230.116 44.1548L229.113 44.1475C228.278 44.1475 227.638 44.2793 227.194 44.543C226.75 44.8066 226.498 45.1802 226.439 45.6636C226.396 46.0347 226.481 46.3447 226.696 46.5938C226.916 46.8379 227.233 46.9648 227.648 46.9746ZM237.957 41.2837L237.334 41.2178C236.484 41.2178 235.816 41.6011 235.327 42.3677L234.353 48H233.027L234.404 40.0752L235.686 40.0679L235.488 40.9907C236.05 40.2534 236.712 39.8945 237.473 39.9141C237.634 39.9141 237.844 39.9507 238.103 40.0239L237.957 41.2837ZM238.407 44.0229C238.505 43.2173 238.727 42.4897 239.073 41.8403C239.42 41.1909 239.847 40.7051 240.355 40.3828C240.863 40.0605 241.422 39.9067 242.032 39.9214C242.916 39.9409 243.595 40.2632 244.069 40.8882L244.83 36.75H246.156L244.208 48H242.999L243.138 47.1504C242.513 47.834 241.742 48.166 240.824 48.1465C240.092 48.127 239.508 47.8413 239.073 47.2896C238.639 46.7329 238.404 45.9883 238.37 45.0557C238.356 44.7676 238.368 44.4233 238.407 44.0229ZM239.681 44.7847C239.667 45.4829 239.791 46.0249 240.055 46.4106C240.319 46.7964 240.704 46.9941 241.212 47.0039C241.979 47.0381 242.66 46.6523 243.256 45.8467L243.885 42.1846C243.592 41.4619 243.06 41.0908 242.289 41.0713C241.766 41.0566 241.305 41.2153 240.904 41.5474C240.509 41.8745 240.206 42.3359 239.996 42.9316C239.791 43.5225 239.686 44.1401 239.681 44.7847ZM249.88 48.1465C248.894 48.127 248.122 47.7632 247.566 47.0552C247.009 46.3472 246.775 45.4414 246.863 44.3379L246.899 44.0229C246.982 43.2368 247.214 42.519 247.595 41.8696C247.981 41.2202 248.45 40.7319 249.001 40.4048C249.553 40.0728 250.149 39.9141 250.788 39.9287C251.604 39.9482 252.243 40.2192 252.707 40.7417C253.171 41.2642 253.425 41.9722 253.469 42.8657C253.484 43.1831 253.474 43.5005 253.44 43.8179L253.359 44.4258H248.181C248.093 45.1436 248.21 45.7539 248.533 46.2568C248.86 46.7598 249.346 47.021 249.99 47.0405C250.771 47.0601 251.494 46.7085 252.158 45.9858L252.92 46.6304C252.588 47.1089 252.158 47.4849 251.631 47.7583C251.108 48.0269 250.525 48.1562 249.88 48.1465ZM250.722 41.0347C250.176 41.02 249.697 41.2056 249.287 41.5913C248.882 41.9771 248.559 42.5508 248.32 43.3125L252.173 43.3198L252.202 43.2026C252.28 42.5874 252.18 42.0771 251.902 41.6719C251.628 41.2617 251.235 41.0493 250.722 41.0347ZM257.01 40.0679L256.82 41.0713C257.533 40.29 258.343 39.9092 259.251 39.9287C259.998 39.9482 260.55 40.207 260.907 40.7051C261.263 41.2031 261.395 41.9038 261.302 42.8071L260.438 48H259.112L259.984 42.7852C260.013 42.5459 260.016 42.3237 259.991 42.1187C259.908 41.4351 259.505 41.0859 258.783 41.0713C257.987 41.0566 257.288 41.4814 256.688 42.3457L255.706 48H254.381L255.758 40.0752L257.01 40.0679Z" fill="#333333"/>
</g>
<defs>
<clipPath id="clip0_405_1365">
<rect width="190" height="45" fill="white" transform="translate(73 7)"/>
</clipPath>
</defs>
</svg>
