<svg width="262" height="60" viewBox="0 0 262 60" fill="none" xmlns="http://www.w3.org/2000/svg">
<path fill-rule="evenodd" clip-rule="evenodd" d="M29.5 59.7405C45.7924 59.7405 59 46.5329 59 30.2405C59 13.9481 45.7924 0.740479 29.5 0.740479C13.2076 0.740479 0 13.9481 0 30.2405C0 38.6738 3.53873 46.2805 9.2123 51.6569C9.94271 51.199 10.668 50.7358 11.3878 50.2675C11.4599 49.8629 11.5463 49.3729 11.643 48.8155C11.6936 48.531 11.7479 48.2296 11.8115 47.9151C11.8608 47.662 11.9174 47.4017 11.9761 47.1316L12.0006 47.0187C12.2437 45.9079 12.4987 44.6598 12.7073 43.3517H12.6186C10.2902 43.3947 8.15457 42.7658 6.92111 41.377C6.35773 40.7444 5.959 39.9526 5.84109 39.0037C5.71568 37.9892 5.91036 36.7932 6.48871 35.41L6.57851 35.1536L6.97161 35.2397C8.47459 35.5317 10.3987 35.921 11.7089 37.6205C12.3123 38.4015 12.786 39.4636 13.0219 40.9311C13.0438 40.7057 13.0634 40.48 13.0805 40.2543C13.1819 38.923 13.2057 37.5943 13.097 36.3442C10.5628 35.3454 8.52982 32.3804 7.93935 29.1454C7.711 27.8932 7.69037 26.5999 7.95054 25.3889C8.34734 23.5415 9.35812 21.8813 11.0726 20.7658L11.2523 20.6384L11.5349 20.8762C13.7623 22.6936 14.8796 25.2691 15.1828 28.056C15.4692 30.7064 15.0088 33.5476 14.0655 36.1081L13.9182 36.4907C14.1029 37.7084 14.1735 39.001 14.1624 40.301C14.1399 42.7773 13.8368 45.2761 13.4568 47.3144C13.3988 47.6325 13.3351 47.9396 13.2658 48.2334C13.1891 48.5535 13.1068 48.8567 13.0226 49.1412L13.005 49.1998C18.021 45.8397 22.7398 42.2172 26.9851 38.3143C26.9736 38.1562 26.9557 37.8487 26.952 37.4279C26.9501 37.2277 26.9502 37.0068 26.9689 36.7635C26.9871 36.5505 27.0192 36.3242 27.0529 36.0865L27.0529 36.0864L27.0529 36.0864L27.0529 36.0863L27.053 36.0861L27.053 36.0858L27.053 36.0855L27.0531 36.0854L27.0531 36.0852L27.0531 36.0848L27.0532 36.0845L27.0533 36.0841L27.0533 36.0835C27.0749 35.9316 27.0971 35.7751 27.1167 35.6143C27.1903 35.0242 27.2657 34.3899 27.3061 33.7463C25.7672 32.7111 24.46 31.2463 23.609 29.6941C23.1935 28.9379 22.8866 28.1612 22.7069 27.4162C22.5141 26.6133 22.4504 25.8458 22.5515 25.172C22.7443 23.8768 23.4201 22.8941 24.6966 22.5741C25.6044 22.2278 26.5702 22.5648 27.4124 23.3696C28.2584 24.1782 28.9734 25.4771 29.3534 26.9689C29.886 29.0736 29.7254 31.545 28.3819 33.5699C28.4182 33.8844 28.4459 34.2 28.4662 34.5118C28.5018 35.0322 28.5186 35.5375 28.5073 36.0092C28.4987 36.3408 28.4884 36.6531 28.4511 36.9371C31.2038 34.2936 33.7374 31.5248 35.9996 28.6254C36.6081 27.8471 37.1078 27.1195 37.5518 26.3705L37.3541 25.9936C36.2835 24.0115 35.6451 21.4211 35.6769 18.9879C35.6919 17.8929 35.8417 16.8298 36.1374 15.8752C36.4425 14.8925 36.8879 14.0165 37.4944 13.3371C38.4433 12.2702 39.7368 11.6396 41.4101 11.7537C42.4751 11.7313 43.2107 12.362 43.6374 13.3989C44.242 14.8663 44.182 17.2172 43.5437 19.5175C42.7561 22.3516 41.0671 25.0606 38.7957 26.0718C38.252 27.1521 37.634 28.1517 36.8213 29.2487C36.3925 29.827 35.9534 30.4008 35.5044 30.9699C35.7558 30.8529 36.017 30.7389 36.286 30.628C36.7154 30.4517 37.1631 30.2862 37.6236 30.1395C38.4807 28.4678 39.989 26.9842 41.6692 26.0197C42.4422 25.5761 43.2507 25.243 44.035 25.0465C44.8622 24.8387 45.6634 24.7676 46.3728 24.8724C47.6904 25.067 48.7142 25.7596 49.0661 27.0979C49.4348 28.0525 49.4292 28.8442 49.1821 29.4918C48.7872 30.5343 47.7241 31.2231 46.3447 31.6068C43.6737 32.3518 39.803 31.9324 37.8883 31.1519L37.887 31.1514C37.8058 31.1911 37.7251 31.2313 37.6449 31.2718C36.8081 31.6959 36.0595 32.1963 35.3941 32.641L35.394 32.6411C35.1813 32.7832 34.9771 32.9197 34.7812 33.0462C34.431 33.2729 34.1062 33.4579 33.8265 33.6172L33.8135 33.6246C33.3308 33.8975 32.993 34.0692 32.8695 34.1307C29.743 37.6882 26.2326 41.0562 22.4375 44.2389C22.5555 44.2221 22.6783 44.2062 22.8058 44.1919C23.0123 44.1691 23.2294 44.1483 23.455 44.1267C24.2293 44.0525 25.1041 43.9686 25.9969 43.7614C26.2616 43.6996 26.5278 43.6312 26.7932 43.5544L26.8956 43.3311C28.1122 40.5891 30.2833 39.0449 32.7277 38.3467C33.7235 38.0641 34.7642 37.92 35.7974 37.9031C37.3958 37.8788 38.9643 38.1465 40.3232 38.519L40.6956 38.605L40.5291 39.058C39.3967 42.3223 37.3358 43.9544 35.1123 44.6581C32.4327 45.5056 29.489 44.9757 27.5547 44.2489C26.8491 44.606 26.1183 44.8902 25.4055 45.1165C24.8234 45.3018 24.26 45.4496 23.7285 45.5507C23.3223 45.6293 22.9387 45.6949 22.5868 45.7155C22.2218 45.7342 21.898 45.7155 21.6228 45.6911C21.2466 45.657 20.969 45.6105 20.8091 45.5792C17.6043 48.1689 14.2142 50.6321 10.6952 52.971C15.8003 57.1992 22.3534 59.7405 29.5 59.7405ZM13.4697 34.4419C14.1311 32.3974 14.4544 30.2139 14.2919 28.1384C14.0991 25.6677 13.2232 23.3525 11.4001 21.6249C10.1311 22.6805 9.47978 24.1087 9.22523 25.6304C9.04555 26.6972 9.0642 27.8146 9.25699 28.9077C9.70457 31.4511 11.0556 33.8732 12.9181 34.9872C12.7767 34.2093 12.5691 33.4778 12.2795 32.8142C12.2196 32.6907 12.272 32.541 12.3955 32.4811C12.5209 32.4212 12.6707 32.4736 12.7306 32.5972C13.029 33.1617 13.2731 33.7814 13.4697 34.4419ZM27.5828 30.424C27.7531 30.7827 27.8942 31.1776 28.0107 31.5949C28.6114 30.175 28.6624 28.595 28.38 27.1897C28.06 25.5969 27.3263 24.2138 26.4223 23.5362C25.945 23.1787 25.4265 23.0177 24.9081 23.1824C24.1968 23.5081 23.8712 24.107 23.7663 24.8351C23.6728 25.4883 23.7981 26.2389 24.0508 27.0437C24.2511 27.6763 24.5393 28.3334 24.8987 28.9866C25.5075 30.0939 26.3253 31.1905 27.3172 32.0759C27.2882 31.5549 27.2226 31.0575 27.098 30.6055C27.0493 30.4726 27.1167 30.3229 27.2496 30.2724C27.3843 30.2237 27.5323 30.2911 27.5828 30.424ZM29.6318 42.8761C29.3767 43.0974 29.1091 43.3029 28.8324 43.4938C30.5232 44.0443 32.7581 44.367 34.8521 43.7823C36.7819 43.2414 38.5805 41.9217 39.7279 39.3069C38.2792 39.0823 36.634 39.0543 35.0113 39.264C33.9088 39.4062 32.8119 39.6532 31.7975 40.1043C30.4804 40.6901 29.2982 41.5919 28.4335 42.9465C28.7386 42.8029 29.0363 42.6419 29.323 42.4605C29.4372 42.3763 29.6 42.4007 29.6843 42.5149C29.7704 42.6291 29.746 42.79 29.6318 42.8761ZM39.6958 30.4041C41.5504 30.9143 44.1612 31.1481 46.1163 30.7065C47.8944 30.3022 49.111 29.3121 48.4578 27.3149C48.1096 26.5569 47.4807 26.2032 46.7264 26.089C46.0377 25.9842 45.2478 26.1171 44.4167 26.3866C43.7523 26.6 43.071 26.9106 42.4028 27.2962C41.3332 27.9121 40.3047 28.7217 39.5237 29.6734C40.0549 29.5845 40.5928 29.5315 41.13 29.5256C41.2723 29.5143 41.3976 29.6191 41.4089 29.7614C41.4201 29.9036 41.3153 30.029 41.1731 30.0402C40.6721 30.1197 40.1785 30.2456 39.6958 30.4041ZM40.5553 21.8068C40.2633 22.6169 39.9916 23.3425 39.7202 24.0128C41.0214 22.8876 41.9962 21.0745 42.5855 19.2312C43.2481 17.1611 43.4258 15.0292 42.9336 13.6722C42.6584 12.9179 42.1737 12.4163 41.4101 12.3994C40.2833 12.4799 39.4373 12.9441 38.7878 13.6291C38.1495 14.3029 37.7414 15.2164 37.4794 16.2533C37.2642 17.1068 37.1612 18.0408 37.1481 19.0066C37.1257 21.0187 37.5076 23.158 38.2806 24.8968L38.3207 24.8812L38.3603 24.8653C38.8361 23.8897 39.2807 22.8157 39.788 21.5185C39.8666 21.3052 40.1043 21.1984 40.3158 21.277C40.5292 21.3575 40.6358 21.5953 40.5553 21.8068ZM7.24304 35.9715C6.96977 37.0777 6.96602 38.0098 7.12137 38.7996C7.25427 39.4735 7.52565 40.0332 7.92619 40.4918C8.83959 41.5399 10.3519 42.0771 12.057 42.1987C12.0233 40.3289 11.6153 39.0467 10.9883 38.1502C10 36.7352 8.5027 36.2841 7.24304 35.9715Z" fill="#343D33"/>
<g clip-path="url(#clip0_1206_1867)">
<path d="M75.8076 12.3889H78.3232L83.0513 25.0007L87.7681 12.3889H90.2837L84.0396 28.7405H82.0405L75.8076 12.3889ZM74.6621 12.3889H77.0542L77.4697 23.3049V28.7405H74.6621V12.3889ZM89.0371 12.3889H91.4404V28.7405H88.6216V23.3049L89.0371 12.3889ZM100.097 12.3889V28.7405H97.278V12.3889H100.097ZM114.503 24.5291C114.503 24.1921 114.451 23.8927 114.346 23.6306C114.249 23.3686 114.073 23.129 113.818 22.9119C113.564 22.6947 113.204 22.4851 112.74 22.283C112.283 22.0733 111.699 21.8599 110.988 21.6428C110.21 21.4032 109.491 21.1375 108.832 20.8455C108.181 20.546 107.612 20.2016 107.125 19.8123C106.638 19.4154 106.26 18.9625 105.991 18.4534C105.721 17.9368 105.586 17.3416 105.586 16.6677C105.586 16.0014 105.725 15.3949 106.002 14.8484C106.286 14.3018 106.687 13.8302 107.204 13.4333C107.728 13.0291 108.345 12.7183 109.057 12.5012C109.768 12.2766 110.554 12.1643 111.415 12.1643C112.628 12.1643 113.672 12.3889 114.548 12.8381C115.432 13.2874 116.109 13.8901 116.581 14.6462C117.06 15.4024 117.3 16.2372 117.3 17.1506H114.503C114.503 16.6116 114.387 16.1361 114.155 15.7244C113.931 15.3051 113.586 14.9757 113.122 14.7361C112.665 14.4965 112.085 14.3767 111.381 14.3767C110.715 14.3767 110.161 14.4778 109.719 14.6799C109.277 14.8821 108.948 15.1554 108.731 15.4998C108.514 15.8442 108.405 16.2335 108.405 16.6677C108.405 16.9747 108.476 17.2555 108.619 17.51C108.761 17.7571 108.978 17.9892 109.27 18.2063C109.562 18.4159 109.929 18.6143 110.371 18.8015C110.812 18.9887 111.333 19.1684 111.932 19.3406C112.837 19.6101 113.627 19.9096 114.301 20.239C114.975 20.561 115.537 20.9278 115.986 21.3396C116.435 21.7514 116.772 22.2193 116.996 22.7434C117.221 23.26 117.333 23.8477 117.333 24.5066C117.333 25.1954 117.195 25.8168 116.918 26.3708C116.641 26.9174 116.244 27.3853 115.727 27.7747C115.218 28.1565 114.604 28.4522 113.886 28.6619C113.174 28.864 112.381 28.9651 111.505 28.9651C110.719 28.9651 109.944 28.8603 109.18 28.6506C108.424 28.441 107.735 28.1228 107.114 27.696C106.492 27.2618 105.998 26.7227 105.631 26.0789C105.264 25.4275 105.081 24.6676 105.081 23.7991H107.9C107.9 24.3306 107.99 24.7836 108.169 25.158C108.357 25.5323 108.615 25.8393 108.944 26.0789C109.274 26.311 109.656 26.4832 110.09 26.5955C110.531 26.7078 111.003 26.7639 111.505 26.7639C112.164 26.7639 112.714 26.6703 113.156 26.4832C113.605 26.296 113.942 26.0339 114.166 25.697C114.391 25.3601 114.503 24.9708 114.503 24.5291ZM128.854 12.3889V28.7405H126.057V12.3889H128.854ZM133.986 12.3889V14.635H120.97V12.3889H133.986ZM158.486 20.385V26.6292C158.254 26.9361 157.891 27.273 157.397 27.6399C156.91 27.9993 156.263 28.31 155.454 28.572C154.646 28.8341 153.639 28.9651 152.433 28.9651C151.407 28.9651 150.468 28.7929 149.614 28.4485C148.761 28.0966 148.023 27.5837 147.402 26.9099C146.788 26.2361 146.312 25.4163 145.976 24.4504C145.639 23.4771 145.47 22.3691 145.47 21.1262V19.9919C145.47 18.7566 145.624 17.656 145.931 16.6902C146.245 15.7169 146.694 14.8933 147.278 14.2195C147.862 13.5457 148.566 13.0365 149.39 12.6921C150.221 12.3403 151.16 12.1643 152.208 12.1643C153.549 12.1643 154.657 12.3889 155.533 12.8381C156.416 13.2799 157.097 13.8938 157.577 14.6799C158.056 15.4661 158.359 16.3645 158.486 17.3752H155.724C155.634 16.8062 155.458 16.2971 155.196 15.8479C154.941 15.3987 154.574 15.0468 154.095 14.7922C153.624 14.5302 153.01 14.3992 152.253 14.3992C151.602 14.3992 151.029 14.5227 150.535 14.7698C150.041 15.0168 149.629 15.38 149.3 15.8591C148.978 16.3383 148.735 16.9223 148.57 17.6111C148.405 18.2999 148.323 19.086 148.323 19.9695V21.1262C148.323 22.0247 148.416 22.822 148.604 23.5183C148.798 24.2146 149.075 24.8023 149.435 25.2815C149.801 25.7607 150.247 26.1238 150.771 26.3708C151.295 26.6104 151.887 26.7302 152.545 26.7302C153.189 26.7302 153.717 26.6778 154.129 26.573C154.541 26.4607 154.866 26.3297 155.106 26.1799C155.353 26.0227 155.544 25.873 155.679 25.7307V22.4851H152.276V20.385H158.486ZM170.276 14.5676L165.391 28.7405H162.437L168.592 12.3889H170.478L170.276 14.5676ZM174.364 28.7405L169.467 14.5676L169.254 12.3889H171.152L177.329 28.7405H174.364ZM174.128 22.676V24.9109H165.234V22.676H174.128ZM181.459 12.3889H187.243C188.486 12.3889 189.545 12.5761 190.421 12.9504C191.297 13.3248 191.967 13.8788 192.432 14.6125C192.903 15.3388 193.139 16.2372 193.139 17.3079C193.139 18.1239 192.989 18.8427 192.69 19.4641C192.39 20.0855 191.967 20.6096 191.421 21.0364C190.874 21.4556 190.223 21.7813 189.467 22.0134L188.613 22.429H183.413L183.391 20.1941H187.288C187.962 20.1941 188.523 20.0743 188.973 19.8347C189.422 19.5951 189.759 19.2694 189.983 18.8577C190.215 18.4384 190.331 17.9667 190.331 17.4426C190.331 16.8736 190.219 16.3795 189.995 15.9602C189.777 15.5334 189.44 15.2078 188.984 14.9832C188.527 14.7511 187.947 14.635 187.243 14.635H184.278V28.7405H181.459V12.3889ZM190.792 28.7405L186.951 21.3958L189.905 21.3845L193.802 28.5945V28.7405H190.792ZM202.997 28.7405H199.504L199.527 26.5056H202.997C204.008 26.5056 204.854 26.2847 205.535 25.843C206.224 25.4013 206.741 24.7686 207.085 23.9451C207.437 23.1215 207.613 22.1407 207.613 21.0027V20.1155C207.613 19.232 207.512 18.4496 207.31 17.7683C207.115 17.087 206.823 16.5142 206.434 16.05C206.052 15.5859 205.58 15.234 205.019 14.9944C204.465 14.7548 203.824 14.635 203.098 14.635H199.437V12.3889H203.098C204.184 12.3889 205.176 12.5723 206.074 12.9392C206.973 13.2986 207.748 13.8189 208.399 14.5002C209.058 15.1816 209.563 15.9976 209.915 16.9485C210.267 17.8993 210.443 18.9625 210.443 20.1379V21.0027C210.443 22.1781 210.267 23.2413 209.915 24.1921C209.563 25.143 209.058 25.9591 208.399 26.6404C207.74 27.3142 206.954 27.8346 206.041 28.2014C205.135 28.5608 204.12 28.7405 202.997 28.7405ZM201.066 12.3889V28.7405H198.247V12.3889H201.066ZM226.276 26.5056V28.7405H217.595V26.5056H226.276ZM218.392 12.3889V28.7405H215.573V12.3889H218.392ZM225.141 19.217V21.4182H217.595V19.217H225.141ZM226.22 12.3889V14.635H217.595V12.3889H226.22ZM243.849 12.3889V28.7405H241.03L233.697 17.0271V28.7405H230.878V12.3889H233.697L241.053 24.1248V12.3889H243.849ZM258.11 24.5291C258.11 24.1921 258.057 23.8927 257.952 23.6306C257.855 23.3686 257.679 23.129 257.425 22.9119C257.17 22.6947 256.811 22.4851 256.346 22.283C255.89 22.0733 255.306 21.8599 254.594 21.6428C253.816 21.4032 253.097 21.1375 252.438 20.8455C251.787 20.546 251.218 20.2016 250.731 19.8123C250.245 19.4154 249.866 18.9625 249.597 18.4534C249.327 17.9368 249.193 17.3416 249.193 16.6677C249.193 16.0014 249.331 15.3949 249.608 14.8484C249.893 14.3018 250.293 13.8302 250.81 13.4333C251.334 13.0291 251.952 12.7183 252.663 12.5012C253.374 12.2766 254.16 12.1643 255.021 12.1643C256.234 12.1643 257.279 12.3889 258.154 12.8381C259.038 13.2874 259.716 13.8901 260.187 14.6462C260.666 15.4024 260.906 16.2372 260.906 17.1506H258.11C258.11 16.6116 257.994 16.1361 257.761 15.7244C257.537 15.3051 257.192 14.9757 256.728 14.7361C256.272 14.4965 255.691 14.3767 254.988 14.3767C254.321 14.3767 253.767 14.4778 253.325 14.6799C252.884 14.8821 252.554 15.1554 252.337 15.4998C252.12 15.8442 252.011 16.2335 252.011 16.6677C252.011 16.9747 252.083 17.2555 252.225 17.51C252.367 17.7571 252.584 17.9892 252.876 18.2063C253.168 18.4159 253.535 18.6143 253.977 18.8015C254.418 18.9887 254.939 19.1684 255.538 19.3406C256.444 19.6101 257.234 19.9096 257.907 20.239C258.581 20.561 259.143 20.9278 259.592 21.3396C260.041 21.7514 260.378 22.2193 260.603 22.7434C260.827 23.26 260.94 23.8477 260.94 24.5066C260.94 25.1954 260.801 25.8168 260.524 26.3708C260.247 26.9174 259.85 27.3853 259.334 27.7747C258.825 28.1565 258.211 28.4522 257.492 28.6619C256.781 28.864 255.987 28.9651 255.111 28.9651C254.325 28.9651 253.55 28.8603 252.786 28.6506C252.03 28.441 251.341 28.1228 250.72 27.696C250.099 27.2618 249.604 26.7227 249.238 26.0789C248.871 25.4275 248.687 24.6676 248.687 23.7991H251.506C251.506 24.3306 251.596 24.7836 251.776 25.158C251.963 25.5323 252.221 25.8393 252.55 26.0789C252.88 26.311 253.262 26.4832 253.696 26.5955C254.138 26.7078 254.609 26.7639 255.111 26.7639C255.77 26.7639 256.32 26.6703 256.762 26.4832C257.211 26.296 257.548 26.0339 257.773 25.697C257.997 25.3601 258.11 24.9708 258.11 24.5291Z" fill="#343D33"/>
<path d="M75.7466 38.0764H77.021L78.9033 46.7556L83.7886 38.0764H85.1948L79.1377 48.7405H78.0903L75.7466 38.0764ZM75.2852 38.0764H76.4644L75.5269 44.6243L74.8091 48.7405H73.4321L75.2852 38.0764ZM84.4038 38.0764H85.5903L83.7373 48.7405H82.3677L83.1001 44.5071L84.4038 38.0764ZM91.1236 46.8362L92.1637 40.8157H93.4967L92.1197 48.7405H90.8526L91.1236 46.8362ZM91.6217 45.2395L92.1637 45.2175C92.1002 45.7156 91.9879 46.1892 91.8268 46.6384C91.6656 47.0828 91.4459 47.4783 91.1676 47.825C90.8941 48.1667 90.5523 48.4353 90.1422 48.6306C89.7369 48.821 89.256 48.9089 88.6993 48.8943C88.2647 48.8796 87.901 48.7917 87.608 48.6306C87.3199 48.4695 87.0929 48.2522 86.9269 47.9788C86.7608 47.7053 86.651 47.3928 86.5973 47.0413C86.5436 46.6897 86.5362 46.3186 86.5753 45.928L87.4322 40.8157H88.7579L87.901 45.95C87.8814 46.1648 87.879 46.3772 87.8937 46.5872C87.9083 46.7922 87.9522 46.9802 88.0255 47.1511C88.0987 47.322 88.211 47.4612 88.3624 47.5686C88.5187 47.6711 88.7237 47.7273 88.9776 47.7371C89.505 47.7566 89.9518 47.6589 90.318 47.4441C90.6842 47.2244 90.9747 46.9216 91.1896 46.5359C91.4044 46.1501 91.5484 45.718 91.6217 45.2395ZM99.1545 46.5945C99.1984 46.2917 99.1423 46.0549 98.986 45.884C98.8347 45.7131 98.6345 45.5837 98.3854 45.4958C98.1413 45.4031 97.9021 45.3274 97.6677 45.2688C97.3747 45.1956 97.0793 45.1052 96.7814 44.9978C96.4836 44.8904 96.2102 44.7537 95.9611 44.5876C95.717 44.4167 95.5217 44.2068 95.3752 43.9578C95.2336 43.7039 95.1701 43.3962 95.1848 43.0349C95.2043 42.6443 95.3068 42.3 95.4924 42.0022C95.6828 41.7043 95.927 41.4553 96.2248 41.2551C96.5275 41.0549 96.8571 40.906 97.2136 40.8083C97.57 40.7107 97.924 40.6643 98.2756 40.6692C98.7736 40.679 99.2253 40.7815 99.6306 40.9768C100.041 41.1721 100.365 41.4529 100.605 41.8191C100.844 42.1853 100.956 42.6296 100.942 43.1521L99.6306 43.1448C99.6403 42.8665 99.5842 42.6272 99.4621 42.427C99.34 42.2268 99.1716 42.073 98.9567 41.9656C98.7419 41.8533 98.4978 41.7947 98.2243 41.7898C97.9655 41.7849 97.7116 41.8264 97.4626 41.9143C97.2136 41.9973 97.0012 42.1292 96.8254 42.3098C96.6496 42.4856 96.5422 42.7151 96.5031 42.9983C96.4738 43.2083 96.5056 43.3816 96.5983 43.5183C96.6911 43.6501 96.8181 43.7576 96.9792 43.8406C97.1452 43.9187 97.3186 43.9846 97.4992 44.0383C97.6848 44.0872 97.8532 44.1311 98.0046 44.1702C98.405 44.2825 98.8005 44.4241 99.1911 44.595C99.5817 44.7659 99.8991 45.0027 100.143 45.3054C100.387 45.6033 100.497 45.9963 100.473 46.4846C100.453 46.8997 100.343 47.261 100.143 47.5686C99.9479 47.8713 99.694 48.1228 99.3815 48.323C99.0739 48.5183 98.7346 48.6624 98.3635 48.7551C97.9924 48.8479 97.6213 48.8918 97.2502 48.887C96.7375 48.8772 96.259 48.7722 95.8146 48.572C95.3752 48.3669 95.0236 48.074 94.76 47.6931C94.4963 47.3074 94.3718 46.8386 94.3864 46.2869L95.7121 46.2942C95.7121 46.6116 95.778 46.8801 95.9099 47.0999C96.0466 47.3147 96.2346 47.4783 96.4738 47.5906C96.7131 47.7029 96.9865 47.7615 97.2941 47.7664C97.5529 47.7712 97.8166 47.7371 98.0852 47.6638C98.3586 47.5906 98.593 47.4685 98.7883 47.2976C98.9885 47.1218 99.1105 46.8875 99.1545 46.5945ZM105.281 48.887C104.739 48.8772 104.268 48.7698 103.867 48.5647C103.472 48.3547 103.147 48.074 102.893 47.7224C102.644 47.366 102.466 46.9607 102.359 46.5066C102.251 46.0525 102.22 45.5764 102.263 45.0784L102.293 44.7634C102.342 44.2556 102.466 43.7576 102.666 43.2693C102.867 42.7761 103.133 42.3318 103.465 41.9363C103.802 41.5408 104.197 41.2283 104.651 40.9988C105.11 40.7644 105.618 40.6545 106.175 40.6692C106.726 40.679 107.185 40.7961 107.552 41.0208C107.918 41.2454 108.203 41.5432 108.408 41.9143C108.618 42.2805 108.755 42.6931 108.819 43.1521C108.882 43.6062 108.887 44.0725 108.833 44.551L108.753 45.1589H103.003L103.179 44.053L107.566 44.0603L107.588 43.9431C107.637 43.5916 107.617 43.2522 107.53 42.925C107.442 42.5979 107.281 42.3293 107.046 42.1194C106.817 41.9045 106.507 41.7922 106.116 41.7825C105.711 41.7678 105.359 41.8508 105.061 42.0315C104.763 42.2073 104.514 42.4465 104.314 42.7493C104.114 43.0471 103.955 43.3743 103.838 43.7307C103.726 44.0823 103.648 44.4265 103.604 44.7634L103.575 45.071C103.545 45.3835 103.555 45.6985 103.604 46.0159C103.653 46.3333 103.745 46.6238 103.882 46.8875C104.024 47.1462 104.219 47.3586 104.468 47.5247C104.717 47.6858 105.025 47.7712 105.391 47.781C105.835 47.7908 106.233 47.6956 106.585 47.4954C106.941 47.2903 107.266 47.0315 107.559 46.719L108.313 47.3635C108.084 47.7004 107.81 47.9836 107.493 48.2131C107.176 48.4426 106.829 48.6135 106.453 48.7258C106.077 48.8381 105.686 48.8918 105.281 48.887ZM114.835 46.8362L115.875 40.8157H117.208L115.831 48.7405H114.564L114.835 46.8362ZM115.333 45.2395L115.875 45.2175C115.812 45.7156 115.7 46.1892 115.538 46.6384C115.377 47.0828 115.158 47.4783 114.879 47.825C114.606 48.1667 114.264 48.4353 113.854 48.6306C113.449 48.821 112.968 48.9089 112.411 48.8943C111.976 48.8796 111.613 48.7917 111.32 48.6306C111.032 48.4695 110.805 48.2522 110.639 47.9788C110.473 47.7053 110.363 47.3928 110.309 47.0413C110.255 46.6897 110.248 46.3186 110.287 45.928L111.144 40.8157H112.47L111.613 45.95C111.593 46.1648 111.591 46.3772 111.605 46.5872C111.62 46.7922 111.664 46.9802 111.737 47.1511C111.81 47.322 111.923 47.4612 112.074 47.5686C112.23 47.6711 112.435 47.7273 112.689 47.7371C113.217 47.7566 113.663 47.6589 114.03 47.4441C114.396 47.2244 114.686 46.9216 114.901 46.5359C115.116 46.1501 115.26 45.718 115.333 45.2395ZM120.376 42.4709L119.292 48.7405H117.959L119.336 40.8157H120.596L120.376 42.4709ZM119.783 44.4778L119.182 44.4631C119.25 43.97 119.373 43.4939 119.548 43.0349C119.724 42.5759 119.958 42.1658 120.251 41.8044C120.549 41.4431 120.908 41.1599 121.328 40.9548C121.748 40.7498 122.234 40.6545 122.786 40.6692C123.196 40.679 123.542 40.7595 123.826 40.9109C124.109 41.0574 124.336 41.26 124.507 41.5188C124.683 41.7727 124.8 42.0657 124.858 42.3977C124.922 42.7297 124.937 43.0837 124.902 43.4597L124.016 48.7405H122.69L123.569 43.5183C123.608 43.1863 123.589 42.8933 123.511 42.6394C123.438 42.3855 123.298 42.1853 123.093 42.0388C122.888 41.8875 122.61 41.8069 122.258 41.7971C121.863 41.7874 121.519 41.8557 121.226 42.0022C120.938 42.1487 120.696 42.3513 120.5 42.6101C120.31 42.864 120.156 43.1545 120.039 43.4817C119.922 43.804 119.836 44.136 119.783 44.4778ZM124.902 43.7307L123.95 44.009C124.009 43.5549 124.131 43.1252 124.316 42.72C124.507 42.3147 124.753 41.9558 125.056 41.6433C125.359 41.3308 125.71 41.0867 126.111 40.9109C126.511 40.7351 126.953 40.6521 127.437 40.6619C127.866 40.6716 128.23 40.7522 128.528 40.9036C128.826 41.05 129.062 41.2527 129.238 41.5115C129.419 41.7703 129.539 42.073 129.597 42.4197C129.661 42.7615 129.67 43.1326 129.626 43.533L128.755 48.7405H127.422L128.301 43.511C128.34 43.1741 128.323 42.8787 128.25 42.6248C128.181 42.3708 128.044 42.1731 127.839 42.0315C127.634 41.885 127.351 41.8093 126.99 41.8044C126.702 41.7947 126.438 41.8386 126.199 41.9363C125.959 42.0339 125.752 42.1731 125.576 42.3538C125.4 42.5295 125.254 42.7346 125.137 42.969C125.024 43.2034 124.946 43.4573 124.902 43.7307ZM137.573 42.8225L139.301 41.6873C139.599 41.4919 139.863 41.2747 140.092 41.0354C140.322 40.7961 140.456 40.4885 140.495 40.1125C140.529 39.7903 140.442 39.5291 140.232 39.3289C140.022 39.1287 139.758 39.0261 139.441 39.0212C139.162 39.0212 138.916 39.092 138.701 39.2336C138.491 39.3752 138.32 39.5608 138.188 39.7903C138.061 40.0198 137.983 40.2664 137.954 40.53C137.92 40.7937 137.946 41.0525 138.034 41.3064C138.122 41.5554 138.239 41.7971 138.386 42.0315C138.532 42.261 138.674 42.4807 138.811 42.6907L142.758 48.7405H141.272L138.034 43.7893C137.82 43.4719 137.6 43.1448 137.375 42.8079C137.151 42.4661 136.965 42.1096 136.819 41.7385C136.677 41.3674 136.618 40.9792 136.643 40.574C136.682 40.0417 136.826 39.5754 137.075 39.175C137.329 38.7698 137.666 38.4573 138.086 38.2375C138.506 38.0178 138.984 37.9153 139.521 37.9299C139.936 37.9397 140.317 38.0349 140.664 38.2156C141.01 38.3962 141.281 38.6501 141.477 38.9773C141.677 39.2996 141.765 39.6804 141.74 40.1199C141.721 40.4812 141.628 40.8059 141.462 41.094C141.301 41.3821 141.096 41.6409 140.847 41.8704C140.598 42.0999 140.334 42.3123 140.056 42.5076L137.749 44.0823C137.539 44.2288 137.331 44.3948 137.126 44.5803C136.921 44.761 136.743 44.9636 136.592 45.1882C136.445 45.4128 136.355 45.6594 136.321 45.928C136.272 46.2991 136.313 46.6213 136.445 46.8948C136.577 47.1682 136.777 47.3831 137.046 47.5393C137.314 47.6907 137.632 47.7712 137.998 47.781C138.525 47.7957 139.004 47.6882 139.433 47.4587C139.868 47.2244 140.246 46.9119 140.569 46.5212C140.896 46.1257 141.159 45.6936 141.36 45.2249C141.56 44.7512 141.694 44.2825 141.762 43.8186H142.934C142.881 44.3069 142.78 44.7561 142.634 45.1663C142.487 45.5715 142.295 45.9573 142.055 46.3235C141.816 46.6848 141.535 47.0437 141.213 47.4001C141.169 47.449 141.128 47.5027 141.089 47.5613C141.054 47.615 141.015 47.6663 140.971 47.7151C140.61 48.1204 140.146 48.4207 139.58 48.616C139.018 48.8064 138.471 48.8967 137.939 48.887C137.363 48.8723 136.843 48.7454 136.379 48.5061C135.915 48.2668 135.554 47.9299 135.295 47.4954C135.036 47.0559 134.929 46.5334 134.973 45.928C135.012 45.425 135.166 44.988 135.434 44.6169C135.708 44.241 136.037 43.9089 136.423 43.6208C136.809 43.3328 137.192 43.0667 137.573 42.8225ZM152.602 43.7527H149.899L150.082 42.6174L152.39 42.6248C152.766 42.6248 153.12 42.5588 153.452 42.427C153.788 42.2952 154.069 42.0974 154.294 41.8337C154.523 41.5701 154.662 41.238 154.711 40.8376C154.76 40.4568 154.721 40.1516 154.594 39.9221C154.467 39.6877 154.272 39.5193 154.008 39.4167C153.749 39.3093 153.444 39.2507 153.093 39.241L150.998 39.2336L149.35 48.7405H147.966L149.819 38.0764L153.122 38.0837C153.566 38.0935 153.976 38.1545 154.352 38.2668C154.733 38.3743 155.06 38.5403 155.334 38.7649C155.607 38.9846 155.812 39.2678 155.949 39.6145C156.091 39.9612 156.142 40.3762 156.103 40.8596C156.064 41.3821 155.898 41.8215 155.605 42.178C155.317 42.5344 154.953 42.8152 154.514 43.0203C154.079 43.2205 153.627 43.3523 153.159 43.4158L152.602 43.7527ZM151.686 48.7405H148.449L149.423 47.5906L151.723 47.5979C152.138 47.5979 152.521 47.5222 152.873 47.3708C153.225 47.2195 153.515 46.9973 153.745 46.7043C153.979 46.4114 154.123 46.05 154.177 45.6204C154.221 45.2395 154.191 44.9124 154.089 44.6389C153.986 44.3655 153.81 44.1555 153.561 44.009C153.312 43.8577 152.995 43.7747 152.609 43.76L150.566 43.7527L150.778 42.6174L153.378 42.6248L153.605 43.0349C154.045 43.1033 154.413 43.2595 154.711 43.5037C155.014 43.7429 155.234 44.0457 155.371 44.4119C155.512 44.7732 155.568 45.1711 155.539 45.6057C155.485 46.304 155.275 46.8875 154.909 47.3562C154.548 47.8201 154.084 48.1692 153.517 48.4036C152.951 48.6331 152.341 48.7454 151.686 48.7405ZM157.33 44.9099L157.352 44.7415C157.41 44.2092 157.542 43.6965 157.747 43.2034C157.957 42.7102 158.233 42.2708 158.575 41.885C158.917 41.4993 159.322 41.1965 159.791 40.9768C160.259 40.7571 160.782 40.6545 161.358 40.6692C161.915 40.679 162.391 40.7986 162.786 41.0281C163.187 41.2576 163.509 41.5627 163.753 41.9436C164.002 42.3196 164.175 42.7444 164.273 43.218C164.371 43.6917 164.395 44.1799 164.346 44.6829L164.332 44.8513C164.268 45.3835 164.131 45.8938 163.921 46.3821C163.711 46.8704 163.433 47.3049 163.086 47.6858C162.745 48.0667 162.339 48.3669 161.871 48.5867C161.402 48.8015 160.882 48.9016 160.311 48.887C159.759 48.8772 159.283 48.76 158.882 48.5354C158.487 48.3059 158.167 48.0032 157.923 47.6272C157.679 47.2512 157.508 46.8289 157.41 46.3601C157.312 45.8914 157.286 45.408 157.33 44.9099ZM158.67 44.7415L158.655 44.9172C158.621 45.2249 158.619 45.5447 158.648 45.8767C158.682 46.2087 158.76 46.5164 158.882 46.7996C159.009 47.0828 159.192 47.3147 159.432 47.4954C159.671 47.676 159.981 47.7712 160.362 47.781C160.767 47.7908 161.124 47.7126 161.431 47.5466C161.739 47.3757 162 47.1462 162.215 46.8582C162.435 46.5701 162.608 46.2502 162.735 45.8987C162.867 45.5471 162.955 45.198 162.999 44.8513L163.013 44.6829C163.047 44.3752 163.047 44.0554 163.013 43.7234C162.984 43.3865 162.906 43.074 162.779 42.7859C162.657 42.4929 162.476 42.2561 162.237 42.0754C161.998 41.8899 161.688 41.7922 161.307 41.7825C160.901 41.7678 160.542 41.8484 160.23 42.0242C159.922 42.1951 159.661 42.427 159.446 42.72C159.231 43.0129 159.058 43.3376 158.926 43.6941C158.799 44.0457 158.714 44.3948 158.67 44.7415ZM170.048 40.8157L169.865 41.8557H165.697L165.88 40.8157H170.048ZM167.624 38.8894H168.942L167.602 46.7922C167.587 46.9631 167.592 47.1169 167.616 47.2537C167.641 47.3904 167.699 47.5002 167.792 47.5833C167.885 47.6614 168.026 47.7029 168.217 47.7078C168.324 47.7078 168.429 47.7004 168.532 47.6858C168.639 47.6663 168.747 47.6492 168.854 47.6345L168.759 48.7478C168.603 48.7917 168.442 48.8235 168.275 48.843C168.114 48.8674 167.953 48.8772 167.792 48.8723C167.387 48.8674 167.069 48.7649 166.84 48.5647C166.61 48.3645 166.454 48.1057 166.371 47.7883C166.288 47.4709 166.264 47.1316 166.298 46.7703L167.624 38.8894ZM175.142 47.3855L175.801 43.2913C175.835 42.9885 175.806 42.7224 175.713 42.4929C175.625 42.2634 175.476 42.0852 175.266 41.9583C175.061 41.8313 174.802 41.7629 174.49 41.7532C174.217 41.7483 173.948 41.7922 173.684 41.885C173.425 41.9778 173.201 42.1169 173.01 42.3025C172.82 42.488 172.696 42.7224 172.637 43.0056L171.319 43.0129C171.353 42.6174 171.477 42.2732 171.692 41.9802C171.907 41.6824 172.175 41.4358 172.498 41.2405C172.82 41.0403 173.167 40.8938 173.538 40.801C173.909 40.7034 174.27 40.657 174.622 40.6619C175.154 40.6716 175.615 40.7864 176.006 41.0061C176.402 41.2209 176.699 41.5237 176.9 41.9143C177.1 42.3049 177.173 42.7737 177.119 43.3206L176.511 47.012C176.467 47.2805 176.441 47.5515 176.431 47.825C176.426 48.0935 176.458 48.3572 176.526 48.616L176.511 48.7405L175.171 48.7478C175.117 48.5232 175.091 48.2961 175.091 48.0667C175.095 47.8372 175.113 47.6101 175.142 47.3855ZM175.955 43.9358L175.801 44.8879L174.549 44.8806C174.285 44.8806 174.007 44.9001 173.714 44.9392C173.421 44.9783 173.142 45.0515 172.879 45.1589C172.615 45.2664 172.393 45.4226 172.212 45.6277C172.031 45.8279 171.922 46.0891 171.883 46.4114C171.853 46.675 171.885 46.9045 171.978 47.0999C172.075 47.2903 172.222 47.4392 172.417 47.5466C172.613 47.6541 172.84 47.7102 173.098 47.7151C173.435 47.72 173.767 47.6541 174.094 47.5173C174.422 47.3806 174.707 47.1853 174.951 46.9314C175.196 46.6775 175.364 46.3845 175.457 46.0525L175.94 46.7043C175.847 47.0266 175.696 47.3245 175.486 47.5979C175.276 47.8665 175.027 48.0984 174.739 48.2937C174.456 48.489 174.151 48.6404 173.823 48.7478C173.496 48.8552 173.169 48.9065 172.842 48.9016C172.398 48.8918 171.995 48.7917 171.633 48.6013C171.277 48.4109 170.994 48.1448 170.784 47.803C170.579 47.4563 170.491 47.0535 170.52 46.5945C170.55 46.0916 170.681 45.6692 170.916 45.3274C171.15 44.9856 171.45 44.7122 171.817 44.5071C172.188 44.302 172.593 44.1555 173.032 44.0676C173.472 43.9749 173.906 43.9285 174.336 43.9285L175.955 43.9358ZM180.822 42.5881L179.752 48.7405H178.427L179.804 40.8157H181.056L180.822 42.5881ZM180.206 44.4778L179.664 44.4631C179.733 43.9895 179.857 43.5256 180.038 43.0715C180.223 42.6125 180.465 42.2 180.763 41.8337C181.066 41.4675 181.425 41.1794 181.84 40.9695C182.26 40.7546 182.738 40.6545 183.275 40.6692C183.7 40.679 184.054 40.762 184.337 40.9182C184.625 41.0696 184.85 41.2771 185.011 41.5408C185.172 41.8044 185.28 42.1096 185.333 42.4563C185.387 42.7981 185.392 43.1619 185.348 43.5476L184.484 48.7405H183.151L184.03 43.5256C184.064 43.2083 184.052 42.9226 183.993 42.6687C183.939 42.4099 183.817 42.2048 183.627 42.0535C183.441 41.8972 183.173 41.8142 182.821 41.8044C182.45 41.7947 182.116 41.8655 181.818 42.0168C181.52 42.1682 181.259 42.3757 181.034 42.6394C180.814 42.8982 180.634 43.1887 180.492 43.511C180.355 43.8284 180.26 44.1506 180.206 44.4778ZM189.431 40.8157L188.054 48.7405H186.728L188.105 40.8157H189.431ZM188.369 38.7356C188.369 38.5061 188.44 38.3157 188.581 38.1643C188.728 38.0081 188.916 37.9275 189.145 37.9226C189.375 37.9177 189.563 37.9885 189.709 38.135C189.861 38.2815 189.934 38.467 189.929 38.6917C189.929 38.9163 189.853 39.1042 189.702 39.2556C189.556 39.4021 189.37 39.4778 189.145 39.4827C188.921 39.4875 188.735 39.4216 188.589 39.2849C188.442 39.1433 188.369 38.9602 188.369 38.7356ZM193.617 47.781C193.939 47.7859 194.239 47.7249 194.518 47.5979C194.796 47.4709 195.033 47.2903 195.228 47.0559C195.423 46.8215 195.562 46.5505 195.646 46.2429L196.905 46.2356C196.827 46.7678 196.62 47.2341 196.283 47.6345C195.951 48.0349 195.543 48.3474 195.06 48.572C194.581 48.7917 194.081 48.8967 193.558 48.887C193.001 48.8772 192.528 48.7625 192.137 48.5427C191.751 48.3181 191.441 48.0203 191.207 47.6492C190.973 47.2781 190.812 46.8606 190.724 46.3967C190.636 45.928 190.616 45.447 190.665 44.9539L190.694 44.6389C190.753 44.1067 190.882 43.6013 191.083 43.1228C191.283 42.6394 191.549 42.2122 191.881 41.8411C192.218 41.4651 192.616 41.1721 193.075 40.9622C193.534 40.7522 194.049 40.6545 194.62 40.6692C195.177 40.679 195.66 40.8108 196.07 41.0647C196.48 41.3137 196.798 41.6531 197.022 42.0828C197.247 42.5125 197.359 43.0007 197.359 43.5476L196.114 43.5403C196.109 43.2278 196.048 42.9397 195.931 42.676C195.814 42.4124 195.641 42.2 195.411 42.0388C195.182 41.8777 194.898 41.7898 194.562 41.7751C194.156 41.7654 193.802 41.8411 193.5 42.0022C193.202 42.1633 192.948 42.3855 192.738 42.6687C192.533 42.947 192.369 43.2571 192.247 43.5989C192.13 43.9407 192.049 44.2874 192.005 44.6389L191.969 44.9465C191.939 45.259 191.935 45.5789 191.954 45.906C191.979 46.2332 192.047 46.5383 192.159 46.8215C192.271 47.0999 192.445 47.3269 192.679 47.5027C192.914 47.6785 193.226 47.7712 193.617 47.781ZM202.871 47.3855L203.53 43.2913C203.564 42.9885 203.535 42.7224 203.442 42.4929C203.354 42.2634 203.205 42.0852 202.995 41.9583C202.79 41.8313 202.531 41.7629 202.219 41.7532C201.945 41.7483 201.677 41.7922 201.413 41.885C201.154 41.9778 200.93 42.1169 200.739 42.3025C200.549 42.488 200.424 42.7224 200.366 43.0056L199.047 43.0129C199.082 42.6174 199.206 42.2732 199.421 41.9802C199.636 41.6824 199.904 41.4358 200.227 41.2405C200.549 41.0403 200.896 40.8938 201.267 40.801C201.638 40.7034 201.999 40.657 202.351 40.6619C202.883 40.6716 203.344 40.7864 203.735 41.0061C204.13 41.2209 204.428 41.5237 204.629 41.9143C204.829 42.3049 204.902 42.7737 204.848 43.3206L204.24 47.012C204.196 47.2805 204.17 47.5515 204.16 47.825C204.155 48.0935 204.187 48.3572 204.255 48.616L204.24 48.7405L202.9 48.7478C202.846 48.5232 202.819 48.2961 202.819 48.0667C202.824 47.8372 202.841 47.6101 202.871 47.3855ZM203.684 43.9358L203.53 44.8879L202.277 44.8806C202.014 44.8806 201.735 44.9001 201.442 44.9392C201.15 44.9783 200.871 45.0515 200.608 45.1589C200.344 45.2664 200.122 45.4226 199.941 45.6277C199.76 45.8279 199.65 46.0891 199.611 46.4114C199.582 46.675 199.614 46.9045 199.707 47.0999C199.804 47.2903 199.951 47.4392 200.146 47.5466C200.341 47.6541 200.568 47.7102 200.827 47.7151C201.164 47.72 201.496 47.6541 201.823 47.5173C202.15 47.3806 202.436 47.1853 202.68 46.9314C202.924 46.6775 203.093 46.3845 203.186 46.0525L203.669 46.7043C203.576 47.0266 203.425 47.3245 203.215 47.5979C203.005 47.8665 202.756 48.0984 202.468 48.2937C202.185 48.489 201.879 48.6404 201.552 48.7478C201.225 48.8552 200.898 48.9065 200.571 48.9016C200.127 48.8918 199.724 48.7917 199.362 48.6013C199.006 48.4109 198.723 48.1448 198.513 47.803C198.308 47.4563 198.22 47.0535 198.249 46.5945C198.278 46.0916 198.41 45.6692 198.645 45.3274C198.879 44.9856 199.179 44.7122 199.546 44.5071C199.917 44.302 200.322 44.1555 200.761 44.0676C201.201 43.9749 201.635 43.9285 202.065 43.9285L203.684 43.9358ZM209.547 37.4905L207.591 48.7405H206.265L208.214 37.4905H209.547ZM222.466 43.4304L221.836 47.3342C221.548 47.7346 221.189 48.0496 220.76 48.2791C220.335 48.5037 219.878 48.6624 219.39 48.7551C218.902 48.8479 218.426 48.8918 217.962 48.887C217.254 48.8772 216.656 48.7258 216.167 48.4329C215.684 48.1399 215.301 47.7517 215.017 47.2683C214.734 46.7849 214.544 46.2454 214.446 45.6497C214.353 45.054 214.349 44.4436 214.432 43.8186L214.549 42.991C214.646 42.322 214.817 41.6824 215.061 41.072C215.31 40.4568 215.638 39.9124 216.043 39.4387C216.453 38.9602 216.944 38.5867 217.515 38.3181C218.086 38.0447 218.746 37.9153 219.493 37.9299C220.171 37.9446 220.752 38.0862 221.236 38.3547C221.724 38.6233 222.105 38.9993 222.378 39.4827C222.657 39.9661 222.82 40.5398 222.869 41.2039H221.507C221.473 40.7839 221.375 40.4177 221.214 40.1052C221.058 39.7927 220.83 39.5486 220.533 39.3728C220.24 39.197 219.873 39.1018 219.434 39.0872C218.877 39.0676 218.394 39.1702 217.984 39.3948C217.579 39.6145 217.237 39.9148 216.958 40.2957C216.685 40.6716 216.465 41.094 216.299 41.5627C216.133 42.0266 216.014 42.4978 215.94 42.9763L215.816 43.8259C215.762 44.241 215.747 44.6755 215.772 45.1296C215.801 45.5789 215.892 45.9988 216.043 46.3894C216.199 46.78 216.436 47.0999 216.753 47.3489C217.071 47.593 217.491 47.72 218.013 47.7297C218.311 47.7346 218.604 47.7151 218.892 47.6711C219.185 47.6272 219.463 47.5491 219.727 47.4368C219.991 47.3245 220.237 47.1658 220.467 46.9607L220.899 44.573H218.496L218.702 43.4304H222.466ZM228.549 47.3855L229.208 43.2913C229.242 42.9885 229.213 42.7224 229.12 42.4929C229.032 42.2634 228.883 42.0852 228.673 41.9583C228.468 41.8313 228.209 41.7629 227.897 41.7532C227.624 41.7483 227.355 41.7922 227.091 41.885C226.833 41.9778 226.608 42.1169 226.417 42.3025C226.227 42.488 226.103 42.7224 226.044 43.0056L224.726 43.0129C224.76 42.6174 224.884 42.2732 225.099 41.9802C225.314 41.6824 225.583 41.4358 225.905 41.2405C226.227 41.0403 226.574 40.8938 226.945 40.801C227.316 40.7034 227.677 40.657 228.029 40.6619C228.561 40.6716 229.022 40.7864 229.413 41.0061C229.809 41.2209 230.106 41.5237 230.307 41.9143C230.507 42.3049 230.58 42.7737 230.526 43.3206L229.918 47.012C229.875 47.2805 229.848 47.5515 229.838 47.825C229.833 48.0935 229.865 48.3572 229.933 48.616L229.918 48.7405L228.578 48.7478C228.524 48.5232 228.498 48.2961 228.498 48.0667C228.502 47.8372 228.52 47.6101 228.549 47.3855ZM229.362 43.9358L229.208 44.8879L227.956 44.8806C227.692 44.8806 227.414 44.9001 227.121 44.9392C226.828 44.9783 226.549 45.0515 226.286 45.1589C226.022 45.2664 225.8 45.4226 225.619 45.6277C225.438 45.8279 225.329 46.0891 225.29 46.4114C225.26 46.675 225.292 46.9045 225.385 47.0999C225.482 47.2903 225.629 47.4392 225.824 47.5466C226.02 47.6541 226.247 47.7102 226.505 47.7151C226.842 47.72 227.174 47.6541 227.501 47.5173C227.829 47.3806 228.114 47.1853 228.358 46.9314C228.603 46.6775 228.771 46.3845 228.864 46.0525L229.347 46.7043C229.254 47.0266 229.103 47.3245 228.893 47.5979C228.683 47.8665 228.434 48.0984 228.146 48.2937C227.863 48.489 227.558 48.6404 227.23 48.7478C226.903 48.8552 226.576 48.9065 226.249 48.9016C225.805 48.8918 225.402 48.7917 225.041 48.6013C224.684 48.4109 224.401 48.1448 224.191 47.803C223.986 47.4563 223.898 47.0535 223.927 46.5945C223.957 46.0916 224.088 45.6692 224.323 45.3274C224.557 44.9856 224.857 44.7122 225.224 44.5071C225.595 44.302 226 44.1555 226.439 44.0676C226.879 43.9749 227.313 43.9285 227.743 43.9285L229.362 43.9358ZM234.309 42.1194L233.159 48.7405H231.834L233.211 40.8157H234.5L234.309 42.1194ZM236.88 40.7498L236.755 42.0242C236.653 42.0046 236.548 41.9875 236.441 41.9729C236.338 41.9583 236.235 41.9509 236.133 41.9509C235.816 41.946 235.53 41.9949 235.276 42.0974C235.027 42.1951 234.805 42.3342 234.609 42.5149C234.419 42.6956 234.255 42.908 234.119 43.1521C233.987 43.3962 233.882 43.6599 233.804 43.9431L233.386 44.1628C233.44 43.7673 233.528 43.3621 233.65 42.947C233.777 42.532 233.95 42.1487 234.17 41.7971C234.395 41.4456 234.675 41.1624 235.012 40.9475C235.354 40.7327 235.764 40.6326 236.243 40.6472C236.35 40.6472 236.455 40.657 236.558 40.6765C236.665 40.696 236.773 40.7205 236.88 40.7498ZM241.901 47.1218L243.571 37.4905H244.904L242.948 48.7405H241.739L241.901 47.1218ZM237.125 44.9246L237.14 44.7708C237.203 44.2825 237.321 43.7942 237.491 43.3059C237.667 42.8176 237.904 42.3708 238.202 41.9656C238.5 41.5603 238.861 41.238 239.286 40.9988C239.711 40.7595 240.206 40.6472 240.773 40.6619C241.28 40.6765 241.705 40.7961 242.047 41.0208C242.389 41.2454 242.657 41.5432 242.853 41.9143C243.053 42.2805 243.187 42.6833 243.256 43.1228C243.329 43.5623 243.351 44.0042 243.321 44.4485L243.241 45.1223C243.158 45.5959 243.021 46.0598 242.831 46.5139C242.64 46.968 242.394 47.3782 242.091 47.7444C241.793 48.1057 241.434 48.3914 241.014 48.6013C240.599 48.8113 240.123 48.9089 239.586 48.8943C239.069 48.8748 238.639 48.7405 238.297 48.4915C237.96 48.2424 237.696 47.9226 237.506 47.532C237.321 47.1365 237.198 46.7117 237.14 46.2576C237.086 45.7986 237.081 45.3542 237.125 44.9246ZM238.488 44.7561L238.473 44.9099C238.439 45.2029 238.426 45.5129 238.436 45.8401C238.451 46.1624 238.507 46.4675 238.605 46.7556C238.702 47.0388 238.861 47.2732 239.081 47.4587C239.3 47.6394 239.598 47.7371 239.974 47.7517C240.375 47.7615 240.746 47.6711 241.088 47.4807C241.429 47.2903 241.722 47.0364 241.967 46.719C242.211 46.4016 242.386 46.0574 242.494 45.6863L242.779 43.9065C242.794 43.6379 242.762 43.3816 242.684 43.1375C242.606 42.8884 242.489 42.6663 242.333 42.4709C242.181 42.2756 241.993 42.1194 241.769 42.0022C241.549 41.8801 241.302 41.8167 241.029 41.8118C240.619 41.7971 240.265 41.8777 239.967 42.0535C239.669 42.2244 239.418 42.4563 239.213 42.7493C239.012 43.0374 238.854 43.3572 238.737 43.7087C238.619 44.0603 238.536 44.4094 238.488 44.7561ZM248.481 48.887C247.939 48.8772 247.468 48.7698 247.068 48.5647C246.672 48.3547 246.347 48.074 246.094 47.7224C245.845 47.366 245.666 46.9607 245.559 46.5066C245.451 46.0525 245.42 45.5764 245.464 45.0784L245.493 44.7634C245.542 44.2556 245.666 43.7576 245.867 43.2693C246.067 42.7761 246.333 42.3318 246.665 41.9363C247.002 41.5408 247.397 41.2283 247.851 40.9988C248.31 40.7644 248.818 40.6545 249.375 40.6692C249.927 40.679 250.386 40.7961 250.752 41.0208C251.118 41.2454 251.404 41.5432 251.609 41.9143C251.819 42.2805 251.955 42.6931 252.019 43.1521C252.082 43.6062 252.087 44.0725 252.033 44.551L251.953 45.1589H246.203L246.379 44.053L250.766 44.0603L250.788 43.9431C250.837 43.5916 250.818 43.2522 250.73 42.925C250.642 42.5979 250.481 42.3293 250.246 42.1194C250.017 41.9045 249.707 41.7922 249.316 41.7825C248.911 41.7678 248.559 41.8508 248.262 42.0315C247.964 42.2073 247.715 42.4465 247.514 42.7493C247.314 43.0471 247.156 43.3743 247.038 43.7307C246.926 44.0823 246.848 44.4265 246.804 44.7634L246.775 45.071C246.745 45.3835 246.755 45.6985 246.804 46.0159C246.853 46.3333 246.946 46.6238 247.082 46.8875C247.224 47.1462 247.419 47.3586 247.668 47.5247C247.917 47.6858 248.225 47.7712 248.591 47.781C249.035 47.7908 249.433 47.6956 249.785 47.4954C250.141 47.2903 250.466 47.0315 250.759 46.719L251.513 47.3635C251.284 47.7004 251.011 47.9836 250.693 48.2131C250.376 48.4426 250.029 48.6135 249.653 48.7258C249.277 48.8381 248.887 48.8918 248.481 48.887ZM255.392 42.5881L254.322 48.7405H252.996L254.373 40.8157H255.626L255.392 42.5881ZM254.776 44.4778L254.234 44.4631C254.303 43.9895 254.427 43.5256 254.608 43.0715C254.793 42.6125 255.035 42.2 255.333 41.8337C255.636 41.4675 255.995 41.1794 256.41 40.9695C256.829 40.7546 257.308 40.6545 257.845 40.6692C258.27 40.679 258.624 40.762 258.907 40.9182C259.195 41.0696 259.42 41.2771 259.581 41.5408C259.742 41.8044 259.85 42.1096 259.903 42.4563C259.957 42.7981 259.962 43.1619 259.918 43.5476L259.054 48.7405H257.721L258.6 43.5256C258.634 43.2083 258.621 42.9226 258.563 42.6687C258.509 42.4099 258.387 42.2048 258.197 42.0535C258.011 41.8972 257.743 41.8142 257.391 41.8044C257.02 41.7947 256.685 41.8655 256.388 42.0168C256.09 42.1682 255.829 42.3757 255.604 42.6394C255.384 42.8982 255.204 43.1887 255.062 43.511C254.925 43.8284 254.83 44.1506 254.776 44.4778Z" fill="#333333"/>
</g>
<defs>
<clipPath id="clip0_1206_1867">
<rect width="189" height="45" fill="white" transform="translate(73 7.74048)"/>
</clipPath>
</defs>
</svg>
