<svg width="62" height="62" viewBox="0 0 62 62" fill="none"
    xmlns="http://www.w3.org/2000/svg">
    <style>
@media (prefers-color-scheme: dark){
    .icon {
        fill: #ffffff;
    }
}
    </style>
    <path class="icon" fill-rule="evenodd" clip-rule="evenodd" d="M31 62C48.1208 62 62 48.1208 62 31C62 13.8792 48.1208 0 31 0C13.8792 0 0 13.8792 0 31C0 39.8621 3.71868 47.8557 9.68075 53.5054C10.4483 53.0242 11.2106 52.5375 11.9669 52.0453C12.0427 51.6202 12.1335 51.1052 12.2352 50.5195C12.2883 50.2205 12.3454 49.9038 12.4122 49.5733C12.464 49.3074 12.5235 49.0339 12.5851 48.7501L12.5851 48.75L12.6109 48.6313C12.8664 47.464 13.1343 46.1525 13.3536 44.7778H13.2603C10.8135 44.8231 8.56932 44.1622 7.27314 42.7028C6.68111 42.038 6.26212 41.206 6.1382 40.2088C6.00642 39.1427 6.21099 37.8859 6.81876 36.4324L6.91312 36.1629L7.32621 36.2534C8.90561 36.5602 10.9276 36.9693 12.3044 38.7552C12.9385 39.576 13.4363 40.692 13.6842 42.2342C13.7072 41.9974 13.7278 41.7602 13.7457 41.523C13.8523 40.1239 13.8773 38.7277 13.763 37.4141C11.1 36.3644 8.96365 33.2487 8.34315 29.8492C8.10319 28.5334 8.08152 27.1742 8.35492 25.9017C8.7719 23.9604 9.83407 22.2158 11.6357 21.0435L11.8246 20.9097L12.1216 21.1595C14.4622 23.0693 15.6363 25.7758 15.955 28.7044C16.2559 31.4895 15.7721 34.4753 14.7808 37.166L14.6261 37.568C14.8202 38.8476 14.8943 40.2059 14.8826 41.5721C14.859 44.1743 14.5404 46.8001 14.1412 48.942C14.0802 49.2764 14.0132 49.599 13.9404 49.9078C13.8598 50.2441 13.7734 50.5627 13.6849 50.8617L13.6664 50.9233C18.9374 47.3924 23.8962 43.5857 28.3574 39.4844C28.3453 39.3182 28.3265 38.9951 28.3225 38.5529C28.3206 38.3424 28.3206 38.1104 28.3403 37.8547C28.3594 37.6308 28.3932 37.3931 28.4286 37.1433L28.4286 37.1432L28.4286 37.1431L28.4286 37.143C28.4514 36.9825 28.4749 36.817 28.4956 36.647C28.573 36.027 28.6522 35.3604 28.6946 34.6841C27.0775 33.5963 25.7038 32.0569 24.8096 30.4258C24.373 29.6312 24.0504 28.8149 23.8616 28.0321C23.659 27.1883 23.5921 26.3818 23.6983 25.6738C23.9009 24.3127 24.6111 23.2801 25.9525 22.9437C26.9064 22.5799 27.9213 22.934 28.8064 23.7798C29.6954 24.6295 30.4467 25.9944 30.846 27.562C31.4057 29.7738 31.237 32.3708 29.8252 34.4986C29.8634 34.8292 29.8924 35.1608 29.9138 35.4885C29.9511 36.0353 29.9688 36.5664 29.957 37.062C29.9479 37.4105 29.9371 37.7387 29.8979 38.0371C32.7906 35.2592 35.4529 32.3496 37.8302 29.3028C38.4697 28.4849 38.9947 27.7203 39.4613 26.9332L39.2536 26.5372C38.1285 24.4543 37.4577 21.7321 37.4911 19.1752C37.5069 18.0246 37.6643 16.9073 37.975 15.9042C38.2956 14.8716 38.7637 13.9511 39.401 13.2371C40.3982 12.116 41.7574 11.4533 43.5158 11.5732C44.6349 11.5496 45.4079 12.2124 45.8564 13.3021C46.4917 14.8441 46.4286 17.3145 45.7579 19.7318C44.9302 22.71 43.1554 25.5567 40.7685 26.6193C40.1971 27.7546 39.5478 28.805 38.6937 29.9578C38.2431 30.5655 37.7817 31.1684 37.3098 31.7665C37.574 31.6435 37.8484 31.5237 38.1311 31.4072C38.5823 31.222 39.0528 31.048 39.5368 30.8939C40.4374 29.1371 42.0225 27.5781 43.788 26.5646C44.6004 26.0984 45.45 25.7484 46.2741 25.5419C47.1435 25.3236 47.9854 25.2488 48.7308 25.3589C50.1155 25.5635 51.1913 26.2913 51.5611 27.6976C51.9486 28.7007 51.9427 29.5327 51.683 30.2132C51.268 31.3088 50.1509 32.0326 48.7013 32.4358C45.8945 33.2186 41.827 32.778 39.8149 31.9578L39.8136 31.9572C39.7282 31.9989 39.6433 32.0412 39.5591 32.0838C38.6797 32.5295 37.893 33.0553 37.1937 33.5227C36.9702 33.6721 36.7556 33.8155 36.5498 33.9484C36.1818 34.1866 35.8405 34.381 35.5465 34.5484L35.5464 34.5485L35.5329 34.5562C35.0257 34.8429 34.6708 35.0233 34.541 35.088C31.2555 38.8264 27.5666 42.3657 23.5785 45.7102C23.7025 45.6925 23.8315 45.6758 23.9655 45.6608C24.1825 45.6369 24.4106 45.615 24.6477 45.5923C25.4614 45.5143 26.3807 45.4262 27.3189 45.2084C27.5971 45.1434 27.8767 45.0715 28.1557 44.9909L28.2632 44.7563C29.5417 41.8748 31.8232 40.2521 34.392 39.5184C35.4383 39.2214 36.532 39.07 37.6177 39.0523C39.2974 39.0267 40.9457 39.308 42.3736 39.6995L42.765 39.7898L42.59 40.2658C41.4 43.6961 39.2344 45.4112 36.8977 46.1507C34.082 47.0413 30.9886 46.4844 28.9559 45.7207C28.2144 46.096 27.4465 46.3946 26.6974 46.6324C26.0857 46.8271 25.4937 46.9825 24.9351 47.0887C24.5083 47.1713 24.1051 47.2402 23.7354 47.2618C23.3518 47.2815 23.0115 47.2618 22.7224 47.2362C22.327 47.2004 22.0354 47.1515 21.8673 47.1186C18.4995 49.8401 14.9371 52.4285 11.2391 54.8863C16.6038 59.3295 23.49 62 31 62ZM14.1547 35.415C14.8498 33.2665 15.1895 30.972 15.0187 28.791C14.8161 26.1947 13.8956 23.7617 11.9799 21.9463C10.6464 23.0556 9.96192 24.5564 9.69442 26.1555C9.5056 27.2766 9.52521 28.4508 9.7278 29.5994C10.1981 32.2722 11.6178 34.8174 13.5751 35.988C13.4265 35.1707 13.2083 34.4019 12.9039 33.7046C12.841 33.5748 12.8961 33.4175 13.0259 33.3545C13.1577 33.2916 13.3151 33.3467 13.378 33.4765C13.6916 34.0697 13.9481 34.7209 14.1547 35.415ZM28.9854 31.1928C29.1644 31.5698 29.3127 31.9847 29.4351 32.4232C30.0663 30.9312 30.1199 29.2708 29.8232 27.7941C29.4869 26.1203 28.7159 24.6668 27.7659 23.9548C27.2644 23.5791 26.7195 23.4099 26.1747 23.583C25.4273 23.9252 25.0851 24.5546 24.9749 25.3197C24.8766 26.0062 25.0083 26.7949 25.2738 27.6407C25.4843 28.3055 25.7872 28.9959 26.1648 29.6823C26.8046 30.846 27.664 31.9984 28.7063 32.9288C28.6758 32.3813 28.6069 31.8585 28.4759 31.3836C28.4248 31.2439 28.4956 31.0866 28.6353 31.0335C28.7769 30.9824 28.9323 31.0532 28.9854 31.1928ZM31.1386 44.2781C30.8705 44.5106 30.5894 44.7266 30.2986 44.9272C32.0754 45.5057 34.4239 45.8448 36.6244 45.2303C38.6522 44.6619 40.5424 43.2752 41.7481 40.5274C40.2257 40.2914 38.4969 40.262 36.7916 40.4823C35.6331 40.6318 34.4805 40.8913 33.4144 41.3654C32.0304 41.9809 30.7881 42.9286 29.8794 44.352C30.2 44.2011 30.5128 44.032 30.8142 43.8414C30.9341 43.7529 31.1052 43.7785 31.1937 43.8985C31.2842 44.0185 31.2586 44.1876 31.1386 44.2781ZM41.7144 31.172C43.6633 31.708 46.4068 31.9537 48.4613 31.4897C50.3298 31.0648 51.6083 30.0243 50.9218 27.9257C50.556 27.1291 49.8951 26.7574 49.1025 26.6374C48.3787 26.5273 47.5486 26.6669 46.6753 26.9502C45.9771 27.1744 45.2612 27.5008 44.559 27.906C43.435 28.5533 42.3542 29.4039 41.5335 30.4041C42.0917 30.3106 42.6568 30.255 43.2214 30.2488C43.3709 30.237 43.5026 30.347 43.5144 30.4965C43.5262 30.646 43.4161 30.7778 43.2666 30.7896C42.7402 30.8731 42.2216 31.0054 41.7144 31.172ZM42.6176 22.1374C42.3107 22.9887 42.0252 23.7513 41.74 24.4557C43.1073 23.2732 44.1317 21.3679 44.7509 19.4309C45.4472 17.2555 45.634 15.0152 45.1167 13.5892C44.8276 12.7966 44.3183 12.2695 43.5158 12.2518C42.3317 12.3363 41.4427 12.8241 40.7602 13.544C40.0895 14.252 39.6606 15.2119 39.3853 16.3016C39.1591 17.1985 39.0509 18.18 39.0371 19.1949C39.0135 21.3093 39.4148 23.5574 40.2272 25.3846C40.2552 25.3739 40.2831 25.3628 40.3109 25.3515C40.811 24.3262 41.2781 23.1977 41.8112 21.8345C41.8938 21.6103 42.1436 21.4982 42.3658 21.5808C42.5901 21.6653 42.7022 21.9152 42.6176 22.1374ZM7.61144 37.0224C7.32428 38.1849 7.32034 39.1643 7.48359 39.9944C7.62324 40.7024 7.90842 41.2906 8.32933 41.7725C9.28917 42.874 10.8783 43.4384 12.6702 43.5663C12.6348 41.6014 12.206 40.254 11.5471 39.3119C10.5086 37.8249 8.93515 37.3509 7.61144 37.0224Z" fill="#343D33"/>
</svg>
