<svg width="24" height="25" viewBox="0 0 24 25" fill="none" xmlns="http://www.w3.org/2000/svg">
<path d="M16 8.97681C17.5913 8.97681 19.1174 9.60895 20.2426 10.7342C21.3679 11.8594 22 13.3855 22 14.9768V21.9768H18V14.9768C18 14.4464 17.7893 13.9377 17.4142 13.5626C17.0391 13.1875 16.5304 12.9768 16 12.9768C15.4696 12.9768 14.9609 13.1875 14.5858 13.5626C14.2107 13.9377 14 14.4464 14 14.9768V21.9768H10V14.9768C10 13.3855 10.6321 11.8594 11.7574 10.7342C12.8826 9.60895 14.4087 8.97681 16 8.97681V8.97681Z" stroke="white" stroke-width="2" stroke-linecap="round" stroke-linejoin="round"/>
<path d="M6 9.97681H2V21.9768H6V9.97681Z" stroke="white" stroke-width="2" stroke-linecap="round" stroke-linejoin="round"/>
<path d="M4 6.97681C5.10457 6.97681 6 6.08138 6 4.97681C6 3.87224 5.10457 2.97681 4 2.97681C2.89543 2.97681 2 3.87224 2 4.97681C2 6.08138 2.89543 6.97681 4 6.97681Z" stroke="white" stroke-width="2" stroke-linecap="round" stroke-linejoin="round"/>
</svg>
