<svg width="24" height="25" viewBox="0 0 24 25" fill="none" xmlns="http://www.w3.org/2000/svg">
<path d="M23 3.97661C22.0424 4.65209 20.9821 5.16872 19.86 5.50661C19.2577 4.81412 18.4573 4.3233 17.567 4.10053C16.6767 3.87777 15.7395 3.9338 14.8821 4.26106C14.0247 4.58832 13.2884 5.17101 12.773 5.93033C12.2575 6.68964 11.9877 7.58894 12 8.50661V9.50661C10.2426 9.55218 8.50127 9.16242 6.93101 8.37205C5.36074 7.58169 4.01032 6.41524 3 4.97661C3 4.97661 -1 13.9766 8 17.9766C5.94053 19.3746 3.48716 20.0755 1 19.9766C10 24.9766 21 19.9766 21 8.47661C20.9991 8.19806 20.9723 7.9202 20.92 7.64661C21.9406 6.6401 22.6608 5.36932 23 3.97661V3.97661Z" stroke="white" stroke-width="2" stroke-linecap="round" stroke-linejoin="round"/>
</svg>
